<svg width="52" height="52" viewBox="0 0 52 52" fill="none" xmlns="http://www.w3.org/2000/svg">
<g filter="url(#filter0_d_19_382)">
<rect x="4" y="2" width="44" height="44" rx="22" fill="white"/>
<path fill-rule="evenodd" clip-rule="evenodd" d="M18.9996 16.9997C20.7902 15.2092 23.2664 14.1001 26 14.1001C28.7336 14.1001 31.2098 15.2092 33.0004 16.9997C34.7909 18.7903 35.9 21.2665 35.9 24.0001C35.9 26.7337 34.7909 29.2099 33.0004 31.0005C31.2098 32.791 28.7336 33.9001 26 33.9001C23.2664 33.9001 20.7902 32.791 18.9996 31.0005C17.2091 29.2099 16.1 26.7337 16.1 24.0001C16.1 21.2665 17.2091 18.7903 18.9996 16.9997ZM26 15.9001C23.763 15.9001 21.7392 16.8057 20.2724 18.2725C18.8056 19.7393 17.9 21.7631 17.9 24.0001C17.9 26.2371 18.8056 28.2609 20.2724 29.7277C21.7392 31.1945 23.763 32.1001 26 32.1001C28.237 32.1001 30.2608 31.1945 31.7276 29.7277C33.1944 28.2609 34.1 26.2371 34.1 24.0001C34.1 21.7631 33.1944 19.7393 31.7276 18.2725C30.2608 16.8057 28.237 15.9001 26 15.9001Z" fill="#2D66EE"/>
<path fill-rule="evenodd" clip-rule="evenodd" d="M21.8281 19.8282C22.8948 18.7615 24.371 18.1001 26 18.1001C27.629 18.1001 29.1052 18.7615 30.1719 19.8282C31.2386 20.8949 31.9 22.3711 31.9 24.0001C31.9 25.6291 31.2386 27.1053 30.1719 28.172C29.1052 29.2387 27.629 29.9001 26 29.9001C24.371 29.9001 22.8948 29.2387 21.8281 28.172C20.7614 27.1053 20.1 25.6291 20.1 24.0001C20.1 22.3711 20.7614 20.8949 21.8281 19.8282ZM26 19.9001C24.8676 19.9001 23.8438 20.358 23.1009 21.101C22.3579 21.8439 21.9 22.8677 21.9 24.0001C21.9 25.1325 22.3579 26.1563 23.1009 26.8992C23.8438 27.6422 24.8676 28.1001 26 28.1001C27.1324 28.1001 28.1562 27.6422 28.8991 26.8992C29.6421 26.1563 30.1 25.1325 30.1 24.0001C30.1 22.8677 29.6421 21.8439 28.8991 21.101C28.1562 20.358 27.1324 19.9001 26 19.9001Z" fill="#2D66EE"/>
<path fill-rule="evenodd" clip-rule="evenodd" d="M27.3435 22.6566C27.0007 22.3137 26.5244 22.1001 26 22.1001C25.4756 22.1001 24.9994 22.3137 24.6565 22.6566C24.3137 22.9994 24.1 23.4757 24.1 24.0001C24.1 24.5245 24.3137 25.0008 24.6565 25.3436C24.9994 25.6864 25.4756 25.9001 26 25.9001C26.5244 25.9001 27.0007 25.6864 27.3435 25.3436C27.6864 25.0008 27.9 24.5245 27.9 24.0001C27.9 23.4757 27.6864 22.9994 27.3435 22.6566Z" fill="#2D66EE"/>
</g>
<defs>
<filter id="filter0_d_19_382" x="0" y="0" width="52" height="52" filterUnits="userSpaceOnUse" color-interpolation-filters="sRGB">
<feFlood flood-opacity="0" result="BackgroundImageFix"/>
<feColorMatrix in="SourceAlpha" type="matrix" values="0 0 0 0 0 0 0 0 0 0 0 0 0 0 0 0 0 0 127 0" result="hardAlpha"/>
<feOffset dy="2"/>
<feGaussianBlur stdDeviation="2"/>
<feColorMatrix type="matrix" values="0 0 0 0 0 0 0 0 0 0 0 0 0 0 0 0 0 0 0.08 0"/>
<feBlend mode="normal" in2="BackgroundImageFix" result="effect1_dropShadow_19_382"/>
<feBlend mode="normal" in="SourceGraphic" in2="effect1_dropShadow_19_382" result="shape"/>
</filter>
</defs>
</svg>
