<svg width="52" height="52" viewBox="0 0 52 52" fill="none" xmlns="http://www.w3.org/2000/svg">
<g filter="url(#filter0_d_19_341)">
<rect x="4" y="2" width="44" height="44" rx="22" fill="white"/>
<path fill-rule="evenodd" clip-rule="evenodd" d="M17.1269 22.7818C17.2474 22.2996 17.7361 22.0064 18.2183 22.127L18 23.0001C18.2183 22.127 18.2184 22.127 18.2183 22.127L18.2217 22.1278L18.2423 22.1327C18.2619 22.1374 18.2928 22.1446 18.3349 22.154C18.4191 22.1728 18.548 22.2004 18.7197 22.234C19.063 22.3012 19.5772 22.3921 20.2466 22.4834C21.5856 22.6659 23.5448 22.8501 26 22.8501C28.4552 22.8501 30.4144 22.6659 31.7534 22.4834C32.4228 22.3921 32.937 22.3012 33.2803 22.234C33.452 22.2004 33.5809 22.1728 33.6651 22.154C33.7072 22.1446 33.7381 22.1374 33.7577 22.1327L33.7784 22.1278L33.7817 22.127C33.7816 22.127 33.7819 22.1269 33.7817 22.127C34.2637 22.0069 34.7526 22.2999 34.8731 22.7818C34.9937 23.264 34.7005 23.7527 34.2183 23.8732L34 23.0001C34.2183 23.8732 34.2185 23.8732 34.2183 23.8732L34.2134 23.8744L34.2041 23.8767L34.1725 23.8843C34.1456 23.8907 34.1072 23.8996 34.0576 23.9107C33.9582 23.9329 33.8137 23.9638 33.6259 24.0005C33.2505 24.074 32.7022 24.1706 31.9966 24.2668C30.5856 24.4593 28.5448 24.6501 26 24.6501C23.4552 24.6501 21.4144 24.4593 20.0034 24.2668C19.2978 24.1706 18.7495 24.074 18.3741 24.0005C18.1863 23.9638 18.0418 23.9329 17.9424 23.9107C17.8928 23.8996 17.8544 23.8907 17.8275 23.8843L17.7959 23.8767L17.7866 23.8744L17.7836 23.8737L17.7825 23.8734C17.7823 23.8734 17.7817 23.8732 18 23.0001L17.7825 23.8734C17.3003 23.7529 17.0063 23.264 17.1269 22.7818ZM18.2183 22.127C18.218 22.1269 18.2182 22.127 18.2183 22.127V22.127Z" fill="#2D66EE"/>
<path d="M35 28.5001C35 29.3285 34.3284 30.0001 33.5 30.0001H33V31.2001C33 31.4801 33 31.6201 33.0545 31.7271C33.1024 31.8212 33.1789 31.8977 33.273 31.9456C33.38 32.0001 33.52 32.0001 33.8 32.0001H34.2C34.48 32.0001 34.62 32.0001 34.727 31.9456C34.8211 31.8977 34.8976 31.8212 34.9455 31.7271C35 31.6201 35 31.4801 35 31.2001V28.5001Z" fill="#2D66EE"/>
<path fill-rule="evenodd" clip-rule="evenodd" d="M34.1 31.1001H33.9V30.8669C33.9677 30.8556 34.0344 30.8414 34.1 30.8245V31.1001ZM35.9 28.5001V31.2001C35.9 31.2074 35.9 31.2148 35.9 31.2222C35.9 31.3424 35.9001 31.4807 35.8902 31.6018C35.8788 31.7408 35.8501 31.9342 35.7474 32.1357C35.6132 32.3991 35.399 32.6133 35.1356 32.7475C34.9341 32.8502 34.7407 32.8789 34.6017 32.8903C34.4806 32.9002 34.3423 32.9001 34.2221 32.9001C34.2147 32.9001 34.2073 32.9001 34.2 32.9001H33.8C33.7927 32.9001 33.7853 32.9001 33.7779 32.9001C33.6577 32.9001 33.5194 32.9002 33.3983 32.8903C33.2593 32.8789 33.0659 32.8502 32.8644 32.7475C32.601 32.6133 32.3868 32.3991 32.2526 32.1357C32.1499 31.9342 32.1212 31.7408 32.1098 31.6018C32.0999 31.4807 32.1 31.3424 32.1 31.2222C32.1 31.2148 32.1 31.2074 32.1 31.2001V29.1001H33.5C33.8314 29.1001 34.1 28.8315 34.1 28.5001H35.9Z" fill="#2D66EE"/>
<path d="M17 28.5001C17 29.3285 17.6716 30.0001 18.5 30.0001H19V31.2001C19 31.4801 19 31.6201 18.9455 31.7271C18.8976 31.8212 18.8211 31.8977 18.727 31.9456C18.62 32.0001 18.48 32.0001 18.2 32.0001H17.8C17.52 32.0001 17.38 32.0001 17.273 31.9456C17.1789 31.8977 17.1024 31.8212 17.0545 31.7271C17 31.6201 17 31.4801 17 31.2001V28.5001Z" fill="#2D66EE"/>
<path fill-rule="evenodd" clip-rule="evenodd" d="M17.9 31.1001H18.1V30.8669C18.0323 30.8556 17.9656 30.8414 17.9 30.8245V31.1001ZM16.1 28.5001V31.2001C16.1 31.2074 16.1 31.2148 16.1 31.2222C16.1 31.3424 16.0999 31.4807 16.1098 31.6018C16.1212 31.7408 16.1499 31.9342 16.2526 32.1357C16.3868 32.3991 16.601 32.6133 16.8644 32.7475C17.0659 32.8502 17.2593 32.8789 17.3983 32.8903C17.5194 32.9002 17.6577 32.9001 17.7779 32.9001C17.7853 32.9001 17.7927 32.9001 17.8 32.9001H18.2C18.2073 32.9001 18.2147 32.9001 18.2221 32.9001C18.3423 32.9001 18.4806 32.9002 18.6017 32.8903C18.7407 32.8789 18.9341 32.8502 19.1356 32.7475C19.399 32.6133 19.6132 32.3991 19.7474 32.1357C19.8501 31.9342 19.8788 31.7408 19.8902 31.6018C19.9001 31.4807 19.9 31.3424 19.9 31.2222C19.9 31.2148 19.9 31.2074 19.9 31.2001V29.1001H18.5C18.1686 29.1001 17.9 28.8315 17.9 28.5001H16.1Z" fill="#2D66EE"/>
<path fill-rule="evenodd" clip-rule="evenodd" d="M23.6623 16.1001H28.3377C29.2008 16.1001 29.9166 16.1001 30.5047 16.1609C31.124 16.2249 31.6776 16.362 32.1962 16.6826C32.7149 17.0031 33.0851 17.4369 33.4193 17.9622C33.7368 18.4611 34.0569 19.1013 34.4428 19.8733L35.9 22.7876V30.9001H16.1V22.7876L17.5572 19.8733C17.9431 19.1013 18.2632 18.4611 18.5807 17.9622C18.9149 17.4369 19.2851 17.0031 19.8038 16.6826C20.3224 16.362 20.876 16.2249 21.4953 16.1609C22.0834 16.1001 22.7992 16.1001 23.6623 16.1001ZM21.6804 17.9513C21.2164 17.9993 20.9564 18.0862 20.7501 18.2137C20.5437 18.3413 20.3498 18.5349 20.0993 18.9285C19.8377 19.3397 19.5583 19.8959 19.1466 20.7193L17.9 23.2126V29.1001H34.1V23.2126L32.8534 20.7193C32.4417 19.8959 32.1623 19.3397 31.9007 18.9285C31.6502 18.5349 31.4563 18.3413 31.2499 18.2137C31.0436 18.0862 30.7836 17.9993 30.3196 17.9513C29.8348 17.9012 29.2124 17.9001 28.2918 17.9001H23.7082C22.7876 17.9001 22.1652 17.9012 21.6804 17.9513Z" fill="#2D66EE"/>
<path fill-rule="evenodd" clip-rule="evenodd" d="M15 22.6145V22.3853C15 21.8964 15.3963 21.5001 15.8852 21.5001H18V23.0001L17.6373 23.7255C17.5489 23.9024 17.3986 24.0407 17.2149 24.1141C16.154 24.5385 15 23.7572 15 22.6145ZM37 22.6145V22.3853C37 21.8964 36.6037 21.5001 36.1148 21.5001H34V23.0001L34.3627 23.7255C34.4511 23.9024 34.6014 24.0407 34.7851 24.1141C35.846 24.5385 37 23.7572 37 22.6145Z" fill="#2D66EE"/>
<path fill-rule="evenodd" clip-rule="evenodd" d="M19.107 26.3885C19.1686 25.8953 19.6184 25.5454 20.1116 25.607L22.1116 25.857C22.6048 25.9187 22.9547 26.3685 22.8931 26.8617C22.8314 27.3549 22.3816 27.7048 21.8884 27.6431L19.8884 27.3931C19.3952 27.3315 19.0453 26.8817 19.107 26.3885Z" fill="#2D66EE"/>
<path fill-rule="evenodd" clip-rule="evenodd" d="M32.8931 26.3885C32.8314 25.8953 32.3816 25.5454 31.8884 25.607L29.8884 25.857C29.3952 25.9187 29.0453 26.3685 29.107 26.8617C29.1686 27.3549 29.6184 27.7048 30.1116 27.6431L32.1116 27.3931C32.6048 27.3315 32.9547 26.8817 32.8931 26.3885Z" fill="#2D66EE"/>
</g>
<defs>
<filter id="filter0_d_19_341" x="0" y="0" width="52" height="52" filterUnits="userSpaceOnUse" color-interpolation-filters="sRGB">
<feFlood flood-opacity="0" result="BackgroundImageFix"/>
<feColorMatrix in="SourceAlpha" type="matrix" values="0 0 0 0 0 0 0 0 0 0 0 0 0 0 0 0 0 0 127 0" result="hardAlpha"/>
<feOffset dy="2"/>
<feGaussianBlur stdDeviation="2"/>
<feColorMatrix type="matrix" values="0 0 0 0 0 0 0 0 0 0 0 0 0 0 0 0 0 0 0.08 0"/>
<feBlend mode="normal" in2="BackgroundImageFix" result="effect1_dropShadow_19_341"/>
<feBlend mode="normal" in="SourceGraphic" in2="effect1_dropShadow_19_341" result="shape"/>
</filter>
</defs>
</svg>
