<svg width="52" height="52" viewBox="0 0 52 52" fill="none" xmlns="http://www.w3.org/2000/svg">
<g filter="url(#filter0_d_19_313)">
<rect x="4" y="2" width="44" height="44" rx="22" fill="white"/>
<path fill-rule="evenodd" clip-rule="evenodd" d="M26.9 14.0001C26.9 13.503 26.497 13.1001 26 13.1001C25.5029 13.1001 25.1 13.503 25.1 14.0001V14.1748C22.8052 14.5597 21.0012 16.3921 20.6587 18.701L20.5893 18.6898C20.4507 18.6673 20.345 18.6488 20.2752 18.6361C20.2403 18.6298 20.2144 18.6249 20.1978 18.6217L20.18 18.6183L20.1765 18.6176C19.6892 18.5204 19.2149 18.8363 19.1174 19.3236C19.02 19.811 19.3361 20.2851 19.8235 20.3826L19.8249 20.3829L19.8272 20.3834L19.8345 20.3848L19.86 20.3897C19.8817 20.3939 19.9129 20.3997 19.9532 20.4071C20.0338 20.4217 20.1508 20.4422 20.3012 20.4666C20.5603 20.5086 20.9188 20.5622 21.3617 20.6172C21.3539 20.7272 21.35 20.8382 21.35 20.9501C21.35 23.519 23.431 25.6001 26 25.6001C28.5689 25.6001 30.65 23.519 30.65 20.9501C30.65 20.8382 30.646 20.7272 30.6383 20.6172C31.0812 20.5622 31.4397 20.5086 31.6987 20.4666C31.8491 20.4422 31.9661 20.4217 32.0467 20.4071C32.087 20.3997 32.1182 20.3939 32.14 20.3897L32.1654 20.3848L32.1728 20.3834L32.1751 20.3829L32.1762 20.3827C32.6636 20.2852 32.98 19.811 32.8825 19.3236C32.785 18.8363 32.311 18.5202 31.8237 18.6175L31.8199 18.6183L31.8021 18.6217C31.7855 18.6249 31.7596 18.6298 31.7247 18.6361C31.6549 18.6488 31.5492 18.6673 31.4106 18.6898L31.3412 18.701C30.9987 16.3921 29.1947 14.5597 26.9 14.1748V14.0001ZM25.1001 16.0135C25.1072 16.5044 25.5074 16.9001 26 16.9001C26.4926 16.9001 26.8927 16.5044 26.8999 16.0135C28.272 16.3666 29.3275 17.5083 29.5545 18.9266C28.5923 19.021 27.3752 19.1001 26 19.1001C24.6248 19.1001 23.4077 19.021 22.4454 18.9266C22.6725 17.5083 23.728 16.3666 25.1001 16.0135ZM23.1542 20.7942C23.1514 20.8458 23.15 20.8978 23.15 20.9501C23.15 22.5249 24.4252 23.8001 26 23.8001C27.5748 23.8001 28.85 22.5249 28.85 20.9501C28.85 20.8978 28.8486 20.8458 28.8458 20.7942C28.0103 20.8562 27.049 20.9001 26 20.9001C24.9509 20.9001 23.9896 20.8562 23.1542 20.7942ZM19.9277 32.0809C19.8872 32.046 19.8895 31.9616 19.8947 31.7649C19.897 31.677 19.9 31.5668 19.9 31.4287C19.9 29.5361 22.6782 28.4001 26 28.4001C29.3218 28.4001 32.1 29.5361 32.1 31.4287C32.1 31.5668 32.1029 31.677 32.1052 31.7648C32.1105 31.9616 32.1127 32.046 32.0723 32.0809C32.0419 32.1071 31.9876 32.1054 31.8924 32.1025C31.8561 32.1014 31.8138 32.1001 31.7647 32.1001H20.2353C20.1861 32.1001 20.1439 32.1014 20.1076 32.1025C20.0124 32.1054 19.958 32.1071 19.9277 32.0809ZM26 26.6001C21.7728 26.6001 18.1 28.1019 18.1 31.4287C18.1 33.1643 18.7855 33.9001 20.2353 33.9001H31.7647C33.2144 33.9001 33.9 33.1643 33.9 31.4287C33.9 28.1019 30.2272 26.6001 26 26.6001Z" fill="#2D66EE"/>
</g>
<defs>
<filter id="filter0_d_19_313" x="0" y="0" width="52" height="52" filterUnits="userSpaceOnUse" color-interpolation-filters="sRGB">
<feFlood flood-opacity="0" result="BackgroundImageFix"/>
<feColorMatrix in="SourceAlpha" type="matrix" values="0 0 0 0 0 0 0 0 0 0 0 0 0 0 0 0 0 0 127 0" result="hardAlpha"/>
<feOffset dy="2"/>
<feGaussianBlur stdDeviation="2"/>
<feColorMatrix type="matrix" values="0 0 0 0 0 0 0 0 0 0 0 0 0 0 0 0 0 0 0.08 0"/>
<feBlend mode="normal" in2="BackgroundImageFix" result="effect1_dropShadow_19_313"/>
<feBlend mode="normal" in="SourceGraphic" in2="effect1_dropShadow_19_313" result="shape"/>
</filter>
</defs>
</svg>
