<svg width="31" height="17" viewBox="0 0 31 17" fill="none" xmlns="http://www.w3.org/2000/svg">
<path d="M14.8673 4.03355L14.9874 4.04055L15.0508 4.168L15.1621 4.12048L15.3042 4.09948L15.3096 4.21293H15.5487L15.6244 4.25198L15.7069 4.26192L15.7545 4.23577L15.9123 4.28955L15.9039 4.04313L16.0698 4.03871L16.1135 4.09101L16.2199 4.13227L16.2986 4.20152L16.3189 4.21256L16.3623 4.17131L16.3431 4.14553L16.3658 4.10759L16.3953 4.12932L16.4886 4.03171L16.4802 3.99672L16.4345 3.97904L16.418 3.89874L16.5266 3.90095L16.5558 3.8387L16.5877 3.82102L16.6698 3.8317L16.6887 3.7735L16.7094 3.77019L16.7236 3.70168L16.777 3.67074L16.8081 3.66779L16.8207 3.62396L16.8465 3.6258L16.8795 3.59338L16.8998 3.60001L16.9636 3.56944L16.9002 3.50019L16.9413 3.5083L16.906 3.3908L17.0208 3.28913L16.977 3.23094L17.0035 3.22283L17.0062 3.17274L16.9931 3.13185L16.9413 3.1278L16.9509 3.04308L16.8676 3.03682L16.8442 2.99004L16.8031 2.97678L16.7996 2.93626L16.7459 2.86149L16.7685 2.82797L16.8 2.82502L16.8215 2.81655L16.823 2.78635L16.861 2.75872L16.8806 2.78046L16.9037 2.73662L16.8672 2.73883L16.8649 2.67806L16.9747 2.681L16.9916 2.66185L16.9716 2.64012L16.9778 2.62023L16.9532 2.58302L17.0108 2.58708L17.0173 2.55724L17.0906 2.5624L17.0941 2.59849L17.1993 2.59113L17.197 2.52962L17.2703 2.53514L17.2726 2.58634L17.3195 2.59518L17.3283 2.62612L17.3594 2.63386L17.3728 2.67548L17.3748 2.73147L17.4262 2.74546L17.4504 2.69168L17.4089 2.68321L17.3963 2.62649L17.4277 2.62354L17.4416 2.5635L17.483 2.57197L17.5007 2.53772L17.5372 2.53551L17.5652 2.50678L17.7272 2.50936L17.7345 2.56608L17.7756 2.57971L17.784 2.70237L17.766 2.74141L17.7913 2.75357L17.8082 2.72962L17.9008 2.75209L17.9541 2.7311L17.9606 2.7974L17.9284 2.81508L17.9368 2.84639L17.9054 2.84897L17.9084 2.88433L17.8862 2.90311L18.0321 2.89943L18.0436 2.88028L18.0697 2.88212L18.0735 2.90274L18.1495 2.99483L18.1607 3.05155L18.2332 3.04235L18.2194 2.95542L18.287 2.94584L18.305 2.84602L18.6203 2.83755L18.6172 2.87291L18.6272 2.87365L18.616 2.94363L18.7366 2.96426L18.7447 2.98562L18.8107 2.98636L18.8387 2.95836L18.8594 2.95505L18.8771 2.93148L18.9236 2.92521L18.9485 2.87696L19.0245 2.8788L19.0199 2.92411L19.1747 3.08544L19.1447 3.12854L19.1205 3.21252L19.1443 3.27551L19.0967 3.29613L19.0975 3.33665L19.1336 3.37569L19.1436 3.42211L19.3613 3.44826L19.5379 3.43537L19.5728 3.3477L19.7168 3.31713L19.7487 3.34586L19.8181 3.31271L19.8988 3.31197L19.923 3.27882L19.9483 3.27661L19.964 3.31455L19.9644 3.40185L19.9959 3.4361L20.0166 3.6479L20.1122 3.60885L20.2551 3.67847L20.3564 3.67626L20.3656 3.72341L20.4213 3.72083L20.4747 3.81918L20.7634 3.8398L20.7657 3.86043L20.8049 3.86596L20.8221 4.60116L20.8379 4.63321L20.7922 4.64168L20.6874 4.72088L20.664 4.7474L20.6601 4.96435L20.7968 4.89989L20.8348 4.98424L20.9227 4.99198L20.9957 5.03212L20.9773 5.05901L20.9373 5.06306L20.9081 5.09806L20.8321 5.07743L20.6659 5.18167L20.6547 5.26344L20.5741 5.35479L20.4463 5.31833L20.3979 5.38978L20.3764 5.32864L20.356 5.33564L20.3679 5.35663L20.3069 5.37321L20.2865 5.34116L20.2505 5.3559L20.2382 5.41299L20.2708 5.42699L20.3169 5.52533L20.3092 5.54854L20.3361 5.56659L20.376 5.48445L20.4144 5.4896L20.5115 5.53159L20.4006 5.63326L20.2025 5.69477L20.229 5.75628L20.1875 5.77507L20.1234 5.78133L20.093 5.83069L19.9725 5.7817L19.9287 5.85831L19.8992 5.86457L19.8919 5.88299L19.9134 5.90472L19.8631 5.96108L19.7552 5.96734L19.7506 6.00528L19.7233 5.99239L19.6853 6.02628L19.7064 6.0528L19.6523 6.09884L19.7333 6.15151L19.6715 6.18245L19.5859 6.12941L19.5563 6.17361L19.501 6.19129L19.5175 6.29811L19.4676 6.31137L19.478 6.346L19.3847 6.27785L19.228 6.29369L19.2096 6.32979L19.1631 6.31506L19.2315 6.2226L19.218 6.16882L19.2407 6.13788L19.2338 6.1132L19.2111 6.10105L19.2622 6.03512L19.1777 5.96329L19.124 5.96697L19.114 5.92756L19.0633 5.94598L19.0526 5.91135L19.018 5.91725L19.0196 5.94598L18.9078 5.99165L18.8867 6.09921L18.8333 6.09847L18.8092 6.14378L18.7423 6.13678L18.684 6.18319L18.6997 6.21781L18.6011 6.28412L18.5481 6.28338L18.5366 6.30106L18.4874 6.31064L18.4778 6.54637L18.4241 6.45613L18.2632 6.52538L18.3096 6.63846L18.2858 6.6834L18.2033 6.69408L18.0962 6.75964L18.0359 6.7869L17.9898 6.76406L17.9929 6.68413L18.0593 6.59131L18.0436 6.55706L18.0086 6.56811L17.986 6.50475L17.7537 6.56921L17.7203 6.56627L17.695 6.57842L17.6619 6.57068L17.6178 6.581L17.6358 6.48854L17.5925 6.48486L17.5706 6.45945L17.5425 6.39535L17.523 6.39867L17.5003 6.4344L17.4865 6.37178L17.3851 6.42482L17.4116 6.50733L17.3502 6.54453L17.3168 6.54195L17.2949 6.51654L17.2872 6.54895L17.3091 6.57437L17.2999 6.6252L17.2803 6.62815L17.2484 6.60236L17.1525 6.65098L17.0557 6.59168L17.0123 6.58837L17 6.55927L16.9401 6.57805L16.9144 6.53385L16.9678 6.47676L16.9989 6.33752L17.0319 6.28817L17.0154 6.19203L17.0515 6.17103L17.0618 5.92019L16.8303 5.92646L16.8073 5.96734L16.7163 5.99865L16.5543 6.11542L16.484 6.06274L16.3784 6.08411L16.3343 6.07637L16.3842 6.1412L16.3896 6.20345L16.3009 6.26828L15.9757 6.30879L15.7998 6.41598L15.6939 6.2587L15.7768 6.21155L15.728 6.09516L15.6639 6.07269L15.4793 6.12426L15.2804 6.05648L15.2212 6.01559L15.1287 6.03917L15.0899 5.88962L15.0327 5.91541L15.0082 5.89515L14.9721 5.91209L14.9736 5.86936L14.9475 5.89183L14.9494 5.84432L14.941 5.80085L14.8012 5.72203L14.7548 5.86752L14.6062 5.88373L14.5778 5.82516L14.6269 5.60268L14.468 5.45498L14.5102 5.41851L14.4461 5.33822L14.5524 5.24723L14.5171 5.22108L14.5801 5.04538L14.5121 4.9102L14.4188 4.90541L14.3812 4.78128L14.511 4.79344L14.7068 4.69693L14.7375 4.56691L14.7705 4.38237L14.8619 4.30907L14.8673 4.03355Z" fill="white"/>
<path d="M9.62688 11.0442L9.56314 11.0766L9.4852 11.0924L9.44835 11.116L9.41533 11.1595L9.37847 11.2343L9.34967 11.3131L9.34545 11.3838L9.31282 11.3996L9.28825 11.439L9.28632 11.4696L8.98225 11.5521L7.90568 11.8788L7.79856 11.1212L7.73137 10.9425L7.66994 10.8272L7.68377 10.7838L7.59584 10.6747L7.58663 10.5385L7.14856 10.4132L6.9969 10.3528L6.77306 10.1366L6.72661 9.96347L6.61526 9.82866L6.67401 9.39734L6.70242 9.22974L6.65174 9.14686L6.63523 8.94759L6.5189 8.82272L6.54577 8.72474L6.50431 8.55383L6.47589 8.50742L6.50047 8.33651L6.52235 8.31994L6.5189 8.14718L6.3849 8.13613L6.38452 8.09046L6.32846 8.05142L6.30389 8.0912L6.25513 8.07904L6.25743 8.14276L6.23901 8.23669L6.15761 8.22896L6.11269 8.20722L5.93493 8.18918L5.96487 8.11624L5.93301 8.04663L5.95451 7.98401L5.90267 7.7317L5.86351 7.72286L5.82973 7.8061L5.78404 7.78437L5.79517 7.75527L5.70456 7.71586L5.64544 7.66355L5.63853 7.56152L5.68767 7.40056L5.66156 7.3431L5.70802 7.3652L5.73835 7.29079L5.79594 7.24107L5.86889 7.24143L5.88233 7.18802L5.97447 7.18618L6.0382 7.19723L6.11154 7.15561L6.09426 7.12504L6.14609 7.06242L6.16183 7.02301H6.24438L6.20061 6.97181L6.27241 6.85062L6.26972 6.81784L6.30312 6.75301L6.29352 6.69703L6.24323 6.67419L6.24092 6.64583L6.2056 6.63551L6.20291 6.54085L6.21674 6.46313L6.16068 6.38836L6.24016 6.30732L6.22749 6.27528L6.32155 6.16772L6.31003 6.15188L6.33307 6.16661L6.34689 6.16183L6.39028 6.09663L6.41715 6.08226L6.43174 6.05869L6.41946 6.00823L6.38951 5.9423L6.37722 5.86052L6.39988 5.81448L6.41523 5.76586L6.4375 5.77359L6.45555 5.77138L6.48127 5.78501L6.49356 5.78465L6.50315 5.77801L6.50968 5.78391L6.51352 5.80527L6.5308 5.81043L6.54308 5.82885L6.55883 5.82295L6.55767 5.80122L6.57495 5.79717L6.57956 5.78722L6.59184 5.78833L6.59799 5.77986L6.6168 5.77838L6.6264 5.7828L6.64444 5.7607L6.6406 5.73823L6.67247 5.72313L6.69666 5.73676L6.71048 5.7526L6.71432 5.77912L6.70933 5.79201L6.68514 5.82111L6.67938 5.83548L6.68514 5.84947L6.70626 5.86789L6.74196 5.88962L6.89823 6.02996L6.91166 6.03512L6.9347 6.01412L6.99536 6.01744L7.01072 6.05206L7.05871 6.076L7.1355 6.1331L7.14971 6.13346L7.16583 6.12057L7.18081 6.08705L7.2407 6.05353L7.27756 6.04322L7.35895 6.0016L7.39812 5.96661L7.44035 5.93714L7.46838 5.92683L7.47797 5.91688L7.48181 5.90472L7.47721 5.86863L7.47913 5.83142L7.50831 5.7386L7.52021 5.7224L7.53557 5.71724L7.59776 5.74781L7.64345 5.74818L7.66457 5.73013L7.67263 5.6804L7.68338 5.67525L7.71794 5.68225L7.73137 5.67341L7.7356 5.65573L7.72446 5.60784L7.72408 5.57359L7.74904 5.54633L7.75287 5.54522L7.77169 5.56806L7.77821 5.59127L7.81776 5.61189L7.85308 5.65794L7.8884 5.65978L7.92373 5.67819L7.93294 5.67083L7.9387 5.64026L7.92373 5.60084L7.91682 5.56069L7.92142 5.55738L7.96481 5.55627L7.97978 5.55112L7.99821 5.55333L8.03661 5.58279L8.05196 5.58574L8.09228 5.56106L8.10648 5.56769L8.12261 5.5839L8.14065 5.58758L8.21629 5.56033L8.26044 5.53822L8.27465 5.5537L8.2877 5.59716L8.31189 5.61558L8.34068 5.627L8.35988 5.65794L8.36142 5.69735L8.38445 5.72608L8.45203 5.77028L8.50347 5.78465L8.51614 5.78022L8.51845 5.77212L8.50808 5.74781L8.51115 5.73897L8.57297 5.71061L8.61098 5.71098L8.63133 5.74707L8.66281 5.73381L8.67433 5.69367L8.67932 5.55038L8.68546 5.49918L8.70351 5.49034L8.73307 5.48813L8.75035 5.51391L8.77338 5.53012L8.78529 5.52828L8.7945 5.51686L8.8137 5.51244L8.82752 5.53896L8.86015 5.53822L8.86975 5.55185L8.90623 5.51907L8.91698 5.51797L8.93502 5.50323L8.94347 5.51576L8.9404 5.54007L8.94731 5.55664L9.00336 5.56917L9.00759 5.56548L9.00298 5.55333L9.00643 5.54338L9.02602 5.53896L9.03369 5.52902L9.02832 5.49623L9.04636 5.48813L9.05903 5.47561L9.06518 5.47892L9.0717 5.47229L9.07785 5.47598L9.08629 5.46382L9.11163 5.47377L9.13467 5.54338L9.14542 5.55738L9.16462 5.56069L9.208 5.55112L9.24524 5.55517L9.27519 5.56106L9.28978 5.57727L9.31858 5.63473L9.31704 5.6502L9.30168 5.67009L9.29055 5.71319L9.29592 5.78722L9.31474 5.84211L9.33201 5.85205L9.35505 5.85426L9.42032 5.83069L9.44911 5.8329L9.45795 5.84505L9.44911 5.88115L9.45487 5.90509L9.50632 5.92867L9.52168 5.96845L9.54548 5.98613L9.58695 5.99165L9.6192 5.98281L9.63686 5.98392L9.69023 6.00233L9.77585 6.01154L9.79543 6.01928L9.8081 6.0388L9.8223 6.04285L9.83996 6.02849L9.90408 6.04322L9.95476 6.02996L9.96935 6.03033L10.0166 6.09258V6.10142L10.0005 6.10842L9.99853 6.11505L9.99968 6.18282L10.0008 6.19166L10.0093 6.1935L10.068 6.16477L10.1989 6.13273L10.2339 6.11505L10.2826 6.03696L10.3614 5.83953L10.3836 5.80859L10.4097 5.79827L10.4604 5.80527L10.4938 5.82185L10.5011 5.83216L10.503 5.88373L10.594 5.99276L10.6228 6.00823L10.713 6.01891L10.7941 6.0248L10.8716 6.02075L10.9177 6.02959L10.9753 6.02885L11.0494 6.00344L11.1093 6.00049L11.4214 5.87857L11.4391 5.86421L11.4506 5.83437L11.4729 5.69403L11.5404 5.36695L11.603 5.34669L11.6525 5.36989L11.7074 5.34669L11.7408 5.2907L11.7931 5.36805L11.7996 5.44061L11.8364 5.55959L11.8971 5.58243L11.9367 5.52938L11.9566 5.51539L12.0672 5.57911V5.62331L12.0422 5.62736L12.0173 5.71024L12.1517 5.83584L12.0672 5.8922L12.0822 5.95556L12.0818 6.02333L12.1862 5.99202L12.2546 6.32574L12.3532 6.47639L12.3682 6.53385L12.5306 6.76664L12.5452 6.8241L12.5091 6.94566L12.3909 6.85247L12.2718 6.95376L12.2611 7.07163L12.1432 7.14051L12.1674 7.26759L12.1916 7.30074L12.1037 7.27164L12.0403 7.35083L12.0791 7.39319L12.2154 7.61456L12.1908 7.63261L12.1762 7.61862L12.0645 7.63593L12.0453 7.68713L12.1421 7.67866L12.1954 7.85583L12.4035 8.05326L12.5648 7.96891L12.6423 8.03521L12.6469 8.07646L12.5974 8.13982L12.6258 8.23227L12.8692 8.31147L12.9126 8.35824L13.0343 8.40244L13.1553 8.48348L13.3161 8.77815L13.4528 9.00763L13.5208 9.03673L13.3553 9.21169L12.4753 9.80177L12.4193 9.81909L12.3866 9.77415L12.172 9.7421L12.2043 9.67064L11.9985 9.41943L11.9052 9.43306L11.8437 9.32072L11.7163 9.13655L11.2628 9.23674L11.006 9.8957L10.6938 9.87102L10.6723 10.0979L10.4435 10.116L10.1429 10.3838L10.0799 10.478L9.99392 10.5683L9.82998 10.8044L9.62688 11.0442Z" fill="white"/>
<path d="M24.1186 9.7491L24.2077 9.80472L24.245 9.84671L24.339 9.85481L24.3755 9.94469L24.7076 9.90896L24.9418 10.2239L25.2969 10.1049L25.4563 10.1683L25.4532 10.2419L25.7085 10.3495L25.9255 10.4659L26.1574 10.4714L26.1992 10.5326L26.2345 10.5315L26.2764 10.5053L26.2983 10.558L26.3224 10.5849L26.3558 10.5396L26.3777 10.5399L26.3497 10.5819L26.3747 10.5871L26.4008 10.5882L26.4269 10.607L26.4511 10.5642L26.4687 10.5635L26.4549 10.5996L26.4173 10.6265L26.4276 10.6375L26.4603 10.6313L26.4338 10.6648L26.681 10.9429L26.7394 11.1547L26.8603 11.281L26.8373 11.4357L26.8465 11.4939L26.8738 11.5168L26.951 11.4902L26.9636 11.5068L27.0293 11.5448L27.0569 11.5683L27.1859 11.5949L27.1963 11.6089L27.2163 11.6818L27.1878 11.8118L27.1088 11.9238L27.0692 11.8973L26.9748 11.8166L26.9348 11.807L26.8745 11.8192L26.8315 11.8358L26.7601 11.8829L26.7125 11.8873L26.6906 11.8752L26.6776 11.838L26.6703 11.8343L26.6304 11.8442L26.6112 11.8387L26.6062 11.7978L26.5977 11.782L26.5885 11.7356L26.5609 11.7153L26.5467 11.6914L26.5152 11.6748L26.5079 11.6858L26.4925 11.6932L26.468 11.6877L26.4323 11.7149L26.4215 11.7352L26.3939 11.7415L26.3827 11.7562L26.3628 11.7676L26.3259 11.7735L26.3144 11.754L26.3098 11.7547L26.2741 11.7871L26.2506 11.782L26.2426 11.7753L26.2199 11.796L26.1827 11.8019L26.1681 11.7974L26.1627 11.8048L26.1347 11.8133L26.124 11.8328L26.1159 11.8346L26.0802 11.8243L26.0786 11.8365L26.0675 11.8479L26.0656 11.8608L26.0575 11.8693L26.0422 11.8685L26.013 11.8781L25.9654 11.8766L25.9201 11.9138L25.8928 11.9164L25.8652 11.8995L25.8164 11.8862L25.7995 11.87L25.7941 11.8722L25.7899 11.8939L25.7753 11.9068L25.7081 11.9341L25.6728 11.9297L25.639 11.9345L25.6241 11.923L25.6068 11.9267L25.5884 11.9418L25.5749 11.9772L25.5404 12.0004H25.5112L25.4962 11.9812L25.4862 11.9783L25.4651 11.986L25.4371 12.0085L25.4194 12.014L25.3868 12.0159L25.3684 11.9997L25.3426 12.0019L25.3177 11.9956L25.3115 12.0056L25.3208 12.0258L25.3184 12.035L25.3073 12.0291L25.2962 12.0313L25.2532 12.0766L25.1775 12.1227L25.1656 12.1356L25.1464 12.1411L25.138 12.154L25.1464 12.1628L25.1664 12.1492L25.1829 12.1488L25.2075 12.1647L25.2271 12.1673L25.249 12.2295L25.2793 12.2453L25.3396 12.2365L25.3634 12.2159L25.4194 12.2236L25.4459 12.2045L25.4647 12.2067L25.4762 12.2192L25.472 12.2317L25.4785 12.235L25.5104 12.2262L25.5281 12.2597L25.5895 12.2892L25.616 12.3139L25.6198 12.3404L25.5561 12.361L25.5258 12.3905L25.5576 12.4376L25.548 12.4582L25.5281 12.5382L25.512 12.5654L25.5273 12.6137L25.5419 12.7264L25.5569 12.7688V12.8476L25.5676 12.9154L25.5899 12.9688L25.5849 12.9894L25.5861 12.9993L25.5968 13.0126L25.5949 13.0406L25.634 13.1235L25.6317 13.1537L25.644 13.2078L25.6578 13.2174L25.6962 13.2995L25.7907 13.5279L25.8022 13.5426L25.8122 13.5773L25.8034 13.6071L25.8045 13.6263L25.7857 13.6447L25.7488 13.7206L25.7504 13.7276L25.7592 13.7382L25.8114 13.7349L25.8218 13.7393L25.8233 13.7666L25.8387 13.7961L25.8395 13.8207L25.8525 13.8506L25.8356 13.8808L25.8122 13.8826L25.7949 13.8966L25.7757 13.8856L25.755 13.8819L25.6985 13.8974L25.6306 13.9511L25.5619 13.9699L25.5461 13.9872L25.5457 14.0178L25.5576 14.0392L25.5822 14.0624L25.6164 14.0837L25.6801 14.0996L25.6966 14.1272L25.6947 14.1316L25.6866 14.1301L25.6655 14.1412L25.6571 14.1327L25.654 14.1412L25.641 14.146L25.6287 14.1408L25.6237 14.1511L25.5692 14.1732L25.5695 14.1828L25.553 14.1935L25.5415 14.1895L25.5216 14.1972L25.5212 14.1891L25.5004 14.1968L25.4966 14.1861L25.4897 14.1858L25.449 14.1924L25.4467 14.2219L25.4344 14.2513L25.4194 14.3125L25.3929 14.3372L25.3814 14.3784L25.3891 14.4171L25.4129 14.4646L25.4352 14.4845L25.4555 14.4863L25.4636 14.4952L25.4494 14.511L25.4179 14.5261L25.4133 14.5478L25.4121 14.5803L25.4279 14.6013L25.4267 14.6536L25.4617 14.6775L25.4528 14.7066L25.4709 14.7305L25.4643 14.7659L25.4398 14.7795L25.426 14.7803L25.4125 14.77L25.4037 14.7696L25.3822 14.7865L25.3707 14.7843L25.3507 14.7976L25.3449 14.7943L25.3399 14.7777L25.3461 14.7298L25.3323 14.7095L25.32 14.676L25.3027 14.6653L25.2735 14.6583L25.2436 14.6307L25.2313 14.5968L25.2205 14.5784L25.2117 14.5729L25.1672 14.5699L25.1603 14.5843L25.1503 14.5869L25.1445 14.5799V14.5666L25.1391 14.5648L25.1061 14.5622L25.0942 14.5548L25.0762 14.5574L25.0662 14.542L25.0063 14.5327L24.9702 14.5571L24.9383 14.5519L24.8911 14.5526L24.8723 14.5224L24.8055 14.4709L24.7875 14.4329L24.7782 14.4245L24.7345 14.392L24.6992 14.3828L24.6853 14.3655L24.6742 14.3615L24.6435 14.3099L24.6358 14.2697L24.6393 14.2517L24.6481 14.2399L24.6435 14.2359L24.6254 14.2362L24.5855 14.2488L24.5736 14.2734L24.5659 14.2782L24.5433 14.2499L24.5298 14.2425L24.5007 14.2458L24.4792 14.2381L24.458 14.244L24.4377 14.2307L24.3985 14.2233L24.3793 14.2134L24.3598 14.2152L24.3375 14.1968L24.3148 14.1979L24.3041 14.1902L24.2764 14.1998L24.2553 14.1725L24.1789 14.1556L24.162 14.1298L24.1332 14.1195L24.0683 14.1453L24.0445 14.1368L24.0319 14.1607L24.0134 14.1662L23.8994 14.1412L23.8841 14.164L23.8468 14.1578L23.8288 14.1633L23.8107 14.1828L23.7961 14.1626L23.7827 14.1548L23.7712 14.1552L23.7431 14.1718L23.7193 14.1471L23.6959 14.1541L23.6683 14.1412L23.6426 14.1427L23.6291 14.1371L23.6069 14.1128L23.5458 14.1165L23.5001 14.1069L23.4556 14.1062L23.4164 14.0922L23.3803 14.0963L23.3573 14.0882L23.2782 14.108L23.2156 14.1099L23.1884 14.1018L23.1665 14.0727L23.153 14.065L23.0866 14.0583L23.054 14.0635L22.9691 14.0421L22.9073 14.0429L22.8747 14.0734L22.8397 14.0782L22.8275 14.1088L22.8155 14.118L22.7295 14.1106L22.6988 14.1136L22.6601 14.1047L22.6386 14.1338L22.6082 14.1368L22.5357 14.1567L22.5176 14.1559L22.5119 14.1511L22.5003 14.1176L22.4769 14.1044L22.3771 14.1003L22.3034 14.1136L22.2942 14.1095L22.2823 14.0937L22.2477 14.09L22.2227 14.0701L22.1993 14.0812L22.1744 14.0742L22.1383 14.0918L22.1325 14.0926L22.1248 14.058L22.0861 14.0742L22.0446 14.0491L21.9724 14.0568L21.964 14.041L22.007 14.0285L22.0269 13.9894L21.8864 13.9257L21.8142 13.9114L21.7966 13.8414L21.7678 13.8292L21.7781 13.7869L21.7497 13.7706L21.7582 13.6874L21.8572 13.5721L21.8304 13.5286L21.7186 13.5419L21.7298 13.5077L21.6875 13.5025L21.6622 13.5191L21.5363 13.4767L21.5359 13.4134L21.6991 13.2645L21.7275 13.2517L21.7451 13.2056L21.7279 13.1345L21.7609 13.0981L21.7778 13.0553L21.7743 12.9323L21.6968 12.8815L21.6545 12.8266L21.6081 12.8203L21.5367 12.7573L21.524 12.7559L21.3574 12.7386L21.2149 12.6078L21.1907 12.5713L21.2249 12.4505L21.1535 12.3323L20.9139 12.1713L20.8993 12.1275L20.8701 12.094L20.864 11.9709L20.6547 11.9658L20.6413 11.7776L20.8667 11.7934L20.826 11.6906L20.7937 11.3149L20.8648 11.2L20.9247 11.0744L20.9899 10.9709L21.0755 10.8784L21.2341 10.7223L21.4372 10.5462L21.8638 10.3108L22.0415 10.3451L22.2696 10.3046L22.5241 10.3477L22.5234 10.3779L22.5664 10.3889L22.6174 10.3311L22.6382 10.3911L22.6612 10.3642L22.7292 10.3878L22.7526 10.3348L22.801 10.3421L22.8697 10.3617L22.9829 10.4099L22.9023 10.3318L22.9542 10.3226L23.0329 10.3613L23.107 10.3513L23.1814 10.3893L23.206 10.4497L23.2621 10.4416L23.2609 10.376L23.4871 10.3517L23.4548 9.81098L23.4752 9.77488L23.6679 9.81614L23.7773 9.69827L23.8725 9.79441L23.9927 9.64744L24.1186 9.7491Z" fill="white"/>
<path d="M2.77511 10.8173L2.76974 10.8217L2.75822 10.8191L2.73518 10.7731L2.7275 10.769L2.73365 10.762L2.71291 10.7178L2.70907 10.6884L2.6918 10.6703L2.68911 10.6618L2.69333 10.656L2.70485 10.6519L2.74555 10.6674L2.78241 10.7072L2.79508 10.7528L2.77511 10.8173ZM5.64544 7.66355L5.70418 7.71623L5.79479 7.75527L5.78365 7.78474L5.82896 7.80647L5.86275 7.72322L5.90191 7.73206L5.95374 7.98438L5.93224 8.047L5.96372 8.11661L5.93416 8.18954L6.11154 8.20759L6.15646 8.22932L6.23785 8.23706L6.25628 8.14313L6.25436 8.07941L6.30312 8.09157L6.32731 8.05178L6.38375 8.09083V8.1365L6.51774 8.14755L6.5212 8.3203L6.49932 8.33651L6.47474 8.50742L6.50316 8.55383L6.54462 8.72474L6.51774 8.82272L6.63408 8.94759L6.65059 9.14686L6.70127 9.22974L6.67286 9.3977L6.61411 9.82866L6.72546 9.96384L6.77191 10.137L6.99575 10.3528L7.1474 10.4132L7.58548 10.5385L7.59469 10.6747L7.68261 10.7834L7.66879 10.8269L7.72984 10.9422L7.66303 10.9038L7.60468 10.9079L7.56974 10.8766L7.51829 10.902L7.4392 10.8792L7.41962 10.8217L7.3866 10.8077L7.34859 10.8328L7.31019 10.811L7.25452 10.7956L7.24224 10.7628L7.25414 10.706L7.22841 10.632L7.19194 10.6272L7.17044 10.6383L7.15892 10.6567L7.13704 10.6633L7.08866 10.6346L6.99844 10.5119L6.82259 10.6792L6.74005 10.6681L6.44518 10.6976L6.30236 10.751L6.18948 10.7536L6.12037 10.7801L6.07199 10.7911L6.0263 10.7889L5.97332 10.8007L5.95835 10.8243L5.84317 10.8107L5.85353 10.8563L5.81322 10.9304L5.64352 11.0516L5.72184 11.0958L5.67346 11.1403L5.59783 11.1842L5.5076 11.2214L5.45424 11.2284L5.40432 11.26L5.28914 11.2453L5.26534 11.3024L5.16475 11.2972L4.99389 11.2567L4.99274 11.2475L5.02077 11.2519L5.03421 11.2464L5.0058 11.2368L5.00119 11.2276L5.00388 11.2029L5.01962 11.1963L5.01731 11.1794L5.02461 11.1735L5.0822 11.168L5.05187 11.151L5.04688 11.1355L5.05686 11.1256L5.08719 11.1179L5.07068 11.1002L5.06031 11.0748L5.04227 11.0608L5.03805 11.0479L5.04457 11.0412L5.07721 11.0409L5.08796 11.0217L5.04649 10.9867L5.03152 10.9812L5.00887 10.9554L5.02461 10.9355L5.05072 10.9359L5.02422 10.9234L5.02115 10.909L5.01079 10.9057L5.01885 10.8932L5.01731 10.8788L5.03843 10.8633L5.07106 10.8674L5.05916 10.8482L5.07068 10.8409L5.05494 10.8357L5.05264 10.8258L5.07874 10.8121L5.09717 10.7827L5.11215 10.7992L5.10984 10.7845L5.11483 10.7705L5.11023 10.7657L5.09986 10.769L5.09257 10.7572L5.10255 10.7418L5.10485 10.7212L5.12174 10.6979L5.12443 10.67L5.17051 10.6224L5.19124 10.6158L5.17166 10.6088L5.16974 10.6025L5.19354 10.5992L5.19776 10.5937L5.18202 10.5852L5.16705 10.562L5.13518 10.5348L5.14593 10.4788L5.1371 10.4412L5.16513 10.4151L5.13557 10.4044L5.14593 10.3801L5.13134 10.3289L5.12366 10.3267L5.1133 10.3318L5.10216 10.3267L5.08527 10.3377L5.07529 10.3333L5.08412 10.3167L5.09756 10.3127L5.07337 10.2891L5.06531 10.292L5.05916 10.288L5.06531 10.2626L5.07951 10.2523L5.0703 10.2338L5.05494 10.2279L5.05033 10.2305L5.03229 10.2589L4.99543 10.2799L4.97508 10.3108L4.97431 10.3373L4.96164 10.3362L4.94859 10.3274L4.95012 10.309L4.9436 10.2979L4.94667 10.2858L4.95665 10.2762L4.95204 10.2604L4.93861 10.2519L4.9244 10.2574L4.9148 10.2692L4.90712 10.267L4.90866 10.2394L4.9148 10.2302L4.90136 10.2257L4.89868 10.2154L4.86796 10.2036L4.86374 10.197L4.86719 10.1907L4.88102 10.1944L4.89714 10.1771L4.89061 10.1683L4.89445 10.1506L4.88601 10.1366L4.86873 10.1252L4.75815 10.1458L4.72936 10.176L4.71208 10.1841L4.70287 10.1826L4.68943 10.1539L4.67254 10.151L4.65219 10.2397L4.64336 10.2497L4.62109 10.2585H4.58845L4.53317 10.2294L4.45945 10.2165L4.40493 10.1874L4.36577 10.1915L4.34888 10.183L4.34811 10.1749L4.33889 10.1786L4.33467 10.1697L4.28668 10.1535L4.23293 10.1458L4.20567 10.1473L4.17726 10.1278L4.18186 10.1675L4.19914 10.1837L4.21834 10.193L4.2287 10.2099L4.22602 10.2523L4.21603 10.2718L4.21104 10.2685L4.21527 10.2802L4.21027 10.2806L4.19722 10.2467L4.20375 10.2162L4.18801 10.2003L4.17457 10.1985L4.17073 10.1841L4.15576 10.1712L4.13771 10.1064L4.13157 10.1068L4.13042 10.1189L4.12235 10.1197L4.11275 10.1329L4.09394 10.1362L4.0686 10.1613L4.06054 10.165L4.05593 10.1587L4.0759 10.1388L4.09471 10.1285L4.10239 10.099L4.1093 10.0987L4.11122 10.0928L4.10508 10.0828L4.11775 10.0729L4.12043 10.053L4.08626 10.0703L4.05862 10.1027L4.07513 10.0718L4.07474 10.0603L4.03213 10.0132L3.93461 9.98558L3.90466 9.99L3.89468 9.98226L3.87471 9.99073L3.83785 9.97894L3.82096 9.98668L3.80599 9.98594L3.75339 10.0294L3.74149 10.0301L3.73074 10.0379L3.72498 10.0648L3.71269 10.0618L3.70079 10.0685L3.66431 10.0673L3.64704 10.0592L3.62861 10.0589L3.58714 10.0394L3.55182 10.0475L3.53646 10.057L3.52034 10.0788L3.51419 10.0817L3.50728 10.0747L3.49576 10.0769L3.46159 10.1381L3.44163 10.1565L3.42666 10.1572L3.42013 10.1502L3.42742 10.1219L3.42435 10.1086L3.41475 10.1038L3.404 10.1086L3.37943 10.1259L3.36023 10.1502L3.35486 10.1885L3.33451 10.2401L3.3253 10.2489L3.31224 10.246L3.30418 10.2349L3.31378 10.2025L3.30879 10.1955L3.28383 10.2151L3.2727 10.2147L3.26579 10.1716L3.24736 10.1447L3.2105 10.2044L3.20282 10.2257L3.18938 10.2394L3.18401 10.2412L3.17479 10.2302L3.18094 10.1974L3.1721 10.197L3.15099 10.2092L3.13985 10.2235L3.14676 10.2324L3.12142 10.2523L3.10223 10.2906L3.0934 10.323L3.07996 10.3429L3.06998 10.3318L3.06691 10.2563L3.01661 10.3075L2.99434 10.3226L2.94059 10.3996L2.93137 10.4313L2.88031 10.418L2.85344 10.4302L2.82387 10.4751L2.82771 10.5101L2.81735 10.5245L2.79776 10.5337L2.78548 10.5506L2.75323 10.5403L2.73288 10.5245L2.74248 10.5528L2.73672 10.5753L2.77281 10.6033L2.76513 10.6066L2.74248 10.5963L2.7371 10.6022L2.7682 10.6265L2.7801 10.6456L2.77665 10.6537L2.7563 10.6482L2.70831 10.6213L2.69218 10.6195L2.6726 10.6501L2.65955 10.6482L2.64918 10.6375L2.64073 10.6397L2.63382 10.6696L2.6438 10.6873L2.62998 10.7013L2.62077 10.6957L2.6081 10.6696L2.58852 10.6471L2.58199 10.6475L2.58583 10.6758L2.59888 10.6957L2.59965 10.7068L2.62192 10.7285L2.62653 10.7477L2.62154 10.7532L2.57086 10.7248L2.5459 10.7057L2.54206 10.6972L2.5244 10.6968L2.4933 10.6747L2.48485 10.6751L2.47794 10.6876L2.45644 10.6449L2.44723 10.6401L2.44953 10.6254L2.44454 10.6154L2.4526 10.6025L2.47641 10.6092L2.44608 10.5768L2.448 10.5635L2.44377 10.5558L2.405 10.5425L2.3881 10.5447L2.38234 10.5491L2.39578 10.5642H2.40999L2.41728 10.5716L2.42074 10.5834L2.41651 10.5981L2.42573 10.6316L2.46489 10.6729L2.46911 10.6876L2.46374 10.7027L2.47986 10.7123L2.48447 10.7208V10.7311L2.47833 10.7377L2.46527 10.7385L2.45798 10.7514H2.45068L2.42765 10.7344L2.42995 10.7252L2.41728 10.6832L2.42074 10.6677L2.41075 10.6641L2.41498 10.6537L2.39309 10.6022L2.3689 10.5804L2.33665 10.5628L2.3355 10.555L2.32667 10.5484L2.31208 10.5458L2.31784 10.5543L2.31439 10.5587L2.29519 10.5451L2.29288 10.5488L2.31016 10.5841L2.32936 10.5922L2.33205 10.5786L2.34088 10.5849L2.34548 10.6003L2.357 10.6125L2.35355 10.6239L2.35931 10.6405L2.34971 10.639L2.33397 10.6184L2.31055 10.6044L2.30747 10.611L2.31822 10.6188L2.32706 10.6405L2.30939 10.6471L2.31093 10.6235L2.29442 10.6095L2.28213 10.5889L2.28405 10.5808L2.29135 10.5768L2.27599 10.5631L2.26255 10.5628L2.2591 10.5676L2.26831 10.5871L2.25718 10.5937L2.27292 10.6081L2.27484 10.6224L2.28981 10.6412L2.31016 10.6582L2.30786 10.6666L2.26678 10.6453L2.19268 10.6254L2.17962 10.6055L2.15006 10.5882L2.12894 10.5841L2.09055 10.5657L2.05945 10.537L2.03334 10.5392L2.00685 10.5035L1.99687 10.4769L1.97114 10.4637L1.95847 10.4641L1.94388 10.453L1.92008 10.4497L1.89474 10.4014L1.879 10.411L1.83523 10.4022L1.82371 10.3904L1.82755 10.3712L1.82448 10.3639L1.79914 10.3609L1.77764 10.351L1.77802 10.3292L1.80029 10.2725L1.85212 10.2302L1.90856 10.2331L1.93198 10.2504L1.93659 10.2806L1.97882 10.32L2.01568 10.3241L2.10015 10.3145L2.13125 10.2898L2.1681 10.2375L2.14238 10.1668L2.00109 9.98337L1.96539 9.90417L1.91163 9.77599L1.8982 9.73142L1.8717 9.56014L1.7715 9.5583L1.70277 9.53988L1.62598 9.42201L1.59296 9.3465L1.55457 9.28204L1.45782 9.19217L1.41981 9.18775L1.38948 9.19696L1.26163 9.20911L1.18561 9.21059L1.08578 9.18038L0.977895 9.13618L0.979431 9.16528L0.971368 9.22348L0.954475 9.28352L0.820097 9.2069L0.777095 9.16491L0.759818 9.13618L0.791685 9.12034L0.794757 9.11371L0.7268 8.99695L0.687254 8.94022L0.777863 8.8975L0.792837 8.87539L0.820097 8.87797L0.828543 8.85661L0.745996 8.82825L0.744461 8.80873L0.762122 8.77373L0.760202 8.74279L0.752907 8.72401L0.745996 8.7148L0.70146 8.69564L0.685718 8.67097L0.798596 8.70706L0.886134 8.70264L1.26585 8.75974L1.92392 8.83009L2.13048 8.88571L2.49599 9.02457L2.49023 8.91407L2.72251 8.92623L2.76321 8.89455L2.88876 8.8975L3.04003 8.74869L3.45008 8.48459L3.49692 8.48348L3.56679 8.41976L3.59751 8.43449L3.66623 8.39397L3.7077 8.26911L3.86204 8.25879L3.95073 8.21975L4.26633 8.27205L4.28629 8.3111L4.26057 8.32841L4.25481 8.41681L4.49401 8.46911L4.5205 8.42418L4.55313 8.41976L4.71707 8.5089L4.79732 8.50705L4.84992 8.47648L4.83302 8.42344L4.88485 8.21238L4.97508 8.2087L4.96356 7.94533L5.0296 7.97333L5.07414 7.87388L5.12021 7.89524L5.37937 7.89561L5.49493 7.86062L5.47535 7.81678L5.61971 7.69928L5.64544 7.66355Z" fill="white"/>
<path d="M20.5741 5.35479L20.8314 5.4443L20.8344 5.52754L20.8671 5.5758L20.834 5.67304L20.8175 5.75812L20.8218 5.86973L20.7818 5.87857L20.7615 5.91909L20.7937 5.96697L20.7384 6.01707L20.8482 6.1331L20.9584 6.10547L21.0659 6.097L21.1262 6.04838L21.1362 6.07858L21.2583 6.10142L21.2994 6.15078L21.2564 6.18282L21.3059 6.30474L21.3581 6.17914L21.4625 6.28596L21.5056 6.2878L21.5631 6.38283L21.537 6.39756L21.5574 6.45318L21.6434 6.48597L21.6557 6.53054L21.6303 6.54085L21.6415 6.56148L21.6012 6.574L21.5935 6.56332L21.4917 6.60457L21.4929 6.62851L21.4453 6.65909L21.471 6.74344L21.519 6.74123L21.5332 6.7718L21.6081 6.75044L21.7624 6.64251L21.7985 6.5961L22.0173 6.6031L22.0438 6.58873L22.0542 6.55264L22.0899 6.53938L22.1229 6.57326L22.3852 6.50401L22.4819 6.55853L22.5172 6.55043L22.5518 6.46129L22.5691 6.47381L22.6278 6.4414L22.7119 6.43256L22.7956 6.48044L22.8236 6.43329L22.819 6.32316L22.8655 6.14562L22.9423 6.07379L23.0862 6.03806L23.2183 6.17214L23.3742 6.17803L23.497 6.25354L23.5412 6.40419L23.4817 6.48265L23.5677 6.54159L23.5508 6.60457L23.441 6.69224L23.3822 6.77069L23.2767 6.81711L23.2436 6.83921L23.1757 6.84105L23.155 6.92613L23.1776 6.95855L23.1603 7.02559L23.1799 7.07605L23.1645 7.13388L23.0981 7.23407L22.9039 7.30258L22.7276 7.38398L22.7165 7.44697L22.7764 7.5129L22.7745 7.54974L22.8374 7.56963L22.9495 7.6584L22.9515 7.72764L23.0117 7.76116L23.0839 7.83336L23.0125 7.86246L22.9972 7.84146L22.935 7.8724L22.9415 7.91476L22.9242 7.98548L22.9768 8.08604L23.2824 8.03779L23.3131 8.12545L23.2817 8.24332L23.2824 8.289L23.145 8.42455L23.0878 8.40576L23.0498 8.40871L23.011 8.44296L23.0194 8.49895L22.9603 8.51626L22.9879 8.57078L23.0524 8.59951L23.0628 8.64666L23.1795 8.64371L23.2148 8.65402L23.1987 8.69196L23.1331 8.69454L23.1135 8.74979L23.2095 8.83377L23.2847 8.82825L23.3377 8.86876L23.1987 8.91739L23.2433 8.9789L23.1922 8.97927L23.1853 9.06767L23.1484 9.0662L23.1116 9.21685L23.0666 9.31225L23.082 9.35461L23.0989 9.36197L23.1381 9.52404L23.1461 9.57856L23.0782 9.54983L23.0075 9.56051L23.0114 9.64118L22.9795 9.71558L22.9208 9.73695L22.9876 9.7701L23.0263 9.83345L23.0989 9.88502L23.2099 9.9248L23.2459 9.8294L23.2924 9.80177L23.3803 9.84303L23.4548 9.81098L23.4871 10.3517L23.2609 10.376L23.2621 10.4416L23.206 10.4497L23.1814 10.3893L23.107 10.3513L23.0329 10.3613L22.9542 10.3226L22.9023 10.3318L22.9829 10.4099L22.8697 10.3617L22.801 10.3421L22.7526 10.3348L22.7292 10.3878L22.6612 10.3642L22.6382 10.3911L22.6174 10.3311L22.5664 10.3889L22.5234 10.3779L22.5241 10.3477L22.2696 10.3046L22.0415 10.3451L21.8638 10.3108L21.4372 10.5462L21.2341 10.7223L21.0755 10.8784L20.9899 10.9709L20.9247 11.0744L19.6914 11.0608L18.9769 11.0862L18.8449 11.077L18.2467 11.0917L17.1897 11.0939L15.7783 11.0725L15.7664 10.9731L15.7303 10.9628L15.4343 10.9786L14.4603 10.7248L14.3224 10.6512L14.1865 10.5038L14.031 10.4909L13.6559 10.2972L13.5791 10.295L13.2048 10.1546L13.1722 10.123L13.1 10.1657L12.8788 10.0467L12.7798 10.0541L12.6673 9.98152L12.5782 9.90086L12.2699 9.95574L12.4753 9.80177L13.3553 9.21169L13.5208 9.03673L13.4528 9.00763L13.3161 8.77815L13.5269 8.59435L13.4855 8.46617L13.7638 8.40723L13.7066 8.33688L13.7323 8.2971L13.7043 8.2319L13.8625 8.2378L13.9009 7.96044L14.4764 8.05178L14.5317 8.02195L14.5858 8.02895L14.6707 8.00022L14.7202 7.88345L14.9525 7.87535L15.1767 7.63814L15.2904 7.62525L15.3387 7.46207L15.4366 7.47165L15.4766 7.37662L15.5906 7.27679L15.748 7.18839L15.9964 6.91508L16.1623 6.71065L16.1273 6.64288L16.1485 6.62078L16.1223 6.57216L16.1488 6.54085L16.2732 6.52538L16.4103 6.46902L16.4625 6.42556L16.4863 6.37068L16.5289 6.32647L16.5163 6.29701L16.4356 6.25354L16.4322 6.22997L16.3896 6.20345L16.3842 6.1412L16.3343 6.07637L16.3784 6.08411L16.484 6.06274L16.5543 6.11542L16.7163 5.99865L16.8073 5.96734L16.8303 5.92646L17.0618 5.92019L17.0515 6.17103L17.0154 6.19203L17.0319 6.28817L16.9989 6.33752L16.9678 6.47676L16.9144 6.53385L16.9401 6.57805L17 6.55927L17.0123 6.58837L17.0557 6.59168L17.1525 6.65098L17.2484 6.60236L17.2803 6.62815L17.2999 6.6252L17.3091 6.57437L17.2872 6.54895L17.2949 6.51654L17.3168 6.54195L17.3502 6.54453L17.4116 6.50733L17.3851 6.42482L17.4865 6.37178L17.5003 6.4344L17.523 6.39867L17.5425 6.39535L17.5706 6.45945L17.5925 6.48486L17.6358 6.48854L17.6178 6.581L17.6619 6.57068L17.695 6.57842L17.7203 6.56627L17.7537 6.56921L17.986 6.50475L18.0086 6.56811L18.0436 6.55706L18.0593 6.59131L17.9929 6.68413L17.9898 6.76406L18.0359 6.7869L18.0962 6.75964L18.2033 6.69408L18.2858 6.6834L18.3096 6.63846L18.2632 6.52538L18.4241 6.45613L18.4778 6.54637L18.4874 6.31064L18.5366 6.30106L18.5481 6.28338L18.6011 6.28412L18.6997 6.21781L18.684 6.18319L18.7423 6.13678L18.8092 6.14378L18.8333 6.09847L18.8867 6.09921L18.9078 5.99165L19.0196 5.94598L19.018 5.91725L19.0526 5.91135L19.0633 5.94598L19.114 5.92756L19.124 5.96697L19.1777 5.96329L19.2622 6.03512L19.2111 6.10105L19.2338 6.1132L19.2407 6.13788L19.218 6.16882L19.2315 6.2226L19.1631 6.31506L19.2096 6.32979L19.228 6.29369L19.3847 6.27785L19.478 6.346L19.4676 6.31137L19.5175 6.29811L19.501 6.19129L19.5563 6.17361L19.5859 6.12941L19.6715 6.18245L19.7333 6.15151L19.6523 6.09884L19.7064 6.0528L19.6853 6.02628L19.7233 5.99239L19.7506 6.00528L19.7552 5.96734L19.8631 5.96108L19.9134 5.90472L19.8919 5.88299L19.8992 5.86457L19.9287 5.85831L19.9725 5.7817L20.093 5.83069L20.1234 5.78133L20.1875 5.77507L20.229 5.75628L20.2025 5.69477L20.4006 5.63326L20.5115 5.53159L20.4144 5.4896L20.376 5.48445L20.3361 5.56659L20.3092 5.54854L20.3169 5.52533L20.2708 5.42699L20.2382 5.41299L20.2505 5.3559L20.2865 5.34116L20.3069 5.37321L20.3679 5.35663L20.356 5.33564L20.3764 5.32864L20.3979 5.38978L20.4463 5.31833L20.5741 5.35479Z" fill="white"/>
<path d="M14.8154 1.37855L14.8427 1.37597L14.9014 1.35608L14.9398 1.49568L14.9556 1.51778L14.9341 1.54725L15.0189 1.7712L14.8757 1.82019L15.0166 1.90491L15.0688 1.9097L15.1095 2.0132L15.0884 2.03272L15.0208 2.03898L14.8258 2.1377L14.9037 2.37786L14.9993 2.35797L15.0009 2.55172L14.9402 2.60881L14.9068 2.65227L14.9394 2.74583L15.0654 2.75872L15.073 3.07771L15.1855 3.14511L15.1667 3.22467L15.0573 3.20257L15.0085 3.23978L14.9298 3.23462L14.8968 3.27293L14.9237 3.39006L14.9606 3.39227L14.9667 3.50277L14.951 3.50167L14.9559 3.63685L14.8765 3.65674L14.8673 4.03355L14.8619 4.30907L14.7705 4.38237L14.7375 4.56691L14.7068 4.69693L14.511 4.79344L14.3812 4.78128L14.4188 4.90541L14.5121 4.9102L14.5801 5.04538L14.5171 5.22108L14.5524 5.24723L14.4461 5.33822L14.5102 5.41851L14.468 5.45498L14.6269 5.60268L14.5778 5.82516L14.6062 5.88373L14.7548 5.86752L14.8012 5.72203L14.941 5.80085L14.9494 5.84432L14.9475 5.89183L14.9736 5.86936L14.9721 5.91209L15.0082 5.89515L15.0327 5.91541L15.0899 5.88962L15.1287 6.03917L15.2212 6.01559L15.2804 6.05648L15.4793 6.12426L15.6639 6.07269L15.728 6.09516L15.7768 6.21155L15.6939 6.2587L15.7998 6.41598L15.9757 6.30879L16.3009 6.26828L16.3896 6.20345L16.4322 6.22997L16.4356 6.25354L16.5163 6.29701L16.5289 6.32647L16.4863 6.37068L16.4625 6.42556L16.4103 6.46902L16.2732 6.52538L16.1488 6.54085L16.1223 6.57216L16.1485 6.62078L16.1273 6.64288L16.1623 6.71065L15.9964 6.91508L15.748 7.18839L15.5906 7.27679L15.4766 7.37662L15.4366 7.47165L15.3387 7.46207L15.2904 7.62525L15.1767 7.63814L14.9525 7.87535L14.7202 7.88345L14.6707 8.00022L14.5858 8.02895L14.5317 8.02195L14.4764 8.05178L13.9009 7.96044L13.8625 8.2378L13.7043 8.2319L13.7323 8.2971L13.7066 8.33688L13.7638 8.40723L13.4855 8.46617L13.5269 8.59435L13.3161 8.77815L13.1553 8.48348L13.0343 8.40244L12.9126 8.35824L12.8692 8.31147L12.6258 8.23227L12.5974 8.13982L12.6469 8.07646L12.6423 8.03521L12.5648 7.96891L12.4035 8.05326L12.1954 7.85583L12.1421 7.67866L12.0453 7.68713L12.0645 7.63593L12.1762 7.61862L12.1908 7.63261L12.2154 7.61456L12.0791 7.39319L12.0403 7.35083L12.1037 7.27164L12.1916 7.30074L12.1674 7.26759L12.1432 7.14051L12.2611 7.07163L12.2718 6.95376L12.3909 6.85247L12.5091 6.94566L12.5452 6.8241L12.5306 6.76664L12.3682 6.53385L12.3532 6.47639L12.2546 6.32574L12.1862 5.99202L12.0818 6.02333L12.0822 5.95556L12.0672 5.8922L12.1517 5.83584L12.0173 5.71024L12.0422 5.62736L12.0672 5.62331V5.57911L11.9566 5.51539L11.9367 5.52938L11.8971 5.58243L11.8364 5.55959L11.7996 5.44061L11.7931 5.36805L11.7408 5.2907L11.7074 5.34669L11.6525 5.36989L11.603 5.34669L11.6072 5.34558L11.5385 5.28591L11.5151 5.25939L11.4836 5.17541L11.4633 5.15957L11.4395 5.15331L11.388 5.19014L11.365 5.19162L11.3185 5.17983L11.2383 5.12642L11.2033 5.12458L11.1933 5.13047L11.1761 5.11537L11.1054 5.11684L11.0977 5.08443L11.0759 5.08111L11.067 5.05017L11.0505 5.02697L11.039 4.98977L11.0478 4.95846L11.0432 4.94998L10.9829 4.94372L10.8167 4.94593L10.7599 4.9323L10.7246 4.91794L10.6581 4.86453L10.6493 4.84943L10.7384 4.76397L10.7476 4.75292L10.7453 4.73377L10.713 4.72419L10.6593 4.71682L10.493 4.61258L10.4873 4.61995L10.4946 4.63653L10.495 4.65715L10.4719 4.65899L10.4635 4.65531L10.4343 4.63763L10.4032 4.5949L10.3986 4.58017L10.3978 4.55512L10.4074 4.51203L10.457 4.50282L10.5291 4.50061L10.5606 4.48735L10.6005 4.4553L10.6378 4.40631L10.733 4.32086L10.7614 4.30612L10.8409 4.31902L10.8543 4.31165L10.8789 4.31239L10.8962 4.30539L10.9315 4.27481L10.9507 4.23246L10.9845 4.22988L11.0766 4.18347L11.1012 4.15105L11.1507 4.11827L11.1569 4.10869L11.1189 4.02029L11.0878 3.96872V3.92268L11.0839 3.91495L11.0244 3.90979L10.991 3.89874L10.9868 3.88806L10.9849 3.77976L10.9753 3.76982L10.9158 3.75803L10.9127 3.74551L10.8908 3.73851L10.8923 3.63537L10.9016 3.62359L10.9737 3.6107L10.9949 3.59817L11.0106 3.58049L11.026 3.54513L11.1158 3.48362L11.1584 3.43389L11.1496 3.41584L11.1281 3.39522L11.1219 3.35396L11.1538 3.35175L11.1899 3.36538L11.1999 3.34291L11.2797 3.29245L11.3055 3.29945L11.3439 3.3407L11.3799 3.34586L11.403 3.33223L11.4456 3.28877L11.4775 3.29797L11.4859 3.30681L11.5024 3.30792L11.5247 3.32155L11.5811 3.37385L11.5969 3.37606L11.636 3.33334L11.6552 3.33812L11.6694 3.33149L11.7101 3.33039L11.7201 3.33555L11.7566 3.31713L11.7685 3.3175L11.8188 3.37717L11.8541 3.38748L11.8929 3.36649L11.9505 3.32339L11.952 3.25304L11.9305 3.19152L11.9067 3.1871L11.8725 3.17163L11.7931 3.17532L11.6986 3.13922L11.669 3.11123L11.6437 3.06113L11.6003 3.03093L11.5811 3.03682L11.5761 3.06592L11.5665 3.07292L11.489 3.07623L11.4483 3.06445L11.4252 3.03387L11.3976 3.01288L11.3654 3.00514L11.3285 3.00883L11.284 3.00551L11.2394 2.97825L11.2287 2.95321L11.2206 2.87033L11.2333 2.85228L11.2786 2.80919L11.2863 2.74546L11.2951 2.73036L11.3277 2.72557L11.3477 2.74288L11.3845 2.74252L11.3934 2.75467L11.3976 2.77456L11.4153 2.78377L11.4345 2.78488L11.4617 2.78082L11.4897 2.76719L11.5089 2.74694L11.5347 2.73404L11.5416 2.70458L11.5174 2.64454L11.4778 2.62465L11.4122 2.62759L11.398 2.64712L11.368 2.66332L11.3243 2.65559L11.2202 2.65154L11.1945 2.6217L11.1803 2.61544L11.1573 2.61433L11.1288 2.59997L11.0405 2.59444L11.0359 2.58708L11.0367 2.55208L11.0428 2.53404L11.1027 2.53072L11.1108 2.54103L11.1173 2.56498L11.125 2.5694L11.1335 2.56498L11.1384 2.4961L11.1461 2.48836L11.1857 2.47473L11.2168 2.42059L11.2536 2.39443L11.2659 2.37749V2.35428L11.2575 2.33439L11.2122 2.29903L11.2049 2.27583L11.1757 2.26736L11.1473 2.27435L11.125 2.25741L11.0958 2.25594L11.0908 2.23678L11.1027 2.21468L11.1308 2.18706L11.178 2.18816L11.2206 2.17822L11.2425 2.22389L11.2632 2.23384L11.2943 2.23163L11.2978 2.22352L11.2913 2.19995L11.3097 2.15649L11.2859 2.1156L11.2943 2.09018L11.3266 2.05777L11.3316 2.0423L11.35 2.03456L11.3792 2.03604L11.3972 2.02315L11.4467 2.02941L11.4571 2.04414L11.4725 2.10786L11.4897 2.1226L11.5166 2.12591L11.5366 2.13696L11.5481 2.17711L11.56 2.18706L11.5807 2.13549L11.5938 2.11707L11.6264 2.10897L11.6529 2.09571L11.6621 2.11965L11.6932 2.15059L11.7082 2.13954L11.7159 2.11928L11.7144 2.10381L11.7397 2.09203L11.7439 2.09902L11.7324 2.11376L11.737 2.12002L11.7589 2.10971L11.7796 2.12149L11.7558 2.16164L11.7547 2.17269L11.7973 2.18374L11.8107 2.19737L11.8349 2.197L11.8687 2.19406L11.8798 2.18595V2.16717L11.8576 2.12297L11.8507 2.09681L11.8618 2.08319L11.8783 2.08355L11.9029 2.06403H11.9251L11.9509 2.08355L12.0015 2.09166L12.0157 2.08282L12.0257 2.08761L12.0983 2.08945L12.1267 2.07508L12.1482 2.07361L12.1616 2.0633L12.1743 2.06477L12.2127 2.09976L12.1993 2.1167L12.1563 2.13696L12.1547 2.14728L12.1774 2.20842L12.1866 2.22131L12.2196 2.23457L12.2442 2.25225L12.2584 2.25299L12.2672 2.23642L12.2572 2.21211L12.2642 2.19553L12.2787 2.17969L12.2906 2.14986L12.321 2.13807L12.331 2.12333L12.3321 2.11228L12.3659 2.08761L12.3774 2.08503L12.3935 2.05703L12.4204 2.04746L12.4296 2.03641L12.4438 2.03309L12.4577 2.01357L12.4527 1.9992L12.4561 1.99073L12.4822 1.99515L12.5406 1.98889L12.5713 2.00031H12.607L12.6393 2.00952L12.6834 2.00068L12.703 1.99073L12.7137 1.97747L12.7195 1.94358L12.7076 1.91817L12.7126 1.90344L12.7187 1.89754L12.7448 1.89275L12.7537 1.88428L12.774 1.88318L12.7782 1.89239L12.7882 1.89681L12.8224 1.88428L12.9 1.89607L12.9134 1.88907L12.9537 1.88244L12.9602 1.87286L12.9779 1.8817L12.9856 1.86844L12.9975 1.87397L13.0708 1.84561L13.0793 1.83677L13.11 1.83087L13.1418 1.81319L13.1914 1.80214L13.1975 1.79256L13.2221 1.79662L13.249 1.78336L13.2693 1.80067L13.2804 1.7933L13.2912 1.79441L13.2966 1.78851L13.3088 1.79662L13.3196 1.79256L13.3227 1.77046L13.3353 1.75278L13.3415 1.76052L13.3522 1.75794L13.3457 1.78078L13.348 1.78667L13.3611 1.78888L13.3829 1.77083L13.3972 1.74468L13.416 1.75242L13.429 1.74726L13.444 1.75794L13.464 1.75426L13.4759 1.7572L13.5008 1.73731L13.5315 1.74063L13.5561 1.72884L13.5841 1.72995L13.601 1.72405L13.6617 1.73105L13.679 1.72258L13.687 1.70858L13.6863 1.69569L13.6924 1.68943L13.7058 1.68685L13.7162 1.69495L13.7319 1.69753L13.7462 1.68759L13.7607 1.68611L13.7826 1.6747L13.7857 1.66144L13.8014 1.64928L13.8206 1.6467L13.8299 1.65296L13.8913 1.63823L13.8967 1.64633L13.8928 1.65186V1.69274L13.9005 1.69532L13.9412 1.68464L13.9769 1.66549L14.023 1.6316L14.0537 1.61797L14.0664 1.61981L14.1025 1.64523L14.1328 1.67322L14.1662 1.71742L14.2487 1.71521L14.2614 1.69937L14.2618 1.68354L14.2414 1.60582L14.2242 1.58077L14.2391 1.53473L14.2326 1.49126L14.2422 1.47947L14.2983 1.4419L14.3493 1.42201H14.372L14.4257 1.43638L14.4419 1.43196L14.4438 1.41244L14.4177 1.37818L14.4204 1.35792L14.4315 1.34466L14.4564 1.33545L14.5194 1.35203L14.554 1.35129L14.5828 1.36308L14.6265 1.39181L14.6457 1.39402L14.6618 1.38592L14.681 1.36234L14.6926 1.33214L14.6949 1.30967L14.7087 1.28315L14.7544 1.26252L14.7874 1.25958L14.7985 1.26215L14.8066 1.27468L14.7916 1.32735L14.7924 1.36013L14.8154 1.37855Z" fill="white"/>
<path d="M9.66527 11.474L9.69138 11.4556L9.70367 11.4287L9.71749 11.4122L9.7436 11.4254L9.75742 11.4405L9.78161 11.449H9.81654L9.83229 11.4774L9.82346 11.5109L9.83037 11.5676L9.82691 11.6044L9.80771 11.6276L9.83037 11.6726L9.84611 11.7311L9.87414 11.7477L9.89679 11.7695L9.90907 11.8011L9.91023 11.8295L9.54011 11.5724L9.54395 11.5359L9.55969 11.526V11.491L9.56852 11.4744H9.59271L9.61344 11.4844L9.64454 11.4855L9.66527 11.474ZM10.2723 11.4475H10.1928L10.1982 11.3182L10.2615 11.3031L10.3859 11.2954L10.4811 11.3057L10.4996 11.3436L10.571 11.3562L10.6478 11.3587L10.6585 11.3764H10.46L10.3541 11.4324L10.2723 11.4475ZM11.843 9.32072L11.9044 9.43306L11.9973 9.41943L12.2031 9.67064L12.1709 9.7421L12.3855 9.77452L12.4181 9.81945L12.4746 9.80214L12.2691 9.95648L12.5774 9.90122L12.6661 9.98226L12.7786 10.0548L12.8781 10.0475L13.0992 10.1661L13.1714 10.1233L13.204 10.155L13.5784 10.2957L13.6552 10.2976L14.0303 10.4913L14.1858 10.5042L14.3217 10.6515L14.4595 10.7248L15.4339 10.9786L15.7296 10.9628L15.7657 10.9731L15.7776 11.0725L15.7672 11.1576L15.8851 11.2449L15.9077 11.3145L15.8862 11.3602L15.8409 11.4217L15.8175 11.4972L15.8106 11.603L15.763 11.7702L15.9047 11.8829L16.0233 11.9315L16.0279 12.6351L16.0133 12.6549L16.0045 12.7168L16.084 12.7916L16.1293 12.7776L16.2149 12.8236L16.2168 12.8568L16.3024 12.9566L16.5071 13.097L16.4545 13.147L16.4257 13.1246L16.3804 13.1423L16.342 13.1813L16.3577 13.2027L16.3796 13.2572L16.3708 13.3633L16.3389 13.378L16.2652 13.3165L16.2656 13.4719L16.1945 13.5415L16.2007 13.5743L16.1853 13.655L16.1097 13.6756L16.1319 13.7703L16.1638 13.7515L16.1519 13.69L16.193 13.6675L16.1849 13.7121L16.2283 13.7102L16.2153 13.7625L16.2441 13.8288L16.297 13.8152L16.294 13.8476L16.221 13.8926L15.9738 14.0112L15.7745 14.0819L15.5879 14.2167L15.3779 14.42L15.2731 14.3582L14.9717 14.6583L14.9068 14.6432L14.901 14.062L14.6983 14.1534L14.5912 13.8226L14.567 13.7287L14.3916 13.5791L14.3009 13.4918L14.2088 13.2966L14.1927 13.2789L14.167 13.2649L14.1224 13.2657L14.0894 13.2738L13.7366 13.4347L13.7197 13.4377L13.2712 13.4104L12.9806 13.382L12.8758 13.3658L12.5463 13.4215L11.8683 13.5493L11.8549 13.5482L11.8288 13.5242L11.3081 12.9076L11.2102 12.813L11.1745 12.7039L10.8251 12.4619L10.8624 12.4303L10.885 12.4185L10.9112 12.3466L10.9215 12.2748L10.9042 12.1982L10.8728 12.0999L10.8432 12.0649L10.7979 12.0615L10.7821 12.0148L10.7491 11.9879L10.7299 11.926V11.8825L10.7491 11.8409L10.7472 11.7057L10.7299 11.6457L10.695 11.6206L10.7038 11.5838L10.7319 11.5219L10.7353 11.4619L10.7073 11.3551L10.6708 11.3168L10.6654 11.2449L10.7038 11.2199L10.7246 11.1149L10.7403 11.095L10.7491 11.0593L10.8551 11.0342L10.8812 10.9992L10.8935 10.9543L10.963 10.8924L11.0413 10.8792L11.0951 10.8324L11.1646 10.8073L11.2375 10.7657L11.2843 10.6891L11.2966 10.5672L11.2943 10.5053L11.2655 10.5013L11.2244 10.5329L11.1096 10.5134L11.0071 10.5175L10.9334 10.4309L10.9376 10.309L10.9499 10.2578L10.8966 10.2419L10.8597 10.2106L10.7572 10.2147L10.753 10.25L10.7941 10.2696L10.8309 10.2736L10.8801 10.309V10.3561L10.8513 10.372L10.8225 10.4036L10.7814 10.4232L10.7322 10.3996L10.6746 10.3838V10.4979L10.647 10.5167L10.6366 10.4821L10.6416 10.3838L10.6213 10.3443L10.5852 10.3097H10.5337L10.3644 10.418L10.3337 10.4574L10.3291 10.5311L10.3514 10.5576L10.3775 10.6129L10.3948 10.6379L10.447 10.6596H10.4888L10.5238 10.6431L10.5671 10.6313L10.6593 10.6246L10.68 10.663L10.713 10.688L10.7583 10.7031L10.8159 10.6648L10.844 10.6313L10.877 10.6246L10.8839 10.6898L10.943 10.7849L10.9415 10.8582L10.9257 10.9116L10.8459 10.9598H10.804L10.705 10.9783L10.6581 10.9632L10.6148 10.9182L10.5748 10.8965L10.4566 10.8733L10.3974 10.8666L10.3644 10.8851L10.2965 10.9451L10.2443 10.9484L10.2201 10.9352L10.2339 10.8652L10.2181 10.8401L10.2128 10.7952L10.2147 10.7399L10.1851 10.7049L10.1398 10.6965H10.0147L9.99047 10.7016L9.99239 10.7418L10.0742 10.867L10.0934 10.9086L10.0795 10.9569L10.0968 11.0836L10.088 11.1337L10.0673 11.1672L10.0431 11.179L10.017 11.1657L9.98548 11.2541L9.95783 11.2759L9.92482 11.2641L9.88297 11.2674L9.84112 11.2825H9.80119L9.79581 11.2556L9.79773 11.2206L9.80656 11.1805L9.84995 11.1171L9.88143 11.0836L9.89525 11.0534L9.86377 11.0317L9.8273 11.0132L9.79428 11.0317L9.75435 11.07L9.70751 11.0733L9.6622 11.0667L9.64147 11.0501L9.62649 11.0446L9.82998 10.8044L9.99392 10.5683L10.0795 10.478L10.1425 10.3838L10.4431 10.116L10.672 10.0979L10.6935 9.87102L11.006 9.8957L11.2625 9.23674L11.7159 9.13618L11.843 9.32072Z" fill="white"/>
<path d="M3.35102 12.235L3.35409 12.2391L3.37252 12.2284L3.38365 12.2332L3.34641 12.256L3.33374 12.2711L3.3372 12.2848L3.33144 12.2862L3.3253 12.27L3.33374 12.2409L3.32683 12.1993L3.33067 12.1949L3.34641 12.2151L3.35102 12.235ZM3.40208 12.1124L3.41283 12.1153L3.42358 12.1094L3.43357 12.1006L3.43971 12.0811L3.44624 12.1069L3.45622 12.0991L3.45929 12.1054L3.45392 12.1511L3.45814 12.1662L3.49193 12.1827L3.45238 12.1746L3.447 12.1846L3.4232 12.1897L3.42243 12.1816L3.43971 12.1673L3.41936 12.1599L3.43088 12.1407L3.42858 12.1293L3.40324 12.1278L3.37175 12.0917L3.3706 12.0836L3.3898 12.0667L3.39287 12.0711L3.38135 12.0859L3.40208 12.1124ZM2.94059 11.9897L2.96823 11.9963L2.98321 12.0096L2.94404 12.0148L2.92562 12.0383L2.9237 12.0663L2.93445 12.0921L2.93829 12.1238L2.9475 12.1374L2.95633 12.1385L2.96094 12.1275L2.96439 12.1312L2.95518 12.1588L2.97361 12.1842L3.01814 12.2056L3.05807 12.1908L3.06422 12.1923L3.06652 12.1978L3.05193 12.228L3.04732 12.2288L3.03657 12.2166L2.98282 12.2093L2.95863 12.1956L2.92946 12.1511L2.9045 12.0704L2.92101 12.0214L2.92216 11.9975L2.94059 11.9897ZM3.14024 11.975L3.17018 11.9798L3.18017 12.0056L3.17441 12.0328L3.18094 12.0527L3.16135 12.0859L3.16059 12.1039L3.15329 12.1186L3.1364 12.1301L3.12526 12.1312L3.10991 12.1474L3.10492 12.1584L3.11106 12.1739L3.10568 12.1779L3.09685 12.1709L3.09186 12.1503L3.0957 12.1404L3.09033 12.1186L3.10069 12.0973L3.09954 12.0803L3.09532 12.0704L3.07766 12.056L3.08111 12.0361L3.06959 12.0137L3.0861 11.9945L3.11259 11.9963L3.14024 11.975ZM4.86681 11.5201L4.87218 11.5208L4.87794 11.5105L4.88601 11.5083L4.89484 11.5146L4.91519 11.5669L4.91595 11.5893L4.92517 11.61L4.92094 11.624L4.92517 11.6461L4.92363 11.6508L4.89791 11.6531L4.90827 11.6678L4.90635 11.6718L4.86796 11.6571L4.8599 11.6346L4.84032 11.6063L4.81459 11.5823L4.80423 11.565L4.81229 11.5536L4.84761 11.5271L4.84953 11.5227L4.83725 11.5116L4.83609 11.502L4.85491 11.5094L4.86681 11.5201ZM4.99543 11.2567L5.16628 11.2972L5.26687 11.3024L5.29068 11.2453L5.40586 11.26L5.45577 11.2284L5.50914 11.2214L5.59936 11.1842L5.675 11.1403L5.72338 11.0958L5.64505 11.0516L5.81475 10.9304L5.85507 10.8563L5.8447 10.8107L5.95988 10.8243L5.97486 10.8007L6.02784 10.7889L6.07353 10.7911L6.1219 10.7801L6.19101 10.7536L6.30389 10.751L6.44672 10.6976L6.74158 10.6681L6.82413 10.6792L6.99997 10.5119L7.0902 10.6346L7.13857 10.6633L7.16046 10.6567L7.17198 10.6383L7.19348 10.6272L7.22995 10.632L7.25567 10.706L7.24377 10.7628L7.25606 10.7956L7.31173 10.811L7.35012 10.8328L7.38813 10.8077L7.42115 10.8217L7.44073 10.8792L7.51982 10.902L7.57127 10.8766L7.60621 10.9079L7.66457 10.9038L7.73137 10.9422L7.79895 11.1208L7.90568 11.8785L7.37738 12.045L7.3793 15.6411L7.28025 15.6374L7.23648 15.6794L7.21498 15.6636L7.20423 15.6613L7.13205 15.6742L7.10402 15.6879L7.09634 15.7081L7.08751 15.7151L7.07676 15.707L7.071 15.6901L7.05756 15.6739L7.04988 15.6772L7.0495 15.6971L7.03529 15.7066L7.01994 15.703L6.98231 15.6816L6.93854 15.6433L6.88863 15.5821L6.84601 15.549L6.81223 15.5048L6.7435 15.3961L6.68783 15.2702L6.65289 15.2208L6.61143 15.1818L6.59991 15.1641L6.59684 15.1446L6.60375 15.0786L6.56996 15.0318L6.51275 14.9707L6.22787 14.7773L6.10386 14.6989L6.06738 14.6779L6.03091 14.6642L5.85545 14.6694L5.5817 14.7114L5.45807 14.7438L5.24307 14.8348L5.16935 14.8591L5.11483 14.8934L4.86834 15.1055L4.72898 15.2164L4.73013 15.1972L4.76199 15.125L4.76622 15.0801L4.76507 15.0492L4.75508 15.0123L4.72475 14.9733L4.73051 14.9317L4.71247 14.9132L4.7236 14.8381L4.73742 14.8116L4.79041 14.7497L4.82381 14.6941L4.891 14.5313L4.90712 14.4547L4.89868 14.4108L4.88025 14.3766L4.81728 14.3077L4.81306 14.2952L4.82726 14.2745L4.82419 14.293L4.83302 14.3117L4.87257 14.3419L4.9006 14.378L4.92363 14.4381L4.94244 14.4186L4.95204 14.3935L4.95627 14.3423L4.94936 14.2922L4.93438 14.2804L4.90136 14.2801L4.88524 14.2664L4.85951 14.2767L4.87065 14.2591L4.85452 14.2171L4.75163 14.188L4.72091 14.1832L4.6614 14.1917L4.63491 14.2101L4.61917 14.2337L4.61456 14.2333L4.57348 14.1688L4.5516 14.1541L4.53585 14.1504L4.50936 14.1515L4.49708 14.1471L4.45446 14.1534L4.39572 14.1703L4.35041 14.192L4.33505 14.1917L4.32162 14.1795L4.27324 14.1044L4.26786 14.0856L4.24022 14.0443L4.22794 14.0009L4.14193 13.9228L4.15115 13.9132L4.15307 13.8955L4.13771 13.8495L4.10008 13.8462L4.02867 13.8602L4.01946 13.8697L3.97761 13.8679L3.87663 13.8837L3.8559 13.8778L3.85283 13.8624L3.8582 13.8196L3.88815 13.6992L3.89084 13.6207L3.88508 13.567L3.87279 13.5463L3.8678 13.5121L3.85283 13.4767L3.81827 13.4454L3.81251 13.4281L3.78871 13.4134L3.77988 13.4104L3.77412 13.417L3.7699 13.4137L3.7411 13.3669L3.70424 13.2844L3.67161 13.2461L3.64358 13.101L3.60749 13.0502L3.59789 13.0413L3.56756 13.0343L3.55297 13.0174L3.55873 12.9518L3.54798 12.905L3.52418 12.8476L3.48578 12.8115L3.40554 12.7769L3.3491 12.7632L3.21011 12.7529L3.16404 12.7345L3.11067 12.6991L3.08841 12.6649L3.08495 12.6509L3.08303 12.5076L3.07305 12.4652L3.07382 12.4616L3.09301 12.4918L3.09378 12.5058L3.103 12.5039L3.13947 12.4023L3.16788 12.4067L3.18247 12.4034L3.19092 12.4115L3.21395 12.4096L3.24736 12.4225L3.28921 12.4192L3.32376 12.4247L3.34833 12.4126L3.37559 12.4336L3.45315 12.4398L3.4877 12.4339L3.50152 12.4118L3.51151 12.4096L3.52725 12.4199L3.57985 12.4347L3.60096 12.466L3.60826 12.4671L3.61594 12.4833L3.63321 12.491L3.65318 12.4873L3.64396 12.5043L3.6528 12.5249L3.7196 12.5691L3.79908 12.5706L3.8225 12.5525L3.83939 12.5297L3.85667 12.5205L3.86281 12.5039L3.92731 12.4877L3.93614 12.4873L3.9396 12.4943L3.92923 12.5102L3.93038 12.5172L3.93845 12.5142L3.95918 12.5363L3.97569 12.5327L3.98375 12.5253L3.98452 12.5135L4.02445 12.5304L4.04902 12.522L4.0544 12.5139L4.0471 12.4977L4.01869 12.4759L3.97454 12.4571L3.88162 12.4579L3.85244 12.4656L3.85321 12.4531L3.86588 12.4409L3.86319 12.4273L3.844 12.4398L3.84054 12.4361L3.84208 12.4019L3.82058 12.3599L3.77988 12.3032L3.75531 12.2947L3.71538 12.2586L3.6789 12.2406L3.67775 12.2343L3.6551 12.2159L3.64128 12.2107L3.63936 12.2232L3.62246 12.2317L3.59213 12.2288L3.56142 12.2336L3.53493 12.2188L3.53301 12.2089L3.56103 12.2181L3.55336 12.207L3.55758 12.189L3.56833 12.1739L3.55566 12.1647L3.55528 12.1481L3.61594 12.0674L3.62592 12.0612L3.65779 12.0472L3.6693 12.0461L3.68889 12.0549L3.69656 12.052L3.75761 11.9916L3.78333 11.9787L3.79677 11.9798L3.8225 11.9938H3.8367L3.84208 11.9654L3.83325 11.8862L3.84093 11.8497L3.8463 11.8376L3.85705 11.8295L3.86588 11.793L3.89045 11.7532L3.9085 11.74L3.91848 11.7208L3.93384 11.7171L3.95956 11.6822L3.97146 11.6748L3.98682 11.6954L3.99565 11.6995L4.059 11.6962L4.08396 11.6899L4.09241 11.6774L4.1189 11.6704L4.17073 11.6402L4.17764 11.624L4.20336 11.5926L4.21834 11.5938L4.22333 11.6033L4.23869 11.6118L4.24828 11.6048L4.27209 11.6203L4.31317 11.6247L4.34081 11.6446L4.35502 11.6472L4.39341 11.6435L4.43373 11.628L4.46214 11.6273L4.50015 11.6391L4.55582 11.6313L4.60535 11.6321L4.62762 11.628L4.66102 11.6129L4.6829 11.6136L4.72706 11.6026L4.76007 11.6147L4.82573 11.6177L4.83571 11.6276L4.848 11.6556L4.87794 11.6774L4.91211 11.681L4.92286 11.6792L4.92248 11.6696L4.97009 11.6917L4.99696 11.6932L4.99735 11.6833L4.94628 11.6608L4.95665 11.6571L4.95972 11.6468L4.95089 11.6335L4.94974 11.6147L4.93438 11.596L4.93016 11.5816L4.92977 11.5547L4.93669 11.5451L4.97623 11.5613L5.01271 11.5879L5.05148 11.5938L5.08258 11.6291L5.11867 11.6534L5.12366 11.6475L5.08949 11.6177L5.05302 11.5639L5.04188 11.5595L5.01386 11.5624L4.99888 11.54L4.95204 11.5186L4.95665 11.5068L4.97393 11.4969L4.96663 11.4855L4.97969 11.4774L5.0081 11.4663L5.03037 11.4634L5.05686 11.4693L5.06108 11.4648L5.04496 11.4361V11.4195L5.0319 11.4232L5.01616 11.449L4.98084 11.4648L4.96433 11.4777L4.95857 11.4744L4.96279 11.4626L4.95435 11.4571L4.9578 11.4387L4.93477 11.4357L4.95435 11.4306L4.94091 11.4239L4.94053 11.4177L4.96471 11.3974L4.98046 11.3945L4.97892 11.3794L5.00541 11.3768L5.01386 11.3919L5.04035 11.4074L5.04649 11.4059L5.00464 11.3514L4.96817 11.3238L4.9866 11.319L5.00196 11.3046L5.00004 11.2958L4.98698 11.2954L4.98737 11.2862L5.00771 11.2814L5.0104 11.2873L5.01923 11.2836L5.02 11.2888L5.0273 11.2899L5.03997 11.284L5.04764 11.2733L5.02845 11.277L4.99543 11.2567Z" fill="white"/>
<path d="M22.8609 1.68133L22.8946 1.67985L22.9108 1.68832L22.9192 1.70158L22.9261 1.75463L22.9023 1.78962L22.9077 1.83014L22.9046 1.84597L22.8739 1.87949L22.8413 1.89681L22.8347 1.93659L22.8117 1.94506L22.7645 1.97821L22.7503 1.97158L22.7303 1.93622L22.705 1.94579L22.6877 1.94395L22.6566 1.92627L22.6174 1.92185L22.6017 1.92222L22.5948 1.92701L22.5921 1.94727L22.5982 1.97158L22.6478 2.03567L22.6543 2.0865L22.6846 2.14065L22.8447 2.28983L23.4467 2.75725L23.6618 2.95505L23.7009 2.99925L23.8357 3.21326L23.9532 3.38417L24.0925 3.6269L24.0979 3.62175L24.1824 3.77866L24.1762 3.78271L24.4177 4.19231L24.4619 4.29102L24.5279 4.389L24.5371 4.41368L24.5671 4.45309L24.6178 4.5496L24.6243 4.54591L24.6316 4.55954L24.6258 4.56396L24.6849 4.68331L24.6995 4.6973L24.6988 4.70725L24.7733 4.85643L24.7172 4.86269L24.6972 4.97503L24.5828 5.00303L24.6028 5.06564L24.5064 5.15626L24.4857 5.13231L24.3363 5.15331L24.3398 5.22182L24.3782 5.21556L24.3667 5.2616L24.3736 5.31612L24.3348 5.30322L24.182 5.39641L24.0875 5.42478L24.0706 5.38757L24.025 5.4071L24.0154 5.44835L23.9347 5.4896L23.9175 5.47634L23.8537 5.53565L23.9432 5.65978L23.9635 5.77396L24.0204 5.79054L24.0549 5.84063L24.1156 5.88631L24.1655 5.91099L24.3198 6.00933L24.2929 6.26017L24.3636 6.27933L24.3851 6.42519L24.334 6.47602L24.2058 6.6996L24.1029 6.74491L23.982 6.71618L23.6614 6.588L23.6172 6.51359L23.5677 6.54159L23.4817 6.48265L23.5412 6.40419L23.497 6.25354L23.3742 6.17803L23.2183 6.17214L23.0862 6.03806L22.9423 6.07379L22.8655 6.14562L22.819 6.32316L22.8236 6.43329L22.7956 6.48044L22.7119 6.43256L22.6278 6.4414L22.5691 6.47381L22.5518 6.46129L22.5172 6.55043L22.4819 6.55853L22.3852 6.50401L22.1229 6.57326L22.0899 6.53938L22.0542 6.55264L22.0438 6.58873L22.0173 6.6031L21.7985 6.5961L21.7624 6.64251L21.6081 6.75044L21.5332 6.7718L21.519 6.74123L21.471 6.74344L21.4453 6.65909L21.4929 6.62851L21.4917 6.60457L21.5935 6.56332L21.6012 6.574L21.6415 6.56148L21.6303 6.54085L21.6557 6.53054L21.6434 6.48597L21.5574 6.45318L21.537 6.39756L21.5631 6.38283L21.5056 6.2878L21.4625 6.28596L21.3581 6.17914L21.3059 6.30474L21.2564 6.18282L21.2994 6.15078L21.2583 6.10142L21.1362 6.07858L21.1262 6.04838L21.0659 6.097L20.9584 6.10547L20.8482 6.1331L20.7384 6.01707L20.7937 5.96697L20.7615 5.91909L20.7818 5.87857L20.8218 5.86973L20.8175 5.75812L20.834 5.67304L20.8671 5.5758L20.8344 5.52754L20.8314 5.4443L20.5741 5.35479L20.6547 5.26344L20.6659 5.18167L20.8321 5.07743L20.9081 5.09806L20.9373 5.06306L20.9773 5.05901L20.9957 5.03212L20.9227 4.99198L20.8348 4.98424L20.7968 4.89989L20.6601 4.96435L20.664 4.7474L20.6874 4.72088L20.7922 4.64168L20.8379 4.63321L20.8221 4.60116L20.8049 3.86596L20.7657 3.86043L20.7634 3.8398L20.7592 3.79339L20.6198 3.78345L20.5818 3.68694L20.5972 3.64311L20.6317 3.68878L20.6862 3.69652L20.7181 3.76208L20.755 3.74698L20.7446 3.63353L20.7922 3.61512L20.7849 3.55287L20.8229 3.53334L20.7811 3.42468L20.7073 3.44936L20.6732 3.43905L20.6283 3.55544L20.5273 3.55692L20.5085 3.46225L20.5614 3.40258L20.5369 3.35286L20.4543 3.40848L20.4363 3.39043L20.4808 3.35544L20.5092 3.28729L20.5519 3.22615L20.5469 3.18379L20.5899 3.1639L20.5876 3.13775L20.626 3.11786L20.591 3.06555L20.5522 3.0906L20.5403 3.06297L20.4977 3.07807L20.495 3.10386L20.3883 3.19337L20.3699 3.08692L20.3871 2.97383L20.4501 3.0033L20.4785 2.97531L20.4171 2.88212L20.3783 2.79887L20.4751 2.70789L20.4877 2.65411L20.5261 2.66332L20.5449 2.58523L20.5972 2.59113L20.6632 2.63091L20.715 2.55614L20.8425 2.58376L20.8348 2.66701L20.9001 2.6729L20.9139 2.61065L20.9677 2.6217L20.96 2.64638L20.9869 2.65669L20.9865 2.70421L20.9999 2.71194L21.0022 2.72042L20.9972 2.74804L21.0882 2.78082L21.1485 2.63828L21.1162 2.62023L21.1385 2.51378L21.2648 2.53367L21.2982 2.42574L21.3405 2.43237L21.362 2.42206L21.3742 2.40143L21.3854 2.35428L21.3919 2.34913L21.4172 2.35797L21.5182 2.35723L21.5286 2.36312L21.5447 2.39222L21.5616 2.38449L21.6503 2.31708L21.6941 2.2773L21.7275 2.26294L21.8181 2.19553L21.8703 2.16864L21.8918 2.14359L21.8914 2.11855L21.8281 2.03162L21.9271 1.98263L21.9797 2.00399L21.9882 2.00252L22.4462 1.79772L22.4493 1.78704L22.4301 1.7642V1.7572L22.4512 1.69753L22.4577 1.69569L22.5357 1.72921L22.6163 1.73547L22.6524 1.73363L22.6927 1.70821L22.7626 1.70969L22.8048 1.66807L22.8248 1.62276L22.8643 1.61944L22.9165 1.58924L22.9572 1.57303L22.9707 1.57488L22.9757 1.60655L22.9726 1.61208L22.8597 1.67101L22.8609 1.68133Z" fill="white"/>
<path d="M17.182 0.437069L17.2008 0.480165L17.2104 0.484954L17.2588 0.472798L17.3087 0.450698L17.3406 0.446278L17.3655 0.45033L17.427 0.477587L17.4485 0.469115L17.5041 0.4658L17.5602 0.475377L17.637 0.512211L17.6819 0.526208L17.7046 0.540573L17.7211 0.560464L17.7476 0.634869L17.7641 0.649971L17.8021 0.663967L17.8459 0.669493L17.9069 0.730637L17.9196 0.736162L17.9699 0.737636L17.9825 0.731374L18.0209 0.689751L18.1027 0.655864L18.1138 0.642972L18.1399 0.572251L18.1584 0.553465L18.1876 0.553834L18.2359 0.580722L18.2755 0.581459L18.2901 0.575566L18.3131 0.550518L18.3304 0.543152L18.4049 0.529155L18.4187 0.531733L18.426 0.582564L18.4436 0.61682L18.4705 0.668019L18.5012 0.694908L18.5112 0.739109L18.5377 0.764893L18.5634 0.812777L18.5688 0.843718L18.5627 0.928436L18.5677 0.973006L18.5515 1.01058L18.5488 1.04189L18.5519 1.05404L18.5872 1.10229L18.5899 1.16233L18.5961 1.18407L18.621 1.23084L18.6544 1.2651L18.7285 1.28352L18.7738 1.31777L18.7773 1.32772L18.7781 1.37708L18.7197 1.39439L18.7063 1.4047L18.7005 1.41649L18.6928 1.47211L18.697 1.52368L18.7074 1.59071L18.7255 1.65075L18.7189 1.70011L18.7036 1.73768L18.697 1.74284L18.6851 1.7421L18.6203 1.72995L18.5746 1.70674L18.5684 1.70785L18.5638 1.71669L18.5642 1.76347L18.5696 1.77452L18.583 1.78483L18.6218 1.79404L18.6295 1.80619L18.6341 1.83345L18.6068 1.86881L18.6041 1.87949L18.6126 1.89202L18.6348 1.90491L18.6464 1.91817L18.6571 1.94137L18.6617 1.98226L18.6732 1.99184L18.7005 1.99957L18.7093 1.99663L18.7654 1.94985L18.7827 1.91485L18.8161 1.90822L18.9259 1.94137L18.9332 1.95758L18.9282 1.98594L18.9359 1.9992L18.9881 1.98963L19.0407 2.00657L19.0579 1.99405L19.0894 1.98558L19.1086 1.96311L19.1079 1.94027L19.0929 1.89791L19.1063 1.85371L19.124 1.82903L19.2211 1.84082L19.3148 1.86071L19.3413 1.8817L19.3432 1.90565L19.3697 1.92001L19.3674 1.94322L19.4196 1.97158L19.4254 1.96974L19.4373 1.95132L19.4423 1.90638L19.4177 1.88133L19.3597 1.85187L19.3705 1.81503L19.3924 1.77967L19.3735 1.75057L19.3386 1.72442L19.3259 1.6968L19.3294 1.69127L19.3455 1.68759L19.4 1.68832L19.4292 1.69459L19.4933 1.74173L19.5083 1.78593L19.5029 1.81982L19.5375 1.84082L19.5198 1.89349L19.5271 1.90159L19.5935 1.94322L19.6642 1.962L19.6665 1.99663L19.6208 1.98705L19.6085 2.00215L19.5724 2.00399L19.5678 2.02388L19.582 2.04414L19.5813 2.05777L19.6093 2.07877L19.6101 2.08466L19.5786 2.18816L19.6173 2.22831L19.6554 2.24084L19.665 2.23605L19.6953 2.16569L19.7103 2.14396L19.8354 2.19258L19.8274 2.14028L19.7928 2.07508L19.7567 2.06808L19.7248 2.06993L19.711 2.0795L19.6853 2.07471L19.703 1.99847L19.736 1.98263L19.7452 1.96863L19.8803 1.98005L19.9053 1.9841L19.9241 2.00215L20.0282 2.0121L20.0259 2.06624L20.0742 2.07361L20.0942 2.13623L20.1053 2.14286L20.1921 2.16054L20.2508 2.17932L20.2578 2.18816L20.3415 2.18522L20.3472 2.17601L20.3422 2.15133L20.3476 2.14359L20.3714 2.15207L20.4017 2.17674L20.4351 2.19258L20.4413 2.18964L20.4428 2.18006L20.4232 2.1366L20.4236 2.12407L20.4812 2.10565L20.5127 2.08024L20.5204 2.0633L20.51 2.04451L20.5142 2.04083L20.5584 2.04525L20.5599 2.05851L20.6014 2.06551L20.5818 2.19185L20.5572 2.2983L20.3887 2.27399L20.3637 2.31856L20.3821 2.35723L20.3568 2.36865L20.3019 2.37933L20.3107 2.41432L20.2877 2.50862L20.2355 2.51672L20.2363 2.55466L20.2524 2.55761L20.2531 2.56203L20.2263 2.64712L20.3054 2.67437L20.3134 2.68837L20.3407 2.69647L20.3411 2.7171L20.3249 2.76204L20.338 2.77714L20.3783 2.79887L20.4171 2.88212L20.4785 2.97531L20.4501 3.0033L20.3871 2.97383L20.3699 3.08692L20.3883 3.19337L20.495 3.10386L20.4977 3.07807L20.5403 3.06297L20.5522 3.0906L20.591 3.06555L20.626 3.11786L20.5876 3.13775L20.5899 3.1639L20.5469 3.18379L20.5519 3.22615L20.5092 3.28729L20.4808 3.35544L20.4363 3.39043L20.4543 3.40848L20.5369 3.35286L20.5614 3.40258L20.5085 3.46225L20.5273 3.55692L20.6283 3.55544L20.6732 3.43905L20.7073 3.44936L20.7811 3.42468L20.8229 3.53334L20.7849 3.55287L20.7922 3.61512L20.7446 3.63353L20.755 3.74698L20.7181 3.76208L20.6862 3.69652L20.6317 3.68878L20.5972 3.64311L20.5818 3.68694L20.6198 3.78345L20.7592 3.79339L20.7634 3.8398L20.4747 3.81918L20.4213 3.72083L20.3656 3.72341L20.3564 3.67626L20.2551 3.67847L20.1122 3.60885L20.0166 3.6479L19.9959 3.4361L19.9644 3.40185L19.964 3.31455L19.9483 3.27661L19.923 3.27882L19.8988 3.31197L19.8181 3.31271L19.7487 3.34586L19.7168 3.31713L19.5728 3.3477L19.5379 3.43537L19.3613 3.44826L19.1436 3.42211L19.1336 3.37569L19.0975 3.33665L19.0967 3.29613L19.1443 3.27551L19.1205 3.21252L19.1447 3.12854L19.1747 3.08544L19.0199 2.92411L19.0245 2.8788L18.9485 2.87696L18.9236 2.92521L18.8771 2.93148L18.8594 2.95505L18.8387 2.95836L18.8107 2.98636L18.7447 2.98562L18.7366 2.96426L18.616 2.94363L18.6272 2.87365L18.6172 2.87291L18.6203 2.83755L18.305 2.84602L18.287 2.94584L18.2194 2.95542L18.2332 3.04235L18.1607 3.05155L18.1495 2.99483L18.0735 2.90274L18.0697 2.88212L18.0436 2.88028L18.0321 2.89943L17.8862 2.90311L17.9084 2.88433L17.9054 2.84897L17.9368 2.84639L17.9284 2.81508L17.9606 2.7974L17.9541 2.7311L17.9008 2.75209L17.8082 2.72962L17.7913 2.75357L17.766 2.74141L17.784 2.70237L17.7756 2.57971L17.7345 2.56608L17.7272 2.50936L17.5652 2.50678L17.5372 2.53551L17.5007 2.53772L17.483 2.57197L17.4416 2.5635L17.4277 2.62354L17.3963 2.62649L17.4089 2.68321L17.4504 2.69168L17.4262 2.74546L17.3748 2.73147L17.3728 2.67548L17.3594 2.63386L17.3283 2.62612L17.3195 2.59518L17.2726 2.58634L17.2703 2.53514L17.197 2.52962L17.1993 2.59113L17.0941 2.59849L17.0906 2.5624L17.0173 2.55724L17.0108 2.58708L16.9532 2.58302L16.9778 2.62023L16.9716 2.64012L16.9916 2.66185L16.9747 2.681L16.8649 2.67806L16.8672 2.73883L16.9037 2.73662L16.8806 2.78046L16.861 2.75872L16.823 2.78635L16.8215 2.81655L16.8 2.82502L16.7685 2.82797L16.7459 2.86149L16.7996 2.93626L16.8031 2.97678L16.8442 2.99004L16.8676 3.03682L16.9509 3.04308L16.9413 3.1278L16.9931 3.13185L17.0062 3.17274L17.0035 3.22283L16.977 3.23094L17.0208 3.28913L16.906 3.3908L16.9413 3.5083L16.9002 3.50019L16.9636 3.56944L16.8998 3.60001L16.8795 3.59338L16.8465 3.6258L16.8207 3.62396L16.8081 3.66779L16.777 3.67074L16.7236 3.70168L16.7094 3.77019L16.6887 3.7735L16.6698 3.8317L16.5877 3.82102L16.5558 3.8387L16.5266 3.90095L16.418 3.89874L16.4345 3.97904L16.4802 3.99672L16.4886 4.03171L16.3953 4.12932L16.3658 4.10759L16.3431 4.14553L16.3623 4.17131L16.3189 4.21256L16.2986 4.20152L16.2199 4.13227L16.1135 4.09101L16.0698 4.03871L15.9039 4.04313L15.9123 4.28955L15.7545 4.23577L15.7069 4.26192L15.6244 4.25198L15.5487 4.21293H15.3096L15.3042 4.09948L15.1621 4.12048L15.0508 4.168L14.9874 4.04055L14.8673 4.03355L14.8765 3.65674L14.9559 3.63685L14.951 3.50167L14.9667 3.50277L14.9606 3.39227L14.9237 3.39006L14.8968 3.27293L14.9298 3.23462L15.0085 3.23978L15.0573 3.20257L15.1667 3.22467L15.1855 3.14511L15.073 3.07771L15.0654 2.75872L14.9394 2.74583L14.9068 2.65227L14.9402 2.60881L15.0009 2.55172L14.9993 2.35797L14.9037 2.37786L14.8258 2.1377L15.0208 2.03898L15.0884 2.03272L15.1095 2.0132L15.0688 1.9097L15.0166 1.90491L14.8757 1.82019L15.0189 1.7712L14.9341 1.54725L14.9556 1.51778L14.9398 1.49568L14.9014 1.35608L15.0846 1.28867L15.3172 1.23379L15.3756 1.2441L15.4101 1.20027L15.422 1.19401L15.5368 1.1778L15.609 1.18333L15.6394 1.15239L15.6927 1.14649L15.7818 1.12587L15.7902 1.1174L15.7975 1.07835L15.8068 1.06877L15.8233 1.07062L15.8563 1.08903L15.935 1.08645L15.9845 1.10414L16.0041 1.09824L16.0198 1.08645L16.0479 1.08609L16.1412 1.04888L16.1527 1.02715L16.1638 0.975216L16.1753 0.959009L16.1999 0.939487L16.2191 0.93212L16.2498 0.933593L16.3351 0.974111L16.3919 0.960114L16.4679 0.955694L16.479 0.944643L16.471 0.918859L16.481 0.875395L16.5013 0.84556L16.532 0.817566L16.5109 0.799517L16.5017 0.782205L16.469 0.745739L16.4629 0.733952L16.4687 0.70559L16.4495 0.676491L16.4502 0.670229L16.5071 0.669124L16.5347 0.657337L16.5455 0.659916L16.5735 0.682016L16.5831 0.678333L16.5942 0.663231L16.6069 0.658811L16.6771 0.666546L16.7489 0.651812L16.7647 0.666914L16.7777 0.668019L16.79 0.646287L16.8 0.590668L16.8073 0.578881L16.8284 0.569304L16.8422 0.55457L16.8484 0.526576L16.8599 0.510001L16.8576 0.478692L16.8745 0.459907L16.8883 0.455486L16.924 0.462853L17.043 0.5391L17.0588 0.543888L17.0672 0.536521L17.0734 0.519578L17.0622 0.477219L17.0411 0.454381L17.0292 0.452171L17.0108 0.460643L17.0039 0.455855L17.0004 0.403919L17.0066 0.379977L17.0254 0.36377L17.0526 0.364506L17.1045 0.379608L17.1667 0.417179L17.182 0.437069Z" fill="white"/>
<path d="M24.9215 5.15589L24.9364 5.17872L24.9875 5.29475L25.1038 5.51686L25.1107 5.5397L25.2044 5.72055L25.2179 5.75812L25.2236 5.74376L25.2332 5.76954L25.2839 5.85463L25.3154 5.92056L25.305 5.84947L25.3085 5.81632H25.32L25.3254 5.83658L25.4002 5.83621L25.3987 5.77323L25.4056 5.7526L25.4344 5.74928L25.4436 5.72903L25.4966 5.72755L25.4985 5.72019L25.5089 5.71761L25.5373 5.71871L25.5768 5.67562L25.606 5.67525L25.6033 5.65352L25.6133 5.61079L25.6129 5.5548L25.6102 5.53159L25.5814 5.5025L25.5849 5.41262L25.6087 5.40746L25.7204 5.41152L25.7266 5.39384L25.727 5.34411L25.7385 5.31317L25.7569 5.29622L25.8414 5.32017L25.8679 5.33048L25.8897 5.34706L25.9301 5.35516L25.9255 5.36842L25.9343 5.3791L26.0015 5.40304L26.0399 5.43104L26.0583 5.41925L26.0775 5.38978L26.0944 5.39568L26.1094 5.41741L26.1097 5.46124L26.0936 5.5327L26.0587 5.58611L26.0545 5.62405L26.0437 5.65094L26.0472 5.69219L26.1193 5.6944L26.2418 5.64983L26.2929 5.65057L26.296 5.66567L26.3025 5.66641L26.3052 5.6723L26.3063 5.70177L26.3182 5.70656L26.3251 5.7375L26.309 5.75849L26.3186 5.77691L26.3355 5.77986L26.3574 5.83474L26.3585 5.84874L26.3367 5.8922L26.3363 5.9143L26.3585 5.91946L26.4626 5.92388L26.5701 5.90399L26.5751 5.90067L26.5785 5.8561L26.5828 5.85279L26.5935 5.85831L26.5924 5.8771L26.6438 5.84837L26.7371 5.86126L26.7521 5.86752L26.8127 5.91835L26.8515 5.92977L26.893 5.92572L26.9076 5.91798L26.9302 5.8911L26.9414 5.88815L26.9759 5.89146L27.0112 5.88557L27.0423 5.89404H27.073L27.1168 5.90988L27.141 5.91099L27.1548 5.90693L27.2305 5.86052L27.2623 5.82921L27.2696 5.81301L27.2704 5.75812L27.2819 5.70914L27.3119 5.70103L27.3779 5.72682L27.4209 5.73676L27.4612 5.73934L27.4808 5.72792L27.4935 5.70729L27.5476 5.65646L27.5557 5.63657L27.5507 5.60931L27.5606 5.60379L27.5806 5.60637L27.5891 5.61521L27.6029 5.61889L27.6132 5.64283L27.6179 5.64689L27.6244 5.64504L27.6328 5.65867L27.6666 5.63399L27.71 5.62994L27.776 5.64504L27.7968 5.62957L27.7818 5.64946L27.7872 5.66199L27.8417 5.68482L27.8686 5.68151L27.9093 5.69072L27.9523 5.70987L28.0049 5.7537L28.0605 5.7596L28.0817 5.76696L28.0962 5.77654L28.1945 5.88336L28.2064 5.95261L28.2141 5.96587L28.2625 6.01633L28.2855 6.05832H28.2913L28.3262 6.08926L28.3646 6.14157L28.3992 6.17324L28.4099 6.1924L28.4141 6.20787L28.3938 6.24139L28.3926 6.26238L28.428 6.3681L28.4268 6.3843L28.4111 6.41746L28.4115 6.43035L28.4318 6.46681L28.4779 6.51728L28.4867 6.52243L28.542 6.52022L28.5789 6.48965L28.5919 6.48855L28.653 6.54195L28.6775 6.55301L28.7332 6.56405L28.7532 6.57658L28.7843 6.60678L28.7988 6.61341L28.843 6.61746L28.8541 6.63257L28.8576 6.65946L28.9117 6.66056L28.9305 6.66609L28.9797 6.70476L29.0004 6.73644L29.0066 6.7637L28.9977 6.77401L28.9805 6.76296L28.9724 6.7718L28.9747 6.78801L28.9643 6.81232L28.967 6.85468L28.9781 6.87604L28.9931 6.88635L29.0592 6.90551L29.0691 6.93019V6.95486L29.1275 7.0569L29.134 7.07863L29.1363 7.10552L29.126 7.14788L29.1294 7.16187L29.1394 7.17882L29.1709 7.19208L29.1885 7.2197L29.2239 7.21639L29.2446 7.22965L29.2527 7.24475L29.278 7.23701L29.2945 7.24843L29.3091 7.23701L29.3187 7.21823L29.3475 7.20644L29.392 7.2046L29.4389 7.22007L29.4665 7.25101L29.4838 7.2558L29.5425 7.2407L29.5667 7.24659L29.5971 7.26538L29.6662 7.25875L29.675 7.26059L29.6838 7.27164L29.6738 7.31216L29.6777 7.32136L29.7111 7.33352L29.7514 7.30405L29.7725 7.29853L29.8048 7.3L29.8459 7.35967L29.8524 7.36078L29.8785 7.33868L29.8704 7.30332L29.9015 7.26464L29.8992 7.2337L29.9038 7.22707L29.9941 7.19613L30.044 7.16592L30.0885 7.10662L30.13 7.07973L30.1453 7.05616L30.1622 7.05248L30.1795 7.03701L30.1906 7.01785L30.1791 6.99907L30.1833 6.98433L30.3246 6.9847L30.3265 6.99465L30.2981 7.051L30.2989 7.06905L30.3096 7.08636L30.2878 7.10441L30.2467 7.12651L30.2244 7.11988L30.1891 7.16298L30.1879 7.19355L30.1987 7.22854L30.2156 7.24512L30.2547 7.23886L30.3235 7.2698L30.3254 7.27495L30.3108 7.28895L30.3396 7.31179L30.3277 7.34899L30.3319 7.37367L30.4029 7.41234L30.4087 7.45765L30.3987 7.47091L30.398 7.48196L30.4198 7.50701L30.4279 7.53353L30.4459 7.54163L30.4717 7.53979L30.4989 7.58473L30.6122 7.5943L30.6709 7.62856L30.6805 7.64256L30.704 7.73759V7.75564L30.6921 7.7538L30.6717 7.73869L30.6364 7.7398L30.6137 7.71807L30.5715 7.70002L30.4479 7.7549L30.4137 7.75564L30.3861 7.73943H30.3757L30.3557 7.75932L30.3438 7.80942L30.2874 7.84367L30.2701 7.8643L30.2647 7.87424L30.2628 7.90518L30.2728 7.95675L30.33 8.02637L30.3304 8.05031L30.2916 8.07831L30.2862 8.08715L30.2824 8.10961L30.2993 8.14055L30.2947 8.17297L30.2486 8.22306L30.2367 8.25511L30.2263 8.26284L30.1983 8.27021L30.1891 8.30263L30.1749 8.31883L30.1645 8.35824L30.1296 8.36524L30.049 8.41055L30.0163 8.39397L29.999 8.40134L29.963 8.40355L29.9315 8.44296L29.8858 8.4739L29.8489 8.47354L29.7372 8.45917L29.7007 8.47906L29.6635 8.46985L29.6328 8.48201L29.6067 8.48459L29.5256 8.54831L29.5041 8.58772L29.5007 8.62861L29.4608 8.72585L29.4358 8.77226L29.4327 8.80873L29.437 8.85072L29.4224 8.88645L29.4193 8.91112L29.3893 8.96785L29.3847 9.00395L29.4228 9.20543L29.4439 9.35571L29.4308 9.44853L29.4581 9.51778L29.5015 9.57709L29.508 9.60066L29.4957 9.65407L29.5049 9.68575L29.5003 9.75242L29.4957 9.76568L29.4861 9.77267L29.4266 9.7782L29.4108 9.79478L29.4001 9.85224L29.3782 9.89754L29.3759 9.93217L29.3133 9.92627L29.2665 9.93843L29.245 9.93069L29.2216 9.94543L29.1985 9.92922L29.1475 9.93806L29.1229 9.98705L29.0488 10.036L29.0334 10.064L29.0127 10.0736L28.9831 10.074L28.9632 10.0836L28.9532 10.1281L28.9198 10.1462L28.8852 10.1454L28.8369 10.1749L28.8307 10.1742L28.8215 10.1616L28.7601 10.1672L28.7543 10.1613L28.757 10.1554L28.7854 10.1406L28.7996 10.1082L28.8219 10.0898L28.8111 10.0802L28.8096 10.0633L28.7904 10.0552L28.7839 10.0287L28.7612 9.9981L28.7474 9.98926H28.7309L28.7082 9.9981L28.6564 9.99736L28.6142 10.0173L28.5804 10.0073L28.5677 9.98779L28.5562 9.98337L28.514 9.99699L28.4867 9.99L28.3965 9.99442L28.3715 9.99957L28.3324 10.018L28.2798 10.0312L28.2648 10.0305L28.2191 9.99883L28.1688 9.9981L28.1258 9.97895L28.0582 9.96311L28.0141 9.96274L27.9239 9.93327L27.905 9.92259L27.8785 9.89386L27.8325 9.85629L27.796 9.86623L27.753 9.81209L27.6735 9.80767L27.6213 9.76015L27.548 9.75831L27.5307 9.76163L27.5146 9.77231L27.4869 9.93548L27.4731 9.96679L27.4439 9.98116L27.429 10.0589L27.4098 10.123L27.3479 10.2552L27.3349 10.3001L27.3161 10.4202L27.285 10.5274L27.1775 10.7396L27.1571 10.7911L27.1341 10.8736L27.1222 11.046L27.0988 11.0976L27.0585 11.1661L27.0316 11.246L26.9759 11.365L26.9617 11.4048L26.949 11.4678L26.951 11.4902L26.8738 11.5168L26.8465 11.4939L26.8373 11.4357L26.8603 11.281L26.7394 11.1547L26.681 10.9429L26.4338 10.6648L26.4603 10.6313L26.4276 10.6375L26.4173 10.6265L26.4549 10.5996L26.4687 10.5635L26.4511 10.5642L26.4269 10.607L26.4008 10.5882L26.3747 10.5871L26.3497 10.5819L26.3777 10.5399L26.3558 10.5396L26.3224 10.5849L26.2983 10.558L26.2764 10.5053L26.2345 10.5315L26.1992 10.5326L26.1574 10.4714L25.9255 10.4659L25.7085 10.3495L25.4532 10.2419L25.4563 10.1683L25.2969 10.1049L24.9418 10.2239L24.7076 9.90896L24.3755 9.94469L24.339 9.85481L24.245 9.84671L24.2077 9.80472L24.1186 9.7491L23.9927 9.64744L23.8725 9.79441L23.7773 9.69827L23.6679 9.81614L23.4752 9.77488L23.4548 9.81098L23.3803 9.84303L23.2924 9.80177L23.2459 9.8294L23.2099 9.9248L23.0989 9.88502L23.0263 9.83345L22.9876 9.7701L22.9208 9.73695L22.9795 9.71558L23.0114 9.64118L23.0075 9.56051L23.0782 9.54983L23.1461 9.57856L23.1381 9.52404L23.0989 9.36197L23.082 9.35461L23.0666 9.31225L23.1116 9.21685L23.1484 9.0662L23.1853 9.06767L23.1922 8.97927L23.2433 8.9789L23.1987 8.91739L23.3377 8.86876L23.2847 8.82825L23.2095 8.83377L23.1135 8.74979L23.1331 8.69454L23.1987 8.69196L23.2148 8.65402L23.1795 8.64371L23.0628 8.64666L23.0524 8.59951L22.9879 8.57078L22.9603 8.51626L23.0194 8.49895L23.011 8.44296L23.0498 8.40871L23.0878 8.40576L23.145 8.42455L23.2824 8.289L23.2817 8.24332L23.3131 8.12545L23.2824 8.03779L22.9768 8.08604L22.9242 7.98548L22.9415 7.91476L22.935 7.8724L22.9972 7.84146L23.0125 7.86246L23.0839 7.83336L23.0117 7.76116L22.9515 7.72764L22.9495 7.6584L22.8374 7.56963L22.7745 7.54974L22.7764 7.5129L22.7165 7.44697L22.7276 7.38398L22.9039 7.30258L23.0981 7.23407L23.1645 7.13388L23.1799 7.07605L23.1603 7.02559L23.1776 6.95855L23.155 6.92613L23.1757 6.84105L23.2436 6.83921L23.2767 6.81711L23.3822 6.77069L23.441 6.69224L23.5508 6.60457L23.5677 6.54159L23.6172 6.51359L23.6614 6.588L23.982 6.71618L24.1029 6.74491L24.2058 6.6996L24.334 6.47602L24.3851 6.42519L24.3636 6.27933L24.2929 6.26017L24.3198 6.00933L24.1655 5.91099L24.1156 5.88631L24.0549 5.84063L24.0204 5.79054L23.9635 5.77396L23.9432 5.65978L23.8537 5.53565L23.9175 5.47634L23.9347 5.4896L24.0154 5.44835L24.025 5.4071L24.0706 5.38757L24.0875 5.42478L24.182 5.39641L24.3348 5.30322L24.3736 5.31612L24.3667 5.2616L24.3782 5.21556L24.3398 5.22182L24.3363 5.15331L24.4857 5.13231L24.5064 5.15626L24.6028 5.06564L24.5828 5.00303L24.6972 4.97503L24.7172 4.86269L24.7733 4.85643L24.9215 5.15589Z" fill="white"/>
<path d="M15.7783 11.0725L17.1897 11.0939L17.3248 11.3057L17.3913 11.5157L17.4938 11.7661L17.5859 12.1488L17.6285 12.207L17.6857 12.5087L17.7529 12.9456L17.7249 12.9636L17.7115 13.0487L17.6596 13.1264L17.6474 13.2402L17.5537 13.4646L17.5556 13.4852L17.455 13.6233L17.5333 13.6498L17.5126 13.6808L17.5448 13.7765L17.5852 13.7596L17.602 13.7607L17.5936 13.7964L17.6454 13.7887L17.7245 13.8439L17.7476 13.7894L17.7645 13.7909L17.779 13.8487L17.8462 13.8546L17.8647 13.8804L17.8912 13.8705L17.9096 13.8926L17.8961 13.9357L17.9342 13.971L17.9618 13.9533L17.981 13.9673L17.9541 14.013L17.9775 14.0311L18.0017 14.0414L17.9825 14.0598L18.0079 14.0941L17.9979 14.1736L18.0002 14.2215L18.0148 14.2388L17.9964 14.2852L18.0747 14.3316L18.1296 14.3287L18.138 14.3611L18.1822 14.3769L18.1864 14.4086L18.2106 14.4149L18.2198 14.4392L18.2413 14.4683L18.282 14.4757L18.3327 14.5607L18.3922 14.5456L18.4056 14.5688L18.3922 14.6053L18.4244 14.6068L18.4248 14.6293L18.4667 14.6657L18.4571 14.6841L18.4563 14.7081L18.4632 14.7243L18.4598 14.7383L18.4694 14.746L18.5074 14.7431L18.4774 14.7792L18.4325 14.8053L18.4214 14.8057L18.4003 14.7902L18.3757 14.8123L18.3622 14.8337L18.312 14.8867L18.3096 14.9062L18.2747 14.9906L18.2559 14.9943L18.2363 14.977L18.224 14.9736L18.2233 14.939L18.2144 14.925L18.1737 14.9033L18.1303 14.8668L18.1135 14.8665L18.1073 14.8735L18.0989 14.9121L18.0781 14.9361L18.0478 14.9585L18.0539 15.0149L18.014 15.0396L17.9864 15.0481L17.9549 15.0819L17.9265 15.1405L17.8535 15.1799L17.8366 15.2179H17.8255L17.8174 15.1943L17.8002 15.1965L17.7694 15.2628L17.7222 15.2812L17.703 15.2654L17.6831 15.2602L17.6562 15.2764L17.6055 15.2816L17.5779 15.3048L17.5253 15.3184L17.4646 15.3762L17.4462 15.4131L17.4032 15.4252L17.3763 15.4473L17.3644 15.4672L17.3709 15.4809L17.3897 15.4926L17.3844 15.5085L17.3778 15.5114L17.3421 15.5059L17.2991 15.5158L17.2665 15.5041L17.2189 15.5096L17.2005 15.5203L17.1828 15.5571L17.1471 15.5766L17.1287 15.6208L17.1179 15.6278L17.0956 15.616L17.0872 15.6186L17.0553 15.6661L17.0522 15.7081L17.0265 15.7317L17.0215 15.7597H17.0043L16.9935 15.7667L16.9601 15.8013L16.8895 15.8997L16.8776 15.9254L16.8726 15.9538L16.8511 15.9726L16.8215 15.9836L16.7985 16.0021L16.79 15.977L16.8188 15.9582L16.7977 15.949L16.7846 15.9549L16.7739 15.9509L16.7658 15.9273L16.7278 15.9501L16.7228 15.9409L16.6434 15.9361L16.6437 15.956L16.7021 15.9597L16.7163 15.9811L16.7025 15.9951L16.7182 16.0341L16.7044 16.149L16.7574 16.2194L16.7754 16.2702L16.8142 16.2901L16.828 16.3225L16.7585 16.349L16.7198 16.3465L16.7067 16.3638L16.628 16.3417L16.6368 16.324L16.6061 16.2997L16.5758 16.3074L16.5097 16.2533L16.4487 16.2326L16.3907 16.1704L16.2978 16.1177L16.2583 16.1074L16.2352 16.0765L16.2471 16.0411L16.3128 16.0389L16.3112 15.9582L16.3351 15.9354L16.3128 15.882L16.3354 15.8591L16.3754 15.851L16.3627 15.8437L16.3531 15.8477L16.3308 15.8278L16.2817 15.8584L16.2682 15.84L16.2444 15.8602L16.1911 15.8124L16.1581 15.7741L16.1439 15.7704L16.1212 15.7505L15.8728 15.7431L15.8325 15.7527L15.8183 15.7508L15.8044 15.742L15.2792 15.7044L15.2232 15.0908L14.8342 15.0455L14.8377 14.7552L14.8527 14.7383L14.8542 14.6362L14.9064 14.658L14.9076 14.6436L14.9725 14.6587L15.2738 14.3589L15.3787 14.4208L15.5887 14.2174L15.7753 14.083L15.9745 14.0123L16.2222 13.8937L16.2951 13.8487L16.2982 13.8163L16.2452 13.83L16.2164 13.7636L16.2295 13.7113L16.1861 13.7132L16.1941 13.669L16.1534 13.6911L16.1654 13.753L16.1335 13.7718L16.1112 13.6771L16.1869 13.6561L16.2022 13.5754L16.1961 13.5426L16.2671 13.4727L16.2667 13.3172L16.3404 13.3787L16.3723 13.364L16.3807 13.2579L16.3589 13.2034L16.3431 13.182L16.3815 13.143L16.4268 13.1253L16.4556 13.1474L16.5082 13.0973L16.3032 12.957L16.2176 12.8572L16.2156 12.8236L16.13 12.7776L16.0847 12.7916L16.0052 12.7172L16.0141 12.6553L16.0291 12.6351L16.0244 11.9315L15.9058 11.8829L15.7641 11.7702L15.8114 11.603L15.8187 11.4972L15.8417 11.4217L15.887 11.3602L15.9085 11.3145L15.8858 11.2449L15.768 11.1576L15.7783 11.0725Z" fill="white"/>
<path d="M3.57178 4.86969L3.65894 4.87226L3.67084 4.86416L3.70002 4.88442L3.74187 4.87484L3.74724 4.88L3.76452 4.87632L3.76874 4.88147L3.7841 4.88037L3.78487 4.87263L3.85283 4.85937L3.87087 4.87374L3.87394 4.88994L3.92117 4.90099L3.92654 4.9463L3.92539 4.98903L3.91618 5.00118L3.85244 5.0045L3.83824 5.00671L3.8344 5.01297L3.83747 5.02844L3.85398 5.03912L3.85974 5.05017L3.85935 5.07669L3.88777 5.08811L3.9442 5.0859L3.97377 5.09695L4.04096 5.06454L4.05977 5.03912L4.05939 5.0126L4.0759 5.00708L4.09087 5.03802L4.11199 5.03397L4.12158 5.03765L4.13541 5.06012L4.11467 5.09953L4.12197 5.11095L4.13771 5.11279L4.18417 5.08959L4.20567 5.06933L4.24291 5.0557L4.24636 5.05054L4.21872 4.98719L4.21757 4.97282L4.23177 4.94041L4.29282 4.86674L4.36193 4.87116L4.41952 4.90247L4.44832 4.894L4.47941 4.89768L4.50437 4.88405L4.51896 4.86342L4.52856 4.82512L4.55351 4.82033L4.59383 4.82733L4.62531 4.80559L4.62378 4.78018L4.64336 4.77134L4.66294 4.77871L4.66908 4.7857L4.68444 4.89694L4.72821 4.95256L4.74894 4.99971L4.77466 5.02292L4.78196 5.06675L4.81191 5.08627L4.81229 5.09769L4.80576 5.10248L4.80922 5.11758L4.82419 5.1231L4.82534 5.11795L4.848 5.10579L4.84684 5.12568L4.87065 5.12752L4.86297 5.11095L4.86988 5.10727L4.87909 5.11647L4.88485 5.115L4.88716 5.08701L4.89407 5.0859L4.90213 5.11537L4.91557 5.12347L4.91019 5.10064L4.94628 5.08995L4.95934 5.09401L4.9555 5.06896L4.97316 5.07817V5.05901L4.9793 5.04759L4.98468 5.05607L4.98314 5.06712L4.99082 5.06159L4.99658 5.07117L5.00695 5.06601L5.00887 5.0789L5.02768 5.07117L5.04803 5.08075L5.06799 5.07338L5.06722 5.08038L5.04611 5.09253L5.04995 5.10542H5.05647L5.06607 5.09548L5.07567 5.10137L5.08105 5.0789L5.09295 5.07927L5.09141 5.09364L5.10139 5.10174L5.11215 5.12274L5.1179 5.11832L5.1133 5.10395L5.13365 5.11169L5.13057 5.09401L5.15169 5.10358L5.18932 5.08811L5.20275 5.07559L5.2112 5.07485L5.21773 5.0848L5.23193 5.08995L5.26649 5.08664L5.26687 5.07559L5.2519 5.05975L5.25459 5.04759L5.27455 5.05275L5.28914 5.03544L5.29528 5.03949L5.28645 5.05717L5.29068 5.06233L5.30719 5.06785L5.33176 5.06306L5.34174 5.06749L5.35403 5.0918L5.36363 5.09216L5.37207 5.07412L5.39088 5.0638L5.41469 5.0568L5.42621 5.06085L5.44041 5.08148L5.45999 5.08553L5.47689 5.101L5.47727 5.11721L5.51106 5.13305L5.5149 5.14594L5.54139 5.15662L5.57479 5.15847L5.57901 5.17541L5.59476 5.19272L5.61664 5.20377L5.62086 5.2174L5.61472 5.22513L5.59322 5.22808L5.61357 5.25276L5.60858 5.2756L5.59975 5.28039L5.59706 5.29807L5.60205 5.31354L5.63123 5.33969L5.63776 5.35774L5.63507 5.37247L5.64851 5.38868L5.66463 5.38389L5.69727 5.39936L5.70264 5.4152L5.71378 5.40783L5.72875 5.41004L5.7468 5.40378L5.76868 5.42699L5.77751 5.42883L5.804 5.42404L5.81168 5.41667L5.86313 5.44061L5.87234 5.45203L5.91381 5.46161L5.92801 5.47487L5.92533 5.48666L5.93301 5.49292L5.97831 5.50692L5.99328 5.52091L6.00327 5.54559L5.99213 5.57322L5.99444 5.58648L5.99789 5.58758L6.00365 5.57359L6.00979 5.57101L6.03091 5.60084L6.03206 5.61116L6.01901 5.61484L6.01248 5.62331L6.02477 5.63399L6.024 5.6502L6.04281 5.6572L6.03897 5.67635L6.06623 5.69698L6.09272 5.75334L6.11039 5.77654L6.12382 5.78354L6.21904 5.79091L6.27087 5.8178L6.27318 5.83842L6.23747 5.89625L6.22595 5.94377L6.23478 5.98465L6.20637 6.0388L6.20407 6.07085L6.26742 6.16477L6.29045 6.1633L6.31003 6.15188L6.32155 6.16772L6.22749 6.27528L6.24016 6.30732L6.16068 6.38836L6.21674 6.46313L6.20291 6.54085L6.2056 6.63551L6.24092 6.64583L6.24323 6.67419L6.29352 6.69703L6.30312 6.75301L6.26972 6.81784L6.27241 6.85062L6.20061 6.97181L6.24438 7.02301H6.16183L6.14609 7.06242L6.09426 7.12504L6.11154 7.15561L6.0382 7.19723L5.97447 7.18618L5.88233 7.18802L5.86889 7.24143L5.79594 7.24107L5.73835 7.29079L5.70802 7.3652L5.66156 7.3431L5.68767 7.40056L5.63853 7.56152L5.64544 7.66355L5.62086 7.69928L5.4765 7.81678L5.49608 7.86062L5.38052 7.89561L5.12136 7.89524L5.07529 7.87388L5.03113 7.97333L4.96471 7.9457L4.97623 8.2087L4.88639 8.21238L4.83417 8.42307L4.85107 8.47611L4.79847 8.50669L4.71822 8.50853L4.55428 8.41939L4.52165 8.42344L4.49516 8.46838L4.25596 8.41607L4.26172 8.32767L4.28745 8.31036L4.26748 8.27132L3.95188 8.21901L3.86319 8.25805L3.70885 8.26837L3.667 8.39324L3.59828 8.43375L3.56756 8.41902L3.49807 8.48274L3.45123 8.48385L3.04118 8.74795L2.88991 8.89676L2.76436 8.89381L2.72366 8.92586L2.49138 8.9137L2.49714 9.0242L2.13201 8.88534L1.92507 8.82972L1.267 8.75937L0.887286 8.70227L0.799748 8.70669L0.68687 8.6706L0.620065 8.59472L0.62352 8.58256L0.618529 8.57888L0.582439 8.57962L0.529839 8.5682L0.434622 8.52437L0.318289 8.48201L0.296021 8.4658L0.377415 8.24664L0.428095 8.13282L0.465337 8.02674L0.50949 7.93097L0.628127 7.86025L0.677271 7.79837L0.703379 7.73427L0.713746 7.68455L0.707987 7.66024L0.690709 7.63666L0.573608 7.53611L0.512562 7.50148L0.510642 7.48712L0.527152 7.39245L0.540205 7.2558L0.569769 7.19944L0.580903 7.12099L0.580519 7.04769L0.594725 6.94455L0.605475 6.92061L0.613538 6.91214L0.654619 6.9114L0.755595 6.8742L0.795141 6.84878L0.841597 6.80421L0.872696 6.75854L0.922608 6.6624L0.927215 6.64988L0.917617 6.62004L0.868857 6.54564L0.918001 6.49738L0.914929 6.48412L0.899956 6.47786L0.899572 6.42077L0.912626 6.39756L0.970216 6.39351L0.978279 6.38872L0.979047 6.34637L0.993253 6.33789L1.00515 6.30364L1.05392 6.2587L1.0854 6.25133L1.13915 6.27859L1.16756 6.31358L1.22899 6.34489L1.22246 6.35742L1.24704 6.38872L1.25433 6.39462L1.28274 6.3983L1.28543 6.41672L1.30808 6.44766L1.34763 6.48339L1.37911 6.52391L1.38871 6.55411L1.40867 6.56995L1.41213 6.60126L1.43901 6.62336L1.45091 6.64435L1.48277 6.65393L1.49122 6.66535L1.51579 6.77327L1.53 6.7869L1.5323 6.80532L1.54075 6.81895L1.56071 6.83294L1.58106 6.8672L1.58682 6.89298L1.58183 6.90735L1.59066 6.91361L1.62253 6.9195L1.63865 6.90956L1.65171 6.91251L1.66169 6.93129L1.67282 6.93571L1.67858 6.95634L1.70047 6.94676L1.71275 6.95855L1.71352 6.97144L1.73579 6.98028L1.74193 6.97512L1.74232 6.94602L1.96692 6.84805L2.06214 6.75854L2.07327 6.74086L2.05638 6.69408L2.05407 6.67161L2.00723 6.66277L1.98689 6.65356L1.98189 6.64398L1.98381 6.62409L1.99226 6.61378L1.99802 6.59021L1.99994 6.56663L1.98919 6.53827L1.95348 6.48228L1.9412 6.44434L1.93006 6.34784L1.8932 6.16219L1.90396 6.12794L1.89282 6.09921L1.84444 6.07342L1.836 6.05795L1.83523 6.04285L1.8502 6.02554L1.86633 6.02112L1.8909 6.02664L1.9412 6.07121L1.99879 6.07563L2.02413 6.09626L2.03373 6.097L2.06598 6.06053L2.11858 6.03143L2.1516 5.98465L2.23376 5.8911L2.27138 5.87084L2.33473 5.85721L2.36814 5.82958L2.41344 5.8259L2.47065 5.80638L2.47833 5.78465L2.47142 5.76365L2.43993 5.69367L2.42726 5.67377L2.40615 5.65794L2.40538 5.64873L2.44646 5.58279L2.44108 5.53638L2.45068 5.52717L2.47372 5.52165L2.47756 5.49918L2.50635 5.50544L2.53976 5.52349L2.5555 5.52275L2.60695 5.50507L2.6822 5.51833L2.71253 5.51612L2.78855 5.45093L2.81082 5.42293L2.86035 5.38021L3.02544 5.32054L3.07343 5.31206L3.18324 5.25939L3.18669 5.25497L3.17287 5.24539L3.1579 5.20966L3.18669 5.1813L3.18593 5.16988L3.1698 5.15331L3.25235 5.14631L3.25465 5.10579H3.29036L3.29228 5.08885L3.27462 5.05017L3.28191 4.99308L3.29228 4.96067L3.30341 4.95809L3.31071 4.96545L3.31723 4.9603L3.33221 4.91352L3.37367 4.91389L3.39057 4.92236L3.44316 4.92973L3.44393 4.95146L3.40746 4.98571L3.40515 4.99492L3.47158 4.98756L3.47772 4.97577L3.48809 4.97135L3.49999 4.89179L3.47273 4.87742L3.45891 4.86195L3.45392 4.81775L3.46275 4.77281L3.48386 4.77097L3.55182 4.80191L3.57178 4.86969Z" fill="white"/>
<path d="M20.9247 11.0744L20.8648 11.2L20.7937 11.3149L20.826 11.6906L20.8667 11.7934L20.6413 11.7776L20.6547 11.9658L20.864 11.9709L20.8701 12.094L20.8993 12.1275L20.9139 12.1713L21.1535 12.3323L21.2249 12.4505L21.1907 12.5713L21.2149 12.6078L21.3574 12.7386L21.524 12.7559L21.5367 12.7573L21.6081 12.8203L21.6545 12.8266L21.6968 12.8815L21.7743 12.9323L21.7778 13.0553L21.7609 13.0981L21.7279 13.1345L21.7451 13.2056L21.7275 13.2517L21.6991 13.2645L21.5359 13.4134L21.5363 13.4767L21.6622 13.5191L21.6875 13.5025L21.7298 13.5077L21.7186 13.5419L21.8304 13.5286L21.8572 13.5721L21.7582 13.6874L21.7497 13.7706L21.7781 13.7869L21.7678 13.8292L21.7966 13.8414L21.8142 13.9114L21.8864 13.9257L22.0269 13.9894L22.007 14.0285L21.964 14.041L21.9724 14.0568L22.0446 14.0491L22.0861 14.0742L22.1248 14.058L22.1325 14.0926L22.1383 14.0918L22.1199 14.1228L22.1064 14.1847L22.0972 14.2001L22.0657 14.223L21.9893 14.1998L21.8976 14.1957L21.8684 14.2012L21.8507 14.1987L21.772 14.1655L21.7367 14.1703L21.7052 14.1836L21.6826 14.1799L21.676 14.1732L21.6491 14.1718L21.628 14.1438L21.5946 14.1301L21.5908 14.1206L21.5574 14.1047L21.5359 14.0845L21.5052 14.0808L21.4829 14.0646L21.4764 14.0683L21.4733 14.0506L21.4664 14.0425L21.4111 14.02L21.3965 14.0311H21.3389L21.3136 13.9983L21.3044 13.9673L21.2833 13.9493L21.2533 13.9349L21.2437 13.9069L21.2276 13.8996L21.1969 13.873L21.185 13.876L21.17 13.8668L21.1631 13.8708L21.1489 13.8462L21.1128 13.8428L21.102 13.8303L21.0897 13.8369L21.0748 13.8292L21.0421 13.8255L21.036 13.8182L21.0168 13.8148L21.0064 13.7935L20.9319 13.7983L20.9135 13.7939L20.9032 13.7997L20.9193 13.8318L20.9166 13.8395L20.9051 13.8454L20.8924 13.8458L20.8613 13.8624L20.826 13.8716L20.7895 13.8609L20.7745 13.8443L20.753 13.8384L20.7166 13.8955L20.7058 13.9309L20.6528 13.9165L20.6221 13.9198L20.5177 13.9725L20.4678 13.9924L20.4582 14.0034L20.4551 14.0097L20.4624 14.0226L20.4605 14.0344L20.4455 14.0653L20.4255 14.09L20.4148 14.1162L20.4175 14.2366L20.3864 14.2933L20.358 14.3884L20.3564 14.4425L20.3691 14.5007L20.4252 14.5699L20.4228 14.5913L20.4083 14.5983L20.3964 14.5998L20.3787 14.588L20.3 14.581L20.2731 14.5596L20.2735 14.514L20.2643 14.5048L20.2213 14.5025L20.1218 14.4764L20.0685 14.4815L20.0474 14.4764L20.0239 14.4841L20.0063 14.4779L19.9759 14.4768L19.9525 14.4598L19.9226 14.455L19.9038 14.4451L19.8519 14.3762L19.7943 14.3589L19.7494 14.3349L19.7352 14.3327L19.7068 14.3394L19.6692 14.3316L19.5075 14.2598L19.4703 14.2587L19.4396 14.2683L19.4212 14.2642L19.4054 14.2786L19.387 14.2819L19.3636 14.2742L19.3398 14.2502L19.286 14.2355L19.263 14.2215L19.2518 14.2064L19.1958 14.1883L19.162 14.1898L19.119 14.2127L19.0556 14.23L19.0199 14.2543L18.9777 14.2447L18.9673 14.2307L18.9382 14.2112L18.9247 14.2108L18.9025 14.2208L18.8433 14.223L18.8253 14.2425L18.7589 14.2392L18.7531 14.2465L18.7539 14.2635L18.722 14.3239L18.6825 14.3442L18.6844 14.381L18.6755 14.4049L18.583 14.4152L18.5596 14.4351L18.5577 14.444L18.5715 14.4642L18.6206 14.4989L18.6214 14.5173L18.6095 14.5416L18.5965 14.5456L18.5796 14.5408L18.5485 14.5154L18.5362 14.5254L18.5204 14.5493L18.5158 14.5814L18.5039 14.613L18.4889 14.6351L18.4778 14.641L18.4667 14.6657L18.4248 14.6293L18.4244 14.6068L18.3922 14.6053L18.4056 14.5688L18.3922 14.5456L18.3327 14.5607L18.282 14.4757L18.2413 14.4683L18.2198 14.4392L18.2106 14.4149L18.1864 14.4086L18.1822 14.3769L18.138 14.3611L18.1296 14.3287L18.0747 14.3316L17.9964 14.2852L18.0148 14.2388L18.0002 14.2215L17.9979 14.1736L18.0079 14.0941L17.9825 14.0598L18.0017 14.0414L17.9775 14.0311L17.9541 14.013L17.981 13.9673L17.9618 13.9533L17.9342 13.971L17.8961 13.9357L17.9096 13.8926L17.8912 13.8705L17.8647 13.8804L17.8462 13.8546L17.779 13.8487L17.7645 13.7909L17.7476 13.7894L17.7245 13.8439L17.6454 13.7887L17.5936 13.7964L17.602 13.7607L17.5852 13.7596L17.5448 13.7765L17.5126 13.6808L17.5333 13.6498L17.455 13.6233L17.5556 13.4852L17.5537 13.4646L17.6474 13.2402L17.6596 13.1264L17.7115 13.0487L17.7249 12.9636L17.7529 12.9456L17.6857 12.5087L17.6285 12.207L17.5859 12.1488L17.4938 11.7661L17.3913 11.5157L17.3248 11.3057L17.1897 11.0939L18.2467 11.0917L18.8449 11.077L18.9769 11.0862L19.6914 11.0608L20.9247 11.0744Z" fill="white"/>
<path d="M10.9503 10.2578L10.938 10.309V10.3679L10.9338 10.4309L11.0075 10.5175L11.11 10.5134L11.2248 10.5329L11.2659 10.5013L11.2947 10.5053L11.297 10.5672L11.2847 10.6891L11.2379 10.7657L11.1649 10.8073L11.0954 10.8324L11.0417 10.8792L10.9634 10.8924L10.8939 10.9543L10.8816 10.9992L10.8555 11.0342L10.7964 11.046L10.7495 11.0593L10.7407 11.095L10.7249 11.1149L10.7146 11.1716L10.7042 11.2199L10.6658 11.2449L10.6693 11.2766L10.6712 11.3168L10.7077 11.3551L10.7234 11.4136L10.7357 11.4619L10.7322 11.5219L10.7042 11.5838L10.6954 11.6206L10.7303 11.6457L10.7476 11.7057L10.7495 11.8409L10.7303 11.8825V11.926L10.7495 11.9879L10.7825 12.0148L10.7983 12.0615L10.8436 12.0649L10.8731 12.0999L10.9046 12.1982L10.9219 12.2748L10.9115 12.3466L10.8854 12.4185L10.8628 12.4303L10.8455 12.4468L10.8255 12.4619L10.5506 12.2715H10.5499V12.2711L9.91023 11.828L9.90946 11.8284L9.90831 11.8L9.89602 11.7683L9.87337 11.7466L9.84534 11.73L9.83651 11.7017L9.8296 11.6715L9.80695 11.6265L9.82614 11.6033L9.8296 11.5665L9.82269 11.5098L9.83152 11.4763L9.81578 11.4479H9.78084L9.75665 11.4394L9.74283 11.4243L9.71672 11.4111L9.7029 11.4276L9.69061 11.4545L9.66451 11.4729L9.64339 11.4844L9.61229 11.4832L9.59156 11.4733H9.56737L9.55854 11.4899V11.5249L9.5428 11.5348L9.53896 11.5713L9.35428 11.4435L9.28556 11.4689L9.28748 11.4379L9.31205 11.3985L9.34507 11.3827L9.34929 11.312L9.37809 11.2331L9.41495 11.1584L9.44758 11.1149L9.48444 11.0913L9.56238 11.0755L9.62496 11.0435L9.62611 11.0431V11.0464L9.63993 11.0486L9.66067 11.0652L9.70597 11.0718L9.75281 11.0685L9.76855 11.0552L9.79274 11.0302L9.82576 11.0118L9.86223 11.0302L9.89372 11.0519L9.87989 11.0821L9.84841 11.1156L9.82576 11.1473L9.80503 11.179L9.7962 11.2191L9.79428 11.2541L9.79965 11.281H9.83958L9.88143 11.2659L9.92328 11.2626L9.9563 11.2744L9.98394 11.2527L9.99968 11.2125L10.0154 11.1643L10.0415 11.1775L10.0657 11.1657L10.0865 11.1322L10.0953 11.0821L10.0884 11.0136L10.0795 10.9853L10.078 10.955L10.0918 10.9068L10.0726 10.8652L10.017 10.7768L9.99085 10.7399L9.98893 10.6998L10.0131 10.6946L10.0861 10.6928L10.1383 10.6946L10.1836 10.7031L10.2132 10.7381L10.2112 10.7933L10.2166 10.8383L10.2324 10.8633L10.227 10.905L10.2181 10.9333L10.2423 10.9466L10.2945 10.9433L10.3241 10.9149L10.3625 10.8832L10.3955 10.8648L10.4547 10.8714L10.533 10.8865L10.5729 10.895L10.6128 10.9167L10.6562 10.9617L10.7031 10.9768L10.8021 10.9584H10.844L10.8804 10.9352L10.9238 10.9101L10.9396 10.8567L10.9411 10.7834L10.9184 10.7418L10.882 10.6884L10.8766 10.6567L10.8747 10.6232L10.8417 10.6298L10.8136 10.6633L10.756 10.7016L10.7107 10.6865L10.6777 10.6615L10.657 10.6232H10.6136L10.5648 10.6298L10.5215 10.6416L10.4865 10.6582H10.4447L10.3925 10.6364L10.3752 10.6114L10.3491 10.5561L10.3268 10.5296L10.3314 10.4559L10.3621 10.4165L10.5314 10.3082H10.5829L10.619 10.3429L10.6393 10.3823L10.6343 10.4806L10.6447 10.5153L10.6723 10.4965V10.3823L10.7299 10.3981L10.7791 10.4217L10.8202 10.4022L10.849 10.3705L10.8778 10.3547V10.309L10.8286 10.2736L10.7917 10.2696L10.7507 10.25L10.7549 10.2147L10.8205 10.2106H10.8574L10.8943 10.2419L10.9503 10.2578ZM10.3541 11.4324L10.3909 11.4096L10.4278 11.3945L10.4596 11.3768H10.6581L10.6474 11.3591L10.5706 11.3565L10.4992 11.344L10.4808 11.3061L10.3855 11.2958L10.3222 11.3009L10.2615 11.3035L10.1982 11.3186L10.1955 11.372L10.1928 11.4483H10.2723L10.3541 11.4324Z" fill="white"/>
</svg>
