<svg width="52" height="52" viewBox="0 0 52 52" fill="none" xmlns="http://www.w3.org/2000/svg">
<g filter="url(#filter0_d_19_296)">
<rect x="4" y="2" width="44" height="44" rx="22" fill="white"/>
<path fill-rule="evenodd" clip-rule="evenodd" d="M18.9996 16.9997C20.7902 15.2092 23.2664 14.1001 26 14.1001C28.7335 14.1001 31.2098 15.2092 33.0003 16.9997C34.7909 18.7903 35.9 21.2665 35.9 24.0001C35.9 26.7337 34.7909 29.2099 33.0003 31.0005C31.2098 32.791 28.7335 33.9001 26 33.9001C23.2664 33.9001 20.7902 32.791 18.9996 31.0005C17.2091 29.2099 16.1 26.7337 16.1 24.0001C16.1 21.2665 17.2091 18.7903 18.9996 16.9997ZM26.8997 32.0001C26.8997 29.8666 26.149 27.9084 24.8973 26.3753L26.4997 24.7729L31.5894 29.8626C30.339 31.0552 28.7095 31.8509 26.8996 32.0508L26.8997 32.0001ZM25.0997 32.0001C25.0997 30.3639 24.5463 28.857 23.6163 27.6563L20.9439 30.3287C22.1095 31.2614 23.5373 31.878 25.0996 32.0507L25.0997 32.0001ZM17.9997 24.9001C19.6359 24.9001 21.1429 25.4536 22.3435 26.3835L19.6711 29.0559C18.7386 27.8903 18.122 26.4625 17.9494 24.9003L17.9997 24.9001ZM26.4997 22.2273L28.1022 20.6249C27.0289 19.3104 26.324 17.6834 26.1448 15.9014C26.0966 15.9005 26.0484 15.9001 26 15.9001C24.3439 15.9001 22.8047 16.3964 21.5218 17.2494L26.4997 22.2273ZM31.0558 17.6712L29.3831 19.3439C28.6751 18.4297 28.1852 17.3379 27.9918 16.1467C29.1277 16.4337 30.1678 16.9608 31.0558 17.6712ZM33.8534 22.008C32.6621 21.8146 31.5702 21.3248 30.6559 20.6167L32.3286 18.944C33.0391 19.832 33.5662 20.8722 33.8534 22.008ZM27.7725 23.5001L29.375 21.8977C30.6895 22.9709 32.3166 23.6759 34.0987 23.8551C34.0996 23.9033 34.1 23.9516 34.1 24.0001C34.1 25.6562 33.6036 27.1954 32.7507 28.4783L27.7725 23.5001ZM23.6245 25.1025L25.2269 23.5001L20.1375 18.4107C18.945 19.661 18.1492 21.2904 17.9493 23.1002L17.9997 23.1001C20.1333 23.1001 22.0914 23.8508 23.6245 25.1025Z" fill="#2D66EE"/>
</g>
<defs>
<filter id="filter0_d_19_296" x="0" y="0" width="52" height="52" filterUnits="userSpaceOnUse" color-interpolation-filters="sRGB">
<feFlood flood-opacity="0" result="BackgroundImageFix"/>
<feColorMatrix in="SourceAlpha" type="matrix" values="0 0 0 0 0 0 0 0 0 0 0 0 0 0 0 0 0 0 127 0" result="hardAlpha"/>
<feOffset dy="2"/>
<feGaussianBlur stdDeviation="2"/>
<feColorMatrix type="matrix" values="0 0 0 0 0 0 0 0 0 0 0 0 0 0 0 0 0 0 0.08 0"/>
<feBlend mode="normal" in2="BackgroundImageFix" result="effect1_dropShadow_19_296"/>
<feBlend mode="normal" in="SourceGraphic" in2="effect1_dropShadow_19_296" result="shape"/>
</filter>
</defs>
</svg>
