<svg width="40" height="46" viewBox="0 0 40 46" fill="none" xmlns="http://www.w3.org/2000/svg">
<path d="M20 13.25C20.5933 13.25 21.1733 13.0741 21.6667 12.7444C22.16 12.4148 22.5446 11.9462 22.7716 11.3981C22.9987 10.8499 23.0581 10.2467 22.9423 9.66473C22.8266 9.08279 22.5409 8.54824 22.1213 8.12868C21.7017 7.70912 21.1672 7.4234 20.5852 7.30765C20.0033 7.19189 19.4001 7.2513 18.8519 7.47836C18.3037 7.70543 17.8352 8.08994 17.5056 8.58329C17.1759 9.07664 17 9.65666 17 10.25C17 11.0457 17.316 11.8087 17.8787 12.3713C18.4413 12.9339 19.2043 13.25 20 13.25ZM20 8.75C20.2966 8.75 20.5867 8.83798 20.8333 9.0028C21.08 9.16762 21.2723 9.40189 21.3858 9.67598C21.4993 9.95007 21.529 10.2517 21.4712 10.5426C21.4133 10.8336 21.2704 11.1009 21.0606 11.3107C20.8509 11.5204 20.5836 11.6633 20.2926 11.7212C20.0016 11.7791 19.7 11.7494 19.4259 11.6358C19.1519 11.5223 18.9176 11.33 18.7528 11.0834C18.5879 10.8367 18.5 10.5467 18.5 10.25C18.5 9.85218 18.658 9.47065 18.9393 9.18934C19.2206 8.90804 19.6021 8.75 20 8.75Z" fill="#2D66EE"/>
<path d="M19.25 20.75H20.75V22.25H19.25V20.75Z" fill="#2D66EE"/>
<path d="M19.25 23.75H20.75V29H19.25V23.75Z" fill="#2D66EE"/>
<path d="M39.2375 41.2775C39.1677 41.1915 39.0797 41.122 38.9799 41.074C38.88 41.026 38.7708 41.0008 38.66 41H38V20.75C38 20.5511 37.921 20.3604 37.7803 20.2197C37.6397 20.0791 37.4489 20 37.25 20H32.51L31.9925 16.1525C31.9775 16.0314 31.9326 15.9159 31.862 15.8164C31.7913 15.7169 31.697 15.6366 31.5875 15.5825L27.47 13.52C27.1925 6.44755 20.765 0.912549 20.4875 0.680049C20.3517 0.563852 20.1788 0.5 20 0.5C19.8212 0.5 19.6483 0.563852 19.5125 0.680049C19.235 0.912549 12.8075 6.44755 12.53 13.52L8.4125 15.5825C8.30305 15.6366 8.20873 15.7169 8.13804 15.8164C8.06735 15.9159 8.02249 16.0314 8.0075 16.1525L7.49 20H2.75C2.55109 20 2.36032 20.0791 2.21967 20.2197C2.07902 20.3604 2 20.5511 2 20.75V41H1.34C1.22922 41.0008 1.11998 41.026 1.02012 41.074C0.920271 41.122 0.832288 41.1915 0.762497 41.2775C0.691485 41.3644 0.641093 41.4662 0.615111 41.5753C0.589129 41.6844 0.588236 41.798 0.612498 41.9075L1.265 44.9075C1.30109 45.0756 1.39378 45.2261 1.52758 45.3339C1.66137 45.4418 1.82815 45.5004 2 45.5H38C38.1719 45.5004 38.3386 45.4418 38.4724 45.3339C38.6062 45.2261 38.6989 45.0756 38.735 44.9075L39.3875 41.9075C39.4118 41.798 39.4109 41.6844 39.3849 41.5753C39.3589 41.4662 39.3085 41.3644 39.2375 41.2775ZM27.4625 15.1925L30.56 16.745L31.895 26.75H30.245L28.19 21.9575C28.1326 21.822 28.0365 21.7063 27.9138 21.625C27.7911 21.5436 27.6472 21.5002 27.5 21.5H26.2475C26.9644 19.4698 27.374 17.3438 27.4625 15.1925ZM20 2.27005C21.5075 3.70255 26 8.46505 26 14C26.057 16.9288 25.4385 19.8314 24.1925 22.4825C23.54 19.685 21.935 17.75 20 17.75C18.065 17.75 16.46 19.685 15.8075 22.4825C14.5615 19.8314 13.943 16.9288 14 14C14 8.47255 18.4925 3.71005 20 2.27005ZM20 30.9875C19.0475 30.08 17 27.815 17 25.25C17 21.7175 18.5825 19.25 20 19.25C21.4175 19.25 23 21.7175 23 25.25C23 27.815 20.9525 30.08 20 30.9875ZM27.5 30.5V38H12.5V30.5H17.5475C18.1341 31.2613 18.7976 31.96 19.5275 32.585C19.6618 32.6919 19.8284 32.7501 20 32.7501C20.1716 32.7501 20.3382 32.6919 20.4725 32.585C21.2024 31.96 21.8659 31.2613 22.4525 30.5H27.5ZM9.44 16.745L12.5375 15.1925C12.626 17.3438 13.0356 19.4698 13.7525 21.5H12.5C12.3528 21.5002 12.2089 21.5436 12.0862 21.625C11.9635 21.7063 11.8674 21.822 11.81 21.9575L9.755 26.75H8.105L9.44 16.745ZM3.5 21.5H7.295L6.5075 27.4025C6.49359 27.5084 6.50245 27.6161 6.53349 27.7182C6.56454 27.8204 6.61704 27.9148 6.6875 27.995C6.75718 28.0758 6.84357 28.1404 6.9407 28.1844C7.03782 28.2285 7.14336 28.2508 7.25 28.25H10.25C10.3972 28.2499 10.5411 28.2065 10.6638 28.1251C10.7865 28.0438 10.8826 27.9281 10.94 27.7925L12.995 23H14.3825C14.7018 23.6489 15.0809 24.2666 15.515 24.845C15.5075 24.98 15.5 25.115 15.5 25.25C15.5306 26.5692 15.8944 27.8592 16.5575 29H11.75C11.5511 29 11.3603 29.0791 11.2197 29.2197C11.079 29.3604 11 29.5511 11 29.75V38.75C11 38.949 11.079 39.1397 11.2197 39.2804C11.3603 39.421 11.5511 39.5 11.75 39.5H28.25C28.4489 39.5 28.6397 39.421 28.7803 39.2804C28.921 39.1397 29 38.949 29 38.75V29.75C29 29.5511 28.921 29.3604 28.7803 29.2197C28.6397 29.0791 28.4489 29 28.25 29H23.4425C24.1056 27.8592 24.4694 26.5692 24.5 25.25C24.5 25.115 24.4925 24.98 24.485 24.845C24.9191 24.2666 25.2982 23.6489 25.6175 23H27.005L29.06 27.7925C29.1174 27.9281 29.2135 28.0438 29.3362 28.1251C29.4589 28.2065 29.6028 28.2499 29.75 28.25H32.75C32.8566 28.2508 32.9622 28.2285 33.0593 28.1844C33.1564 28.1404 33.2428 28.0758 33.3125 27.995C33.383 27.9148 33.4355 27.8204 33.4665 27.7182C33.4975 27.6161 33.5064 27.5084 33.4925 27.4025L32.705 21.5H36.5V41H22.25C22.0511 41 21.8603 41.0791 21.7197 41.2197C21.579 41.3604 21.5 41.5511 21.5 41.75H18.5C18.5 41.5511 18.421 41.3604 18.2803 41.2197C18.1397 41.0791 17.9489 41 17.75 41H3.5V21.5ZM37.4 44H2.6L2.2775 42.5H17C17 42.699 17.079 42.8897 17.2197 43.0304C17.3603 43.171 17.5511 43.25 17.75 43.25H22.25C22.4489 43.25 22.6397 43.171 22.7803 43.0304C22.921 42.8897 23 42.699 23 42.5H37.7225L37.4 44Z" fill="#2D66EE"/>
<path d="M30.5 32H35V33.5H30.5V32Z" fill="#2D66EE"/>
<path d="M31.25 39.5H34.25C34.4489 39.5 34.6397 39.421 34.7803 39.2803C34.921 39.1397 35 38.9489 35 38.75V35.75C35 35.5511 34.921 35.3603 34.7803 35.2197C34.6397 35.079 34.4489 35 34.25 35H31.25C31.0511 35 30.8603 35.079 30.7197 35.2197C30.579 35.3603 30.5 35.5511 30.5 35.75V38.75C30.5 38.9489 30.579 39.1397 30.7197 39.2803C30.8603 39.421 31.0511 39.5 31.25 39.5ZM32 36.5H33.5V38H32V36.5Z" fill="#2D66EE"/>
<path d="M5 32H9.5V33.5H5V32Z" fill="#2D66EE"/>
<path d="M8.75 35H5.75C5.55109 35 5.36032 35.079 5.21967 35.2197C5.07902 35.3603 5 35.5511 5 35.75V38.75C5 38.9489 5.07902 39.1397 5.21967 39.2803C5.36032 39.421 5.55109 39.5 5.75 39.5H8.75C8.94891 39.5 9.13968 39.421 9.28033 39.2803C9.42098 39.1397 9.5 38.9489 9.5 38.75V35.75C9.5 35.5511 9.42098 35.3603 9.28033 35.2197C9.13968 35.079 8.94891 35 8.75 35ZM8 38H6.5V36.5H8V38Z" fill="#2D66EE"/>
<path d="M29 5H30.5V3.5H32V2H30.5V0.5H29V2H27.5V3.5H29V5Z" fill="#2D66EE"/>
<path d="M35 9.5H36.5V8H38V6.5H36.5V5H35V6.5H33.5V8H35V9.5Z" fill="#2D66EE"/>
<path d="M9.49997 5H11V3.5H12.5V2H11V0.5H9.49997V2H7.99997V3.5H9.49997V5Z" fill="#2D66EE"/>
<path d="M3.5 9.5H5V8H6.5V6.5H5V5H3.5V6.5H2V8H3.5V9.5Z" fill="#2D66EE"/>
</svg>
