<svg width="16" height="21" viewBox="0 0 16 21" fill="none" xmlns="http://www.w3.org/2000/svg">
<path fill-rule="evenodd" clip-rule="evenodd" d="M8 11.3638C9.933 11.3638 11.5 9.79677 11.5 7.86377C11.5 5.93077 9.933 4.36377 8 4.36377C6.067 4.36377 4.5 5.93077 4.5 7.86377C4.5 9.79677 6.067 11.3638 8 11.3638ZM8 9.56376C8.93888 9.56376 9.7 8.80264 9.7 7.86376C9.7 6.92487 8.93888 6.16376 8 6.16376C7.06112 6.16376 6.3 6.92487 6.3 7.86376C6.3 8.80264 7.06112 9.56376 8 9.56376Z" fill="#98A2B3"/>
<path fill-rule="evenodd" clip-rule="evenodd" d="M0.242859 8.13364C0.242859 3.84403 3.71428 0.36377 8 0.36377C12.2857 0.36377 15.7571 3.84403 15.7571 8.13364C15.7571 11.2668 13.7831 14.9863 10.1924 19.2317C10.0893 19.3536 9.97622 19.4667 9.8543 19.5698C8.64346 20.5939 6.83168 20.4425 5.80758 19.2317L5.2405 18.5612L5.24626 18.5561C2.01172 14.5907 0.242859 11.0995 0.242859 8.13364ZM7.18501 18.0729C7.56768 18.5214 8.24131 18.5765 8.69191 18.1954C8.73739 18.157 8.77959 18.1148 8.81807 18.0693C12.3633 13.8776 13.9571 10.5859 13.9571 8.13364C13.9571 4.835 11.2885 2.16377 8 2.16377C4.71154 2.16377 2.04286 4.835 2.04286 8.13364C2.04286 10.5859 3.63673 13.8776 7.18193 18.0693L7.18501 18.0729Z" fill="#98A2B3"/>
</svg>
