<svg width="52" height="52" viewBox="0 0 52 52" fill="none" xmlns="http://www.w3.org/2000/svg">
<g filter="url(#filter0_d_19_353)">
<rect x="4" y="2" width="44" height="44" rx="22" fill="white"/>
<path d="M26 13.1001C28.7614 13.1001 31 15.3387 31 18.1001H31.0542C32.3915 18.1001 32.8764 18.2393 33.3653 18.5008C33.8542 18.7623 34.2378 19.1459 34.4993 19.6348C34.7608 20.1237 34.9 20.6086 34.9 21.9459V26.8344C34.9 28.9235 34.6795 29.696 34.2656 30.4701C33.8516 31.2442 33.2441 31.8517 32.47 32.2657C31.6959 32.6796 30.9234 32.9001 28.8344 32.9001H23.1657C21.0766 32.9001 20.3041 32.6796 19.53 32.2657C18.7559 31.8517 18.1484 31.2442 17.7344 30.4701C17.3205 29.696 17.1 28.9235 17.1 26.8344V21.9459C17.1 20.6086 17.2392 20.1237 17.5007 19.6348C17.7622 19.1459 18.1458 18.7623 18.6347 18.5008C19.1236 18.2393 19.6086 18.1001 20.9458 18.1001H21C21 15.3387 23.2386 13.1001 26 13.1001ZM31.2469 19.9009L20.9458 19.9001C19.9983 19.9001 19.7428 19.9494 19.4836 20.0881C19.3084 20.1818 19.1817 20.3085 19.088 20.4837C18.9494 20.7429 18.9 20.9984 18.9 21.9459V26.8344C18.9 28.4695 19.0105 29.0394 19.3217 29.6212C19.5679 30.0816 19.9185 30.4322 20.3789 30.6784C20.9607 30.9896 21.5306 31.1001 23.1657 31.1001H28.8344C30.4694 31.1001 31.0393 30.9896 31.6211 30.6784C32.0815 30.4322 32.4321 30.0816 32.6783 29.6212C32.9895 29.0394 33.1 28.4695 33.1 26.8344V21.9459C33.1 20.9984 33.0507 20.7429 32.912 20.4837C32.8183 20.3085 32.6916 20.1818 32.5164 20.0881C32.2757 19.9593 32.0382 19.9076 31.2469 19.9009ZM29.946 21.0001C30.1514 21.0001 30.2941 21.0349 30.4163 21.1003C30.5385 21.1656 30.6345 21.2616 30.6998 21.3838C30.7652 21.506 30.8 21.6487 30.8 21.8541V21.9461C30.8 22.1515 30.7652 22.2942 30.6998 22.4164C30.6345 22.5386 30.5385 22.6346 30.4163 22.6999C30.2941 22.7653 30.1514 22.8001 29.946 22.8001H29.854C29.6486 22.8001 29.5059 22.7653 29.3837 22.6999C29.2615 22.6346 29.1655 22.5386 29.1002 22.4164C29.0348 22.2942 29 22.1515 29 21.9461V21.8541C29 21.6487 29.0348 21.506 29.1002 21.3838C29.1655 21.2616 29.2615 21.1656 29.3837 21.1003C29.5059 21.0349 29.6486 21.0001 29.854 21.0001H29.946ZM21.946 21.0001C22.1514 21.0001 22.2941 21.0349 22.4163 21.1003C22.5385 21.1656 22.6345 21.2616 22.6998 21.3838C22.7652 21.506 22.8 21.6487 22.8 21.8541V21.9461C22.8 22.1515 22.7652 22.2942 22.6998 22.4164C22.6345 22.5386 22.5385 22.6346 22.4163 22.6999C22.2941 22.7653 22.1514 22.8001 21.946 22.8001H21.854C21.6486 22.8001 21.5059 22.7653 21.3837 22.6999C21.2615 22.6346 21.1655 22.5386 21.1002 22.4164C21.0348 22.2942 21 22.1515 21 21.9461V21.8541C21 21.6487 21.0348 21.506 21.1002 21.3838C21.1655 21.2616 21.2615 21.1656 21.3837 21.1003C21.5059 21.0349 21.6486 21.0001 21.854 21.0001H21.946ZM26 14.9001C24.2327 14.9001 22.8 16.3328 22.8 18.1001H29.2C29.2 16.3328 27.7673 14.9001 26 14.9001Z" fill="#2D66EE"/>
</g>
<defs>
<filter id="filter0_d_19_353" x="0" y="0" width="52" height="52" filterUnits="userSpaceOnUse" color-interpolation-filters="sRGB">
<feFlood flood-opacity="0" result="BackgroundImageFix"/>
<feColorMatrix in="SourceAlpha" type="matrix" values="0 0 0 0 0 0 0 0 0 0 0 0 0 0 0 0 0 0 127 0" result="hardAlpha"/>
<feOffset dy="2"/>
<feGaussianBlur stdDeviation="2"/>
<feColorMatrix type="matrix" values="0 0 0 0 0 0 0 0 0 0 0 0 0 0 0 0 0 0 0.08 0"/>
<feBlend mode="normal" in2="BackgroundImageFix" result="effect1_dropShadow_19_353"/>
<feBlend mode="normal" in="SourceGraphic" in2="effect1_dropShadow_19_353" result="shape"/>
</filter>
</defs>
</svg>
