<svg width="52" height="52" viewBox="0 0 52 52" fill="none" xmlns="http://www.w3.org/2000/svg">
<g filter="url(#filter0_d_19_398)">
<rect x="4" y="2" width="44" height="44" rx="22" fill="white"/>
<path fill-rule="evenodd" clip-rule="evenodd" d="M26 27.6374L29.3 25.7322C30.6333 24.9624 30.6333 23.0379 29.3 22.2681L26 20.3628C24.6666 19.593 23 20.5552 23 22.0948L23 25.9054C23 27.445 24.6666 28.4072 26 27.6374ZM28.4 23.8269C28.5333 23.9039 28.5333 24.0963 28.4 24.1733L25.1 26.0786C24.9666 26.1556 24.8 26.0593 24.8 25.9054V22.0948C24.8 21.9409 24.9666 21.8447 25.1 21.9216L28.4 23.8269Z" fill="#2D66EE"/>
<path fill-rule="evenodd" clip-rule="evenodd" d="M18.9996 16.9997C20.7902 15.2092 23.2664 14.1001 26 14.1001C28.7336 14.1001 31.2098 15.2092 33.0004 16.9997C34.7909 18.7903 35.9 21.2665 35.9 24.0001C35.9 26.7337 34.7909 29.2099 33.0004 31.0005C31.2098 32.791 28.7336 33.9001 26 33.9001C23.2664 33.9001 20.7902 32.791 18.9996 31.0005C17.2091 29.2099 16.1 26.7337 16.1 24.0001C16.1 21.2665 17.2091 18.7903 18.9996 16.9997ZM26 15.9001C23.763 15.9001 21.7392 16.8057 20.2724 18.2725C18.8056 19.7393 17.9 21.7631 17.9 24.0001C17.9 26.2371 18.8056 28.2609 20.2724 29.7277C21.7392 31.1945 23.763 32.1001 26 32.1001C28.237 32.1001 30.2608 31.1945 31.7276 29.7277C33.1944 28.2609 34.1 26.2371 34.1 24.0001C34.1 21.7631 33.1944 19.7393 31.7276 18.2725C30.2608 16.8057 28.237 15.9001 26 15.9001Z" fill="#2D66EE"/>
</g>
<defs>
<filter id="filter0_d_19_398" x="0" y="0" width="52" height="52" filterUnits="userSpaceOnUse" color-interpolation-filters="sRGB">
<feFlood flood-opacity="0" result="BackgroundImageFix"/>
<feColorMatrix in="SourceAlpha" type="matrix" values="0 0 0 0 0 0 0 0 0 0 0 0 0 0 0 0 0 0 127 0" result="hardAlpha"/>
<feOffset dy="2"/>
<feGaussianBlur stdDeviation="2"/>
<feColorMatrix type="matrix" values="0 0 0 0 0 0 0 0 0 0 0 0 0 0 0 0 0 0 0.08 0"/>
<feBlend mode="normal" in2="BackgroundImageFix" result="effect1_dropShadow_19_398"/>
<feBlend mode="normal" in="SourceGraphic" in2="effect1_dropShadow_19_398" result="shape"/>
</filter>
</defs>
</svg>
