<svg width="14" height="21" viewBox="0 0 14 21" fill="none" xmlns="http://www.w3.org/2000/svg">
<path fill-rule="evenodd" clip-rule="evenodd" d="M6.17998 2.26387H7.81997C8.91377 2.26387 9.62587 2.26527 10.1692 2.30966C10.6916 2.35234 10.8976 2.42561 11.0079 2.48185C11.3843 2.6736 11.6902 2.97956 11.882 3.35589C11.9382 3.46628 12.0115 3.67227 12.0542 4.19461C12.0986 4.73797 12.1 5.45007 12.1 6.54387V14.1839C12.1 15.2777 12.0986 15.9898 12.0542 16.5331C12.0115 17.0555 11.9382 17.2615 11.882 17.3719C11.6902 17.7482 11.3843 18.0542 11.0079 18.2459C10.8976 18.3022 10.6916 18.3754 10.1692 18.4181C9.62587 18.4625 8.91377 18.4639 7.81997 18.4639H6.17998C5.08618 18.4639 4.37408 18.4625 3.83072 18.4181C3.30838 18.3754 3.10238 18.3022 2.99199 18.2459C2.61567 18.0542 2.30971 17.7482 2.11796 17.3719C2.06172 17.2615 1.98845 17.0555 1.94577 16.5331C1.90138 15.9898 1.89998 15.2777 1.89998 14.1839V6.54386C1.89998 5.45006 1.90138 4.73797 1.94577 4.19461C1.98845 3.67227 2.06172 3.46628 2.11796 3.35589C2.30971 2.97956 2.61567 2.6736 2.99199 2.48185C3.10238 2.42561 3.30838 2.35234 3.83072 2.30966C4.37408 2.26527 5.08617 2.26387 6.17998 2.26387ZM0.0999756 6.54386C0.0999756 4.41567 0.0999756 3.35157 0.514151 2.5387C0.87847 1.82369 1.4598 1.24236 2.17481 0.878042C2.98768 0.463867 4.05178 0.463867 6.17998 0.463867H7.81997C9.94817 0.463867 11.0123 0.463867 11.8251 0.878042C12.5401 1.24236 13.1215 1.82369 13.4858 2.5387C13.9 3.35157 13.9 4.41567 13.9 6.54387V14.1839C13.9 16.3121 13.9 17.3762 13.4858 18.1891C13.1215 18.9041 12.5401 19.4854 11.8251 19.8497C11.0123 20.2639 9.94817 20.2639 7.81997 20.2639H6.17998C4.05178 20.2639 2.98768 20.2639 2.17481 19.8497C1.4598 19.4854 0.87847 18.9041 0.514151 18.1891C0.0999756 17.3762 0.0999756 16.3121 0.0999756 14.1839V6.54386ZM6.24997 14.5639C5.75291 14.5639 5.34997 14.9668 5.34997 15.4639C5.34997 15.9609 5.75291 16.3639 6.24997 16.3639H7.74997C8.24703 16.3639 8.64997 15.9609 8.64997 15.4639C8.64997 14.9668 8.24703 14.5639 7.74997 14.5639H6.24997Z" fill="#98A2B3"/>
</svg>
