<svg width="20" height="17" viewBox="0 0 20 17" fill="none" xmlns="http://www.w3.org/2000/svg">
<path fill-rule="evenodd" clip-rule="evenodd" d="M5.79998 0.463867H5.76228H5.76225C4.95421 0.463858 4.29336 0.463849 3.75629 0.50773C3.20038 0.55315 2.6983 0.650032 2.22941 0.888943C1.49558 1.26285 0.898957 1.85947 0.525051 2.59331C0.28614 3.06219 0.189258 3.56427 0.143838 4.12019C0.0999575 4.65726 0.0999658 5.3181 0.0999759 6.12615V6.12617V6.16387V10.5639V10.6016V10.6016C0.0999658 11.4096 0.0999575 12.0705 0.143838 12.6076C0.189258 13.1635 0.28614 13.6655 0.525051 14.1344C0.898957 14.8683 1.49558 15.4649 2.22941 15.8388C2.6983 16.0777 3.20038 16.1746 3.75629 16.22C4.29337 16.2639 4.95422 16.2639 5.76227 16.2639H5.79998H14.2H14.2377C15.0457 16.2639 15.7066 16.2639 16.2437 16.22C16.7996 16.1746 17.3017 16.0777 17.7705 15.8388C18.5044 15.4649 19.101 14.8683 19.4749 14.1344C19.7138 13.6655 19.8107 13.1635 19.8561 12.6076C19.9 12.0705 19.9 11.4096 19.9 10.6016V10.5639V6.16387V6.12616C19.9 5.31811 19.9 4.65726 19.8561 4.12019C19.8107 3.56427 19.7138 3.06219 19.4749 2.59331C19.101 1.85947 18.5044 1.26285 17.7705 0.888943C17.3017 0.650032 16.7996 0.55315 16.2437 0.50773C15.7066 0.463849 15.0457 0.463858 14.2377 0.463867H14.2377H14.2H5.79998ZM3.38061 2.37603C3.51618 2.34468 3.68477 2.31957 3.90287 2.30175C4.35798 2.26457 4.94505 2.26387 5.79998 2.26387H14.2C15.0549 2.26387 15.642 2.26457 16.0971 2.30175C16.3152 2.31957 16.4838 2.34468 16.6193 2.37603L12.6103 5.88395C12.0325 6.38954 11.6369 6.73489 11.3074 6.98124C10.987 7.22085 10.7832 7.32441 10.6069 7.37656C10.2107 7.4937 9.78921 7.4937 9.3931 7.37656C9.21676 7.32441 9.01295 7.22085 8.69253 6.98124C8.3631 6.73489 7.96747 6.38954 7.38967 5.88396L3.38061 2.37603ZM2.05037 3.60386C2.00084 3.75954 1.96243 3.9661 1.93786 4.26676C1.90068 4.72187 1.89998 5.30894 1.89998 6.16387V10.5639C1.89998 11.4188 1.90068 12.0059 1.93786 12.461C1.97419 12.9056 2.04079 13.1444 2.12886 13.3172C2.3302 13.7124 2.65146 14.0336 3.0466 14.235C3.21944 14.3231 3.45827 14.3897 3.90287 14.426C4.35798 14.4632 4.94505 14.4639 5.79998 14.4639H14.2C15.0549 14.4639 15.642 14.4632 16.0971 14.426C16.5417 14.3897 16.7805 14.3231 16.9534 14.235C17.3485 14.0336 17.6698 13.7124 17.8711 13.3172C17.9592 13.1444 18.0258 12.9056 18.0621 12.461C18.0993 12.0059 18.1 11.4188 18.1 10.5639V6.16387C18.1 5.30894 18.0993 4.72187 18.0621 4.26676C18.0375 3.9661 17.9991 3.75954 17.9496 3.60386L13.7956 7.23859L13.7694 7.26153C13.2242 7.73854 12.7768 8.13007 12.3854 8.42275C11.9787 8.72685 11.5796 8.96596 11.1173 9.10266C10.388 9.31833 9.61192 9.31833 8.88265 9.10266C8.4204 8.96596 8.02121 8.72685 7.61455 8.42276C7.22317 8.13008 6.77574 7.73857 6.23062 7.26157L6.20436 7.23859L2.05037 3.60386Z" fill="#98A2B3"/>
</svg>
