<svg width="52" height="52" viewBox="0 0 52 52" fill="none" xmlns="http://www.w3.org/2000/svg">
<g filter="url(#filter0_d_19_394)">
<rect x="4" y="2" width="44" height="44" rx="22" fill="white"/>
<path d="M19.3737 20.3966C19.1997 20.4885 19.0114 20.3003 19.1034 20.1263L20.0952 18.2499L19.1034 16.3735C19.0114 16.1995 19.1997 16.0113 19.3737 16.1033L21.25 17.0951L23.1264 16.1033C23.3004 16.0113 23.4887 16.1995 23.3967 16.3735L22.4048 18.2499L23.3967 20.1263C23.4887 20.3003 23.3004 20.4885 23.1264 20.3966L21.25 19.4047L19.3737 20.3966Z" fill="#2D66EE"/>
<path d="M31.25 18.9047L29.3737 19.8966C29.1997 19.9885 29.0114 19.8003 29.1034 19.6263L30.0952 17.7499L29.1034 15.8735C29.0114 15.6995 29.1997 15.5113 29.3737 15.6033L31.25 16.5951L33.1264 15.6033C33.3004 15.5113 33.4887 15.6995 33.3967 15.8735L32.4048 17.7499L33.3967 19.6263C33.4887 19.8003 33.3004 19.9885 33.1264 19.8966L31.25 18.9047Z" fill="#2D66EE"/>
<path d="M29.3737 29.3966C29.1997 29.4885 29.0114 29.3003 29.1034 29.1263L30.0952 27.2499L29.1034 25.3735C29.0114 25.1995 29.1997 25.0113 29.3737 25.1033L31.25 26.0951L33.1264 25.1033C33.3004 25.0113 33.4887 25.1995 33.3967 25.3735L32.4048 27.2499L33.3967 29.1263C33.4887 29.3003 33.3004 29.4885 33.1264 29.3966L31.25 28.4047L29.3737 29.3966Z" fill="#2D66EE"/>
<path fill-rule="evenodd" clip-rule="evenodd" d="M27.1364 22.3635C27.4879 22.715 27.4879 23.2848 27.1364 23.6363L17.6364 33.1363C17.2849 33.4878 16.7151 33.4878 16.3636 33.1363C16.0121 32.7848 16.0121 32.215 16.3636 31.8635L25.8636 22.3635C26.2151 22.012 26.7849 22.012 27.1364 22.3635Z" fill="#2D66EE"/>
</g>
<defs>
<filter id="filter0_d_19_394" x="0" y="0" width="52" height="52" filterUnits="userSpaceOnUse" color-interpolation-filters="sRGB">
<feFlood flood-opacity="0" result="BackgroundImageFix"/>
<feColorMatrix in="SourceAlpha" type="matrix" values="0 0 0 0 0 0 0 0 0 0 0 0 0 0 0 0 0 0 127 0" result="hardAlpha"/>
<feOffset dy="2"/>
<feGaussianBlur stdDeviation="2"/>
<feColorMatrix type="matrix" values="0 0 0 0 0 0 0 0 0 0 0 0 0 0 0 0 0 0 0.08 0"/>
<feBlend mode="normal" in2="BackgroundImageFix" result="effect1_dropShadow_19_394"/>
<feBlend mode="normal" in="SourceGraphic" in2="effect1_dropShadow_19_394" result="shape"/>
</filter>
</defs>
</svg>
