<svg width="17" height="21" viewBox="0 0 17 21" fill="none" xmlns="http://www.w3.org/2000/svg">
<path fill-rule="evenodd" clip-rule="evenodd" d="M9.10001 2.26398H6.60001C5.60506 2.26398 4.91298 2.26468 4.3745 2.30868C3.84653 2.35181 3.54596 2.43204 3.31963 2.54736C2.83041 2.79663 2.43266 3.19438 2.18339 3.6836C2.06807 3.90993 1.98784 4.2105 1.9447 4.73848C1.90071 5.27696 1.90001 5.96904 1.90001 6.96398V13.764C1.90001 14.7589 1.90071 15.451 1.9447 15.9895C1.98784 16.5175 2.06807 16.818 2.18339 17.0444C2.43266 17.5336 2.83041 17.9313 3.31963 18.1806C3.54596 18.2959 3.84653 18.3761 4.3745 18.4193C4.91298 18.4633 5.60506 18.464 6.60001 18.464H10.4C11.3949 18.464 12.087 18.4633 12.6255 18.4193C13.1535 18.3761 13.4541 18.2959 13.6804 18.1806C14.1696 17.9313 14.5674 17.5336 14.8166 17.0444C14.9319 16.818 15.0122 16.5175 15.0553 15.9895C15.0993 15.451 15.1 14.7589 15.1 13.764V8.26398H13.2L13.1646 8.26398C12.6347 8.264 12.1836 8.26401 11.8131 8.23374C11.424 8.20195 11.0454 8.13231 10.6834 7.9479C10.1378 7.66987 9.69412 7.22622 9.41609 6.68055C9.23167 6.31862 9.16204 5.94002 9.13024 5.55086C9.09998 5.18043 9.09999 4.72925 9.10001 4.19938L9.10001 4.16398V2.26398ZM14.3272 6.46398L10.9 3.03677V4.16398C10.9 4.73888 10.9007 5.11593 10.9243 5.40429C10.947 5.68213 10.9863 5.79748 11.0199 5.86337C11.1254 6.07035 11.2936 6.23863 11.5006 6.34409C11.5665 6.37766 11.6819 6.41702 11.9597 6.43972C12.2481 6.46328 12.6251 6.46398 13.2 6.46398H14.3272ZM10.439 0.530292C10.1595 0.463196 9.87272 0.46355 9.5731 0.463922L9.50589 0.463979H6.60001H6.5616C5.6141 0.46397 4.84835 0.463963 4.22792 0.514654C3.58864 0.566886 3.02482 0.677391 2.50245 0.94355C1.67454 1.36539 1.00142 2.03851 0.579578 2.86642C0.313419 3.38879 0.202912 3.95261 0.15068 4.5919C0.09999 5.21232 0.0999973 5.97807 0.100006 6.92557V6.96398V13.764V13.8024C0.0999973 14.7499 0.0999899 15.5156 0.15068 16.1361C0.202912 16.7753 0.313419 17.3392 0.579578 17.8615C1.00142 18.6895 1.67454 19.3626 2.50245 19.7844C3.02482 20.0506 3.58864 20.1611 4.22792 20.2133C4.84835 20.264 5.6141 20.264 6.5616 20.264H6.60001H10.4H10.4384C11.3859 20.264 12.1517 20.264 12.7721 20.2133C13.4114 20.1611 13.9752 20.0506 14.4976 19.7844C15.3255 19.3626 15.9986 18.6895 16.4204 17.8615C16.6866 17.3392 16.7971 16.7754 16.8493 16.1361C16.9 15.5156 16.9 14.7499 16.9 13.8024V13.764V7.85809L16.9001 7.79089C16.9004 7.49126 16.9008 7.20451 16.8337 6.92503C16.7749 6.68014 16.6779 6.44604 16.5463 6.2313C16.3962 5.98624 16.1932 5.78373 15.981 5.57213L15.9335 5.52464L11.8393 1.43053L11.7919 1.38297C11.5803 1.17084 11.3777 0.967818 11.1327 0.817644C10.9179 0.686055 10.6838 0.589084 10.439 0.530292Z" fill="#98A2B3"/>
</svg>
