<svg width="52" height="52" viewBox="0 0 52 52" fill="none" xmlns="http://www.w3.org/2000/svg">
<g filter="url(#filter0_d_19_292)">
<rect x="4" y="2" width="44" height="44" rx="22" fill="white"/>
<path d="M28.2977 13.4349C29.0301 13.6058 29.6748 13.9781 30.189 14.5269C30.7103 15.0832 31.0136 15.6726 31.34 16.8247L32.1309 19.7691C32.2738 20.3026 31.9572 20.8509 31.4238 20.9939C30.8903 21.1368 30.342 20.8202 30.199 20.2868L29.4786 17.5981L29.366 17.1958C29.151 16.4672 28.9894 16.1717 28.7296 15.8944C28.4856 15.634 28.1906 15.4637 27.8431 15.3826C27.4731 15.2962 27.1363 15.304 26.3979 15.4822L25.9932 15.5858L20.8657 16.9597C20.0117 17.1885 19.612 17.3543 19.3569 17.5429L19.296 17.5905L19.162 17.7086C18.9017 17.9526 18.7313 18.2477 18.6502 18.5951C18.5566 18.996 18.5736 19.3578 18.7979 20.2336L21.5214 30.4022L21.634 30.8045C21.849 31.5331 22.0106 31.8286 22.2704 32.1059C22.5143 32.3662 22.8094 32.5366 23.1569 32.6177C23.5581 32.7113 23.9022 32.694 24.7642 32.4775C25.2999 32.343 25.8432 32.6682 25.9777 33.2038C26.1122 33.7395 25.787 34.2828 25.2514 34.4173C24.1026 34.7058 23.4456 34.7388 22.7023 34.5653C21.9699 34.3944 21.3252 34.0222 20.811 33.4734C20.2897 32.9171 19.9864 32.3277 19.6599 31.1755L16.9216 20.9627C16.5669 19.6392 16.5169 18.936 16.7025 18.1405C16.8545 17.4896 17.1655 16.9078 17.6327 16.4122L17.8152 16.2304L17.994 16.0726C18.4897 15.661 19.0713 15.3883 20.0853 15.1002L20.3481 15.0278L25.4755 13.6539C26.799 13.2993 27.5023 13.2492 28.2977 13.4349ZM32.3684 23.0001C34.3686 23.0001 36 24.5916 36 26.5674C36 28.4764 35.2284 29.4184 32.2201 31.701L30.8923 32.7085C30.3648 33.1088 29.6352 33.1088 29.1077 32.7085L27.7799 31.701C24.7716 29.4184 24 28.4764 24 26.5674C24 24.5916 25.6314 23.0001 27.6316 23.0001C28.4608 23.0001 29.2275 23.2238 29.914 23.6598L30 23.7171L30.086 23.6598C30.7039 23.2674 31.3867 23.047 32.1215 23.0068L32.3684 23.0001Z" fill="#2D66EE"/>
</g>
<defs>
<filter id="filter0_d_19_292" x="0" y="0" width="52" height="52" filterUnits="userSpaceOnUse" color-interpolation-filters="sRGB">
<feFlood flood-opacity="0" result="BackgroundImageFix"/>
<feColorMatrix in="SourceAlpha" type="matrix" values="0 0 0 0 0 0 0 0 0 0 0 0 0 0 0 0 0 0 127 0" result="hardAlpha"/>
<feOffset dy="2"/>
<feGaussianBlur stdDeviation="2"/>
<feColorMatrix type="matrix" values="0 0 0 0 0 0 0 0 0 0 0 0 0 0 0 0 0 0 0.08 0"/>
<feBlend mode="normal" in2="BackgroundImageFix" result="effect1_dropShadow_19_292"/>
<feBlend mode="normal" in="SourceGraphic" in2="effect1_dropShadow_19_292" result="shape"/>
</filter>
</defs>
</svg>
