<svg width="24" height="24" viewBox="0 0 24 24" fill="none" xmlns="http://www.w3.org/2000/svg">
<path fill-rule="evenodd" clip-rule="evenodd" d="M4.99962 4.99974C6.79018 3.20918 9.26641 2.1001 12 2.1001C14.7335 2.1001 17.2098 3.20918 19.0003 4.99974C20.7909 6.7903 21.9 9.26654 21.9 12.0001C21.9 14.7337 20.7909 17.2099 19.0003 19.0005C17.2098 20.791 14.7335 21.9001 12 21.9001C9.26641 21.9001 6.79018 20.791 4.99962 19.0005C3.20906 17.2099 2.09998 14.7337 2.09998 12.0001C2.09998 9.26654 3.20906 6.7903 4.99962 4.99974ZM12.8997 20.0001C12.8997 17.8666 12.149 15.9084 10.8973 14.3753L12.4997 12.7729L17.5894 17.8626C16.339 19.0552 14.7095 19.8509 12.8996 20.0508L12.8997 20.0001ZM11.0997 20.0001C11.0997 18.3639 10.5463 16.857 9.61634 15.6563L6.94389 18.3287C8.10947 19.2614 9.5373 19.878 11.0996 20.0507L11.0997 20.0001ZM3.99974 12.9001C5.63595 12.9001 7.14288 13.4536 8.34354 14.3835L5.67112 17.0559C4.73856 15.8903 4.12196 14.4625 3.94938 12.9003L3.99974 12.9001ZM12.4997 10.2273L14.1022 8.62489C13.0289 7.31041 12.324 5.68343 12.1448 3.90136C12.0966 3.90052 12.0484 3.9001 12 3.9001C10.3439 3.9001 8.80468 4.39644 7.5218 5.24937L12.4997 10.2273ZM17.0558 5.67124L15.3831 7.3439C14.6751 6.42968 14.1852 5.33788 13.9918 4.14666C15.1277 4.43373 16.1678 4.9608 17.0558 5.67124ZM19.8534 10.008C18.6621 9.81464 17.5702 9.32481 16.6559 8.61669L18.3286 6.94401C19.0391 7.83198 19.5662 8.87216 19.8534 10.008ZM13.7725 11.5001L15.375 9.89768C16.6895 10.9709 18.3166 11.6759 20.0987 11.8551C20.0996 11.9033 20.1 11.9516 20.1 12.0001C20.1 13.6562 19.6036 15.1954 18.7507 16.4783L13.7725 11.5001ZM9.62453 13.1025L11.2269 11.5001L6.13751 6.41066C4.94496 7.66101 4.1492 9.29043 3.94934 11.1002L3.99974 11.1001C6.13326 11.1001 8.09144 11.8508 9.62453 13.1025Z" fill="#2D66EE"/>
</svg>
