<svg width="52" height="52" viewBox="0 0 52 52" fill="none" xmlns="http://www.w3.org/2000/svg">
<g filter="url(#filter0_d_19_390)">
<rect x="4" y="2" width="44" height="44" rx="22" fill="white"/>
<path fill-rule="evenodd" clip-rule="evenodd" d="M25.1646 15.1001H25.2H26.8H26.8354H26.8354C27.3653 15.1001 27.8165 15.1001 28.1869 15.1303C28.5761 15.1621 28.9546 15.2318 29.3166 15.4162C29.8623 15.6942 30.3059 16.1379 30.5839 16.6835C30.7683 17.0455 30.838 17.4241 30.8698 17.8132C30.8988 18.1685 30.9 18.5981 30.9 19.1001H31.8L31.8354 19.1001C32.3653 19.1001 32.8165 19.1001 33.1869 19.1303C33.5761 19.1621 33.9546 19.2318 34.3166 19.4162C34.8623 19.6942 35.3059 20.1379 35.5839 20.6835C35.7683 21.0455 35.838 21.4241 35.8698 21.8132C35.9 22.1836 35.9 22.6348 35.9 23.1647V23.1647V23.1647V23.2001V24.6001V24.6334C35.9 25.0249 35.9 25.3714 35.8766 25.6586C35.8516 25.9644 35.7956 26.2812 35.6384 26.5897C35.4083 27.0413 35.0412 27.4084 34.5896 27.6385C34.3617 27.7546 34.1292 27.8155 33.9 27.8495V28.4001V28.4362C33.9 29.0355 33.9 29.5391 33.8664 29.9512C33.8312 30.382 33.7547 30.7915 33.5567 31.1802C33.2547 31.7729 32.7728 32.2548 32.1801 32.5568C31.7914 32.7548 31.3819 32.8313 30.9511 32.8665C30.539 32.9001 30.0355 32.9001 29.4362 32.9001H29.4362L29.4 32.9001H22.6L22.5639 32.9001H22.5638C21.9645 32.9001 21.461 32.9001 21.0489 32.8665C20.6181 32.8313 20.2086 32.7548 19.8199 32.5568C19.2272 32.2548 18.7453 31.7729 18.4433 31.1802C18.2453 30.7915 18.1689 30.382 18.1337 29.9512C18.1 29.5391 18.1 29.0355 18.1 28.4362L18.1 28.4001V27.8495C17.8708 27.8155 17.6383 27.7546 17.4104 27.6385C16.9588 27.4084 16.5917 27.0413 16.3616 26.5897C16.2044 26.2812 16.1484 25.9644 16.1234 25.6586C16.1 25.3714 16.1 25.025 16.1 24.6335V24.6334L16.1 24.6001V23.2001L16.1 23.1647V23.1646C16.1 22.6348 16.1 22.1836 16.1302 21.8132C16.162 21.4241 16.2317 21.0455 16.4161 20.6835C16.6941 20.1379 17.1378 19.6942 17.6834 19.4162C18.0454 19.2318 18.424 19.1621 18.8131 19.1303C19.1836 19.1001 19.6347 19.1001 20.1646 19.1001L20.2 19.1001H21.1C21.1 18.5981 21.1012 18.1685 21.1302 17.8132C21.162 17.4241 21.2317 17.0455 21.4161 16.6835C21.6941 16.1379 22.1378 15.6942 22.6834 15.4162C23.0454 15.2318 23.424 15.1621 23.8131 15.1303C24.1835 15.1001 24.6347 15.1001 25.1646 15.1001H25.1646ZM19.4 26.1001H32.6C33.0349 26.1001 33.3069 26.0994 33.5119 26.0827C33.7064 26.0668 33.76 26.041 33.7724 26.0347C33.8853 25.9772 33.9771 25.8854 34.0346 25.7725C34.0409 25.7601 34.0667 25.7065 34.0826 25.512C34.0993 25.307 34.1 25.035 34.1 24.6001V23.2001C34.1 22.6252 34.0993 22.2481 34.0758 21.9598C34.053 21.6819 34.0137 21.5666 33.9801 21.5007C33.8747 21.2937 33.7064 21.1255 33.4994 21.02C33.4335 20.9864 33.3182 20.9471 33.0403 20.9244C32.752 20.9008 32.3749 20.9001 31.8 20.9001H30.9V20.9001H30H22H21.1V20.9001H20.2C19.6251 20.9001 19.2481 20.9008 18.9597 20.9244C18.6819 20.9471 18.5665 20.9864 18.5006 21.02C18.2936 21.1255 18.1254 21.2937 18.0199 21.5007C17.9863 21.5666 17.947 21.6819 17.9243 21.9598C17.9007 22.2481 17.9 22.6252 17.9 23.2001V24.6001C17.9 25.035 17.9007 25.307 17.9175 25.512C17.9333 25.7065 17.9591 25.7601 17.9654 25.7725C18.0229 25.8854 18.1147 25.9772 18.2276 26.0347C18.24 26.041 18.2936 26.0668 18.4881 26.0827C18.6931 26.0994 18.9651 26.1001 19.4 26.1001ZM19.9 27.9001V28.4001C19.9 29.045 19.9007 29.4746 19.9277 29.8046C19.9538 30.1241 20 30.2704 20.0472 30.363C20.1766 30.617 20.3831 30.8235 20.6371 30.953C20.7298 31.0002 20.876 31.0463 21.1955 31.0724C21.5255 31.0994 21.9551 31.1001 22.6 31.1001H29.4C30.0449 31.1001 30.4745 31.0994 30.8045 31.0724C31.1241 31.0463 31.2703 31.0002 31.3629 30.953C31.6169 30.8235 31.8234 30.617 31.9529 30.363C32.0001 30.2704 32.0462 30.1241 32.0723 29.8046C32.0993 29.4746 32.1 29.045 32.1 28.4001V27.9001H19.9ZM29.0757 17.9598C29.0979 18.2311 29.0998 18.5809 29.1 19.1001H22.9C22.9002 18.5809 22.9021 18.2311 22.9243 17.9598C22.947 17.6819 22.9863 17.5666 23.0199 17.5007C23.1254 17.2937 23.2936 17.1255 23.5006 17.02C23.5665 16.9864 23.6819 16.9471 23.9597 16.9244C24.2481 16.9008 24.6251 16.9001 25.2 16.9001H26.8C27.3749 16.9001 27.752 16.9008 28.0403 16.9244C28.3182 16.9471 28.4335 16.9864 28.4994 17.02C28.7064 17.1255 28.8747 17.2937 28.9801 17.5007C29.0137 17.5666 29.053 17.6819 29.0757 17.9598Z" fill="#2D66EE"/>
</g>
<defs>
<filter id="filter0_d_19_390" x="0" y="0" width="52" height="52" filterUnits="userSpaceOnUse" color-interpolation-filters="sRGB">
<feFlood flood-opacity="0" result="BackgroundImageFix"/>
<feColorMatrix in="SourceAlpha" type="matrix" values="0 0 0 0 0 0 0 0 0 0 0 0 0 0 0 0 0 0 127 0" result="hardAlpha"/>
<feOffset dy="2"/>
<feGaussianBlur stdDeviation="2"/>
<feColorMatrix type="matrix" values="0 0 0 0 0 0 0 0 0 0 0 0 0 0 0 0 0 0 0.08 0"/>
<feBlend mode="normal" in2="BackgroundImageFix" result="effect1_dropShadow_19_390"/>
<feBlend mode="normal" in="SourceGraphic" in2="effect1_dropShadow_19_390" result="shape"/>
</filter>
</defs>
</svg>
