<svg width="200" height="37" viewBox="0 0 200 37" fill="none" xmlns="http://www.w3.org/2000/svg">
<path d="M7.40114 4.71295H0V0.382812H20.1717V4.71295H12.7706V23.2775H7.40114V4.71295Z" fill="white"/>
<path d="M44.2376 0.382812V23.2775H38.8923V13.8995H28.3952V23.2775H23.0258V0.382812H28.3952V9.42587H38.8923V0.382812H44.2376Z" fill="white"/>
<path d="M64.6269 18.2296C65.7395 17.6076 66.6102 16.7225 67.2391 15.622C67.8437 14.5215 68.1582 13.2536 68.1582 11.8421C68.1582 10.4067 67.8437 9.16267 67.2391 8.03827C66.6102 6.93779 65.7395 6.05262 64.6269 5.45454C63.5385 4.83253 62.305 4.52153 60.9263 4.52153C59.5719 4.52153 58.3384 4.83253 57.2258 5.45454C56.1374 6.05262 55.2666 6.93779 54.6378 8.03827C54.0089 9.16267 53.6945 10.4067 53.6945 11.8421C53.6945 13.2536 54.0089 14.5215 54.6378 15.622C55.2666 16.7225 56.1374 17.6076 57.2258 18.2296C58.3384 18.8517 59.5719 19.1627 60.9263 19.1627C62.305 19.1627 63.5385 18.8517 64.6269 18.2296ZM54.4443 22.1292C52.5094 21.1005 51.0098 19.689 49.9214 17.8947C48.833 16.1005 48.2767 14.067 48.2767 11.8421C48.2767 9.59329 48.833 7.5598 49.9214 5.76554C51.0098 3.97129 52.5094 2.55981 54.4443 1.5311C56.3792 0.502392 58.5319 0 60.9263 0C63.345 0 65.4976 0.502392 67.4084 1.5311C69.3191 2.55981 70.8429 3.97129 71.9313 5.76554C73.0439 7.5598 73.6002 9.59329 73.6002 11.8421C73.6002 14.067 73.0439 16.1005 71.9313 17.8947C70.8429 19.689 69.3191 21.1005 67.4084 22.1292C65.4976 23.1579 63.345 23.6603 60.9263 23.6603C58.5319 23.6603 56.3792 23.1579 54.4443 22.1292Z" fill="white"/>
<path d="M80.179 20.9569C78.3408 19.1388 77.4217 16.555 77.4217 13.2058V0.382812H82.7669V13.0144C82.7669 17.1053 84.4842 19.1627 87.9187 19.1627C89.6118 19.1627 90.8695 18.6603 91.7644 17.6555C92.6351 16.6747 93.0705 15.1196 93.0705 13.0144V0.382812H98.3674V13.2058C98.3674 16.555 97.4483 19.1388 95.6101 20.9569C93.7719 22.7512 91.2081 23.6603 87.8945 23.6603C84.5809 23.6603 82.0172 22.7512 80.179 20.9569Z" fill="white"/>
<path d="M105.962 22.9186C104.245 22.4402 102.866 21.7942 101.826 21.0048L103.664 17.0335C104.656 17.7512 105.817 18.3253 107.196 18.756C108.55 19.1866 109.929 19.4258 111.283 19.4258C112.807 19.4258 113.919 19.1866 114.669 18.756C115.395 18.3014 115.758 17.7033 115.758 16.9617C115.758 16.4115 115.54 15.9569 115.105 15.5981C114.669 15.2392 114.113 14.9521 113.46 14.7368C112.783 14.5215 111.864 14.2823 110.727 14.0191C108.961 13.6124 107.51 13.2057 106.397 12.7751C105.285 12.3684 104.317 11.6986 103.519 10.7895C102.697 9.88037 102.31 8.66028 102.31 7.12918C102.31 5.78947 102.673 4.5933 103.398 3.51674C104.124 2.44019 105.212 1.57895 106.688 0.956937C108.139 0.311004 109.929 0 112.057 0C113.533 0 114.96 0.167464 116.387 0.526315C117.789 0.861243 119.023 1.36363 120.087 2.03349L118.418 6.05262C116.29 4.85645 114.161 4.25837 112.009 4.25837C110.509 4.25837 109.421 4.4976 108.695 4.97607C107.97 5.45454 107.631 6.07655 107.631 6.86602C107.631 7.65549 108.042 8.22966 108.864 8.61243C109.687 8.9952 110.945 9.37798 112.638 9.73683C114.403 10.1435 115.854 10.5742 116.967 10.9808C118.104 11.3875 119.047 12.0574 119.869 12.9426C120.668 13.8277 121.079 15.0478 121.079 16.5789C121.079 17.8708 120.692 19.067 119.966 20.1435C119.216 21.2201 118.104 22.0813 116.653 22.7033C115.153 23.3493 113.363 23.6603 111.259 23.6603C109.421 23.6603 107.655 23.421 105.962 22.9186Z" fill="white"/>
<path d="M171.266 0.382812V23.2775H166.864L155.327 9.37802V23.2775H150.054V0.382812H154.481L165.969 14.2823V0.382812H171.266Z" fill="white"/>
<path d="M198.404 5.81343C197.339 4.09094 195.84 2.77516 193.905 1.81822C191.97 0.861281 189.769 0.382812 187.254 0.382812H176.732V4.73688H186.988C189.309 4.73688 191.148 5.38281 192.526 6.65075C193.905 7.91869 194.582 9.6651 194.582 11.8421C194.582 14.0192 193.905 15.7417 192.526 17.0096C191.148 18.2775 189.309 18.9235 186.988 18.9235H176.732V23.2775H187.254C189.769 23.2775 191.97 22.7991 193.905 21.8421C195.84 20.9091 197.339 19.5694 198.404 17.8469C199.468 16.1244 200 14.1149 200 11.8421C200 9.54549 199.468 7.53592 198.404 5.81343Z" fill="white"/>
<path d="M137.284 0.382812H132.011L121.683 23.2775H127.174L129.23 18.3732L130.947 14.3541L134.623 5.59812L138.275 14.3541L139.969 18.3732L142.024 23.2775H147.636L137.284 0.382812Z" fill="white"/>
<path d="M53.6462 35.622C54.0574 35.3828 54.3718 35.0718 54.6137 34.689C54.8555 34.2823 54.9523 33.8517 54.9523 33.3493C54.9523 32.8708 54.8555 32.4163 54.6137 32.0096C54.3718 31.6268 54.0574 31.3158 53.6462 31.0766C53.2592 30.8613 52.7997 30.7417 52.2918 30.7417C51.7838 30.7417 51.3485 30.8613 50.9373 31.0766C50.5261 31.3158 50.2117 31.6268 49.9698 32.0096C49.728 32.4163 49.607 32.8708 49.607 33.3493C49.607 33.8517 49.728 34.2823 49.9698 34.689C50.2117 35.0718 50.5261 35.3828 50.9373 35.622C51.3485 35.8374 51.7838 35.957 52.2918 35.957C52.7997 35.957 53.2592 35.8374 53.6462 35.622ZM50.6954 35.957C50.2359 35.6938 49.8489 35.335 49.5829 34.8804C49.3168 34.4259 49.1717 33.9235 49.1717 33.3493C49.1717 32.7991 49.3168 32.2728 49.5829 31.8182C49.8489 31.3637 50.2359 31.0048 50.6954 30.7417C51.1792 30.4785 51.7113 30.3589 52.2918 30.3589C52.8722 30.3589 53.4043 30.4785 53.8881 30.7417C54.3476 31.0048 54.7346 31.3637 55.0007 31.8182C55.2667 32.2728 55.4118 32.7752 55.4118 33.3493C55.4118 33.9235 55.2667 34.4259 55.0007 34.9043C54.7346 35.3589 54.3476 35.7177 53.8881 35.957C53.4043 36.2201 52.8722 36.3637 52.2918 36.3637C51.7113 36.3637 51.1792 36.2201 50.6954 35.957Z" fill="white"/>
<path d="M57.3468 30.7895V33.3015H60.5394V33.7082H57.3468V36.3158H56.9114V30.3828H60.9264V30.7895H57.3468Z" fill="white"/>
<path d="M69.3917 30.3828V36.3158H68.9563V33.4929H64.9655V36.3158H64.5302V30.3828H64.9655V33.1101H68.9563V30.3828H69.3917Z" fill="white"/>
<path d="M75.0272 34.2823L73.455 30.8613L71.8829 34.2823H75.0272ZM75.1965 34.6412H71.7136L70.9396 36.3158H70.4801L73.2374 30.3828H73.6727L76.43 36.3158H75.9463L75.1965 34.6412Z" fill="white"/>
<path d="M81.1222 33.5646C81.4609 33.3015 81.6302 32.8948 81.6302 32.3924C81.6302 31.8661 81.4609 31.4833 81.1222 31.1962C80.7836 30.9091 80.2999 30.7895 79.6469 30.7895H77.9538V33.9952H79.6469C80.2999 33.9952 80.7836 33.8517 81.1222 33.5646ZM81.4367 30.9091C81.8478 31.268 82.0655 31.7704 82.0655 32.3924C82.0655 33.0144 81.8478 33.4929 81.4367 33.8517C81.0013 34.2106 80.4208 34.378 79.6469 34.378H77.9538V36.3158H77.5184V30.3828H79.6469C80.4208 30.3828 81.0013 30.5742 81.4367 30.9091Z" fill="white"/>
<path d="M87.1448 33.5646C87.4834 33.3015 87.6527 32.8948 87.6527 32.3924C87.6527 31.8661 87.4834 31.4833 87.1448 31.1962C86.8061 30.9091 86.3224 30.7895 85.6936 30.7895H83.9763V33.9952H85.6936C86.3224 33.9952 86.8061 33.8517 87.1448 33.5646ZM87.4592 30.9091C87.8945 31.268 88.1122 31.7704 88.1122 32.3924C88.1122 33.0144 87.8945 33.4929 87.4592 33.8517C87.0238 34.2106 86.4433 34.378 85.6936 34.378H83.9763V36.3158H83.5409V30.3828H85.6936C86.4433 30.3828 87.0238 30.5742 87.4592 30.9091Z" fill="white"/>
<path d="M91.4258 34.2823V36.3158H90.9904V34.2823L88.5718 30.3828H89.0555L91.2081 33.8756L93.3849 30.3828H93.8203L91.4258 34.2823Z" fill="white"/>
<path d="M98.0529 35.957C97.5933 35.7177 97.2305 35.3589 96.9403 34.9043C96.6742 34.4259 96.5533 33.9235 96.5533 33.3493C96.5533 32.7752 96.6742 32.2728 96.9403 31.8182C97.2305 31.3637 97.5933 31.0048 98.0529 30.7417C98.5366 30.4785 99.0687 30.3589 99.6492 30.3589C100.085 30.3589 100.472 30.4067 100.834 30.5503C101.221 30.6938 101.512 30.9091 101.778 31.1723L101.512 31.4594C101.028 30.9809 100.423 30.7417 99.6734 30.7417C99.1655 30.7417 98.7059 30.8613 98.2947 31.0766C97.8836 31.3158 97.5691 31.6268 97.3273 32.0096C97.0854 32.4163 96.9887 32.8708 96.9887 33.3493C96.9887 33.8517 97.0854 34.2823 97.3273 34.689C97.5691 35.0718 97.8836 35.3828 98.2947 35.622C98.7059 35.8374 99.1655 35.957 99.6734 35.957C100.399 35.957 101.028 35.7177 101.512 35.2393L101.778 35.5263C101.512 35.7895 101.221 36.0048 100.834 36.1484C100.472 36.2919 100.085 36.3637 99.6492 36.3637C99.0687 36.3637 98.5366 36.2201 98.0529 35.957Z" fill="white"/>
<path d="M103.809 35.6938C103.398 35.2632 103.18 34.6412 103.18 33.8039V30.3828H103.616V33.7799C103.616 34.5216 103.785 35.0479 104.124 35.4067C104.462 35.7895 104.946 35.957 105.575 35.957C106.228 35.957 106.712 35.7895 107.05 35.4067C107.365 35.0479 107.534 34.5216 107.534 33.7799V30.3828H107.969V33.8039C107.969 34.6412 107.776 35.2632 107.341 35.6938C106.929 36.1484 106.325 36.3637 105.575 36.3637C104.825 36.3637 104.221 36.1484 103.809 35.6938Z" fill="white"/>
<path d="M110.34 36.1244C109.953 35.9809 109.638 35.7895 109.421 35.5503L109.614 35.2393C109.808 35.4546 110.098 35.622 110.461 35.7656C110.824 35.9091 111.186 35.9809 111.573 35.9809C112.154 35.9809 112.589 35.8613 112.879 35.646C113.17 35.4307 113.315 35.1675 113.315 34.8086C113.315 34.5455 113.242 34.3302 113.073 34.1866C112.928 34.0192 112.734 33.8996 112.517 33.8278C112.275 33.7321 111.96 33.6364 111.573 33.5646C111.138 33.445 110.799 33.3493 110.533 33.2536C110.267 33.134 110.025 32.9905 109.856 32.7752C109.663 32.5598 109.566 32.2728 109.566 31.9139C109.566 31.6268 109.638 31.3637 109.808 31.1244C109.953 30.8852 110.195 30.6938 110.509 30.5503C110.824 30.4307 111.211 30.3589 111.694 30.3589C112.033 30.3589 112.347 30.4067 112.662 30.5024C112.976 30.5981 113.266 30.7177 113.508 30.8852L113.339 31.2201C113.097 31.0766 112.831 30.933 112.541 30.8613C112.251 30.7656 111.985 30.7417 111.694 30.7417C111.138 30.7417 110.727 30.8374 110.437 31.0527C110.146 31.2919 110.001 31.5551 110.001 31.9139C110.001 32.1771 110.074 32.3924 110.243 32.5598C110.388 32.7034 110.582 32.823 110.824 32.9187C111.041 32.9905 111.356 33.0862 111.743 33.1819C112.178 33.3015 112.541 33.3972 112.807 33.4929C113.049 33.5886 113.291 33.756 113.46 33.9474C113.653 34.1627 113.75 34.4498 113.75 34.7847C113.75 35.0718 113.678 35.335 113.508 35.5742C113.363 35.8134 113.121 36.0048 112.783 36.1484C112.468 36.2919 112.057 36.3637 111.598 36.3637C111.162 36.3637 110.727 36.2919 110.34 36.1244Z" fill="white"/>
<path d="M116.29 30.7895H114.137V30.3828H118.878V30.7895H116.725V36.3158H116.29V30.7895Z" fill="white"/>
<path d="M123.763 35.622C124.175 35.3828 124.489 35.0718 124.731 34.689C124.973 34.2823 125.07 33.8517 125.07 33.3493C125.07 32.8708 124.973 32.4163 124.731 32.0096C124.489 31.6268 124.175 31.3158 123.763 31.0766C123.376 30.8613 122.917 30.7417 122.409 30.7417C121.901 30.7417 121.466 30.8613 121.055 31.0766C120.643 31.3158 120.329 31.6268 120.087 32.0096C119.845 32.4163 119.724 32.8708 119.724 33.3493C119.724 33.8517 119.845 34.2823 120.087 34.689C120.329 35.0718 120.643 35.3828 121.055 35.622C121.466 35.8374 121.901 35.957 122.409 35.957C122.917 35.957 123.376 35.8374 123.763 35.622ZM120.813 35.957C120.353 35.6938 119.966 35.335 119.7 34.8804C119.434 34.4259 119.289 33.9235 119.289 33.3493C119.289 32.7991 119.434 32.2728 119.7 31.8182C119.966 31.3637 120.353 31.0048 120.813 30.7417C121.296 30.4785 121.829 30.3589 122.409 30.3589C122.989 30.3589 123.522 30.4785 124.005 30.7417C124.465 31.0048 124.852 31.3637 125.118 31.8182C125.384 32.2728 125.529 32.7752 125.529 33.3493C125.529 33.9235 125.384 34.4259 125.118 34.9043C124.852 35.3589 124.465 35.7177 124.005 35.957C123.522 36.2201 122.989 36.3637 122.409 36.3637C121.829 36.3637 121.296 36.2201 120.813 35.957Z" fill="white"/>
<path d="M132.713 36.3158L132.688 31.2441L130.197 35.5263H129.979L127.464 31.268V36.3158H127.029V30.3828H127.416L130.076 34.9761L132.761 30.3828H133.124V36.3158H132.713Z" fill="white"/>
<path d="M139.34 35.933V36.3158H135.228V30.3828H139.219V30.7895H135.663V33.1101H138.832V33.4929H135.663V35.933H139.34Z" fill="white"/>
<path d="M143.089 33.9952C143.718 33.9952 144.201 33.8517 144.54 33.5885C144.878 33.3015 145.048 32.8948 145.048 32.3924C145.048 31.8661 144.878 31.4833 144.54 31.1962C144.201 30.9091 143.718 30.7895 143.089 30.7895H141.371V33.9952H143.089ZM145.096 36.3158L143.669 34.3302C143.451 34.3541 143.258 34.378 143.089 34.378H141.371V36.3158H140.936V30.3828H143.089C143.838 30.3828 144.419 30.5742 144.854 30.9091C145.29 31.268 145.507 31.7704 145.507 32.3924C145.507 32.8469 145.386 33.2536 145.145 33.5646C144.903 33.8756 144.54 34.1149 144.105 34.2345L145.604 36.3158H145.096Z" fill="white"/>
<path d="M147.418 36.1244C147.031 35.9809 146.717 35.7895 146.499 35.5503L146.693 35.2393C146.91 35.4546 147.176 35.622 147.539 35.7656C147.902 35.9091 148.265 35.9809 148.652 35.9809C149.232 35.9809 149.667 35.8613 149.958 35.646C150.248 35.4307 150.393 35.1675 150.393 34.8086C150.393 34.5455 150.32 34.3302 150.151 34.1866C150.006 34.0192 149.813 33.8996 149.595 33.8278C149.353 33.7321 149.063 33.6364 148.652 33.5646C148.216 33.445 147.878 33.3493 147.612 33.2536C147.346 33.134 147.128 32.9905 146.934 32.7752C146.741 32.5598 146.644 32.2728 146.644 31.9139C146.644 31.6268 146.741 31.3637 146.886 31.1244C147.031 30.8852 147.273 30.6938 147.587 30.5503C147.902 30.4307 148.313 30.3589 148.773 30.3589C149.111 30.3589 149.426 30.4067 149.74 30.5024C150.079 30.5981 150.345 30.7177 150.587 30.8852L150.417 31.2201C150.175 31.0766 149.909 30.933 149.619 30.8613C149.329 30.7656 149.063 30.7417 148.773 30.7417C148.216 30.7417 147.805 30.8374 147.515 31.0527C147.225 31.2919 147.079 31.5551 147.079 31.9139C147.079 32.1771 147.176 32.3924 147.321 32.5598C147.466 32.7034 147.66 32.823 147.902 32.9187C148.12 32.9905 148.434 33.0862 148.821 33.1819C149.256 33.3015 149.619 33.3972 149.885 33.4929C150.151 33.5886 150.369 33.756 150.538 33.9474C150.732 34.1627 150.828 34.4498 150.828 34.7847C150.828 35.0718 150.756 35.335 150.587 35.5742C150.441 35.8134 150.2 36.0048 149.861 36.1484C149.547 36.2919 149.135 36.3637 148.676 36.3637C148.24 36.3637 147.805 36.2919 147.418 36.1244Z" fill="white"/>
</svg>
