<svg width="52" height="52" viewBox="0 0 52 52" fill="none" xmlns="http://www.w3.org/2000/svg">
<g filter="url(#filter0_d_19_386)">
<rect x="4" y="2" width="44" height="44" rx="22" fill="white"/>
<path d="M21.25 27.7499H22.25C22.6642 27.7499 23 28.0857 23 28.4999V29.4999C23 29.9141 22.6642 30.2499 22.25 30.2499H21.25C20.8358 30.2499 20.5 29.9141 20.5 29.4999V28.4999C20.5 28.0857 20.8358 27.7499 21.25 27.7499Z" fill="#2D66EE"/>
<path d="M29.75 27.7499H30.75C31.1642 27.7499 31.5 28.0857 31.5 28.4999V29.4999C31.5 29.9141 31.1642 30.2499 30.75 30.2499H29.75C29.3358 30.2499 29 29.9141 29 29.4999V28.4999C29 28.0857 29.3358 27.7499 29.75 27.7499Z" fill="#2D66EE"/>
<path d="M21.25 22.7499H22.25C22.6642 22.7499 23 23.0857 23 23.4999V24.4999C23 24.9141 22.6642 25.2499 22.25 25.2499H21.25C20.8358 25.2499 20.5 24.9141 20.5 24.4999V23.4999C20.5 23.0857 20.8358 22.7499 21.25 22.7499Z" fill="#2D66EE"/>
<path d="M29.75 22.7499H30.75C31.1642 22.7499 31.5 23.0857 31.5 23.4999V24.4999C31.5 24.9141 31.1642 25.2499 30.75 25.2499H29.75C29.3358 25.2499 29 24.9141 29 24.4999V23.4999C29 23.0857 29.3358 22.7499 29.75 22.7499Z" fill="#2D66EE"/>
<path d="M21.25 17.7499H22.25C22.6642 17.7499 23 18.0857 23 18.4999V19.4999C23 19.9141 22.6642 20.2499 22.25 20.2499H21.25C20.8358 20.2499 20.5 19.9141 20.5 19.4999V18.4999C20.5 18.0857 20.8358 17.7499 21.25 17.7499Z" fill="#2D66EE"/>
<path d="M29.75 17.7499H30.75C31.1642 17.7499 31.5 18.0857 31.5 18.4999V19.4999C31.5 19.9141 31.1642 20.2499 30.75 20.2499H29.75C29.3358 20.2499 29 19.9141 29 19.4999V18.4999C29 18.0857 29.3358 17.7499 29.75 17.7499Z" fill="#2D66EE"/>
<path fill-rule="evenodd" clip-rule="evenodd" d="M23.4613 14.0999H28.5387C29.556 14.0998 30.3742 14.0998 31.0363 14.1539C31.7173 14.2096 32.312 14.3269 32.8611 14.6067C33.736 15.0525 34.4474 15.7638 34.8932 16.6388C35.173 17.1879 35.2903 17.7826 35.3459 18.4636C35.4 19.1257 35.4 19.9439 35.4 20.9612V27.0386C35.4 28.0558 35.4 28.874 35.3459 29.5361C35.2903 30.2171 35.173 30.8118 34.8932 31.3609C34.4474 32.2359 33.736 32.9472 32.8611 33.393C32.312 33.6728 31.7173 33.7901 31.0363 33.8458C30.3742 33.8999 29.556 33.8999 28.5387 33.8999H23.4613C22.444 33.8999 21.6258 33.8999 20.9637 33.8458C20.2827 33.7901 19.6881 33.6728 19.139 33.393C18.264 32.9472 17.5526 32.2359 17.1068 31.3609C16.827 30.8118 16.7097 30.2171 16.6541 29.5361C16.6 28.874 16.6 28.0558 16.6 27.0385V20.9612C16.6 19.9439 16.6 19.1257 16.6541 18.4636C16.7097 17.7826 16.827 17.1879 17.1068 16.6388C17.5526 15.7638 18.264 15.0525 19.139 14.6067C19.6881 14.3269 20.2827 14.2096 20.9637 14.1539C21.6258 14.0998 22.444 14.0998 23.4613 14.0999ZM21.1103 15.948C20.5406 15.9945 20.2092 16.0815 19.9561 16.2105C19.4199 16.4837 18.9839 16.9197 18.7106 17.456C18.5817 17.709 18.4947 18.0405 18.4481 18.6101C18.4007 19.1903 18.4 19.9349 18.4 20.9999V26.9999C18.4 28.0648 18.4007 28.8094 18.4481 29.3896C18.4947 29.9592 18.5817 30.2907 18.7106 30.5437C18.9839 31.08 19.4199 31.516 19.9561 31.7892C20.2092 31.9182 20.5406 32.0052 21.1103 32.0518C21.6905 32.0992 22.4351 32.0999 23.5 32.0999H28.5C29.565 32.0999 30.3095 32.0992 30.8897 32.0518C31.4594 32.0052 31.7908 31.9182 32.0439 31.7892C32.5801 31.516 33.0161 31.08 33.2894 30.5437C33.4183 30.2907 33.5054 29.9592 33.5519 29.3896C33.5993 28.8094 33.6 28.0648 33.6 26.9999V20.9999C33.6 19.9349 33.5993 19.1903 33.5519 18.6101C33.5054 18.0405 33.4183 17.709 33.2894 17.456C33.0161 16.9197 32.5801 16.4837 32.0439 16.2105C31.7908 16.0815 31.4594 15.9945 30.8897 15.948C30.3095 15.9006 29.565 15.8999 28.5 15.8999H23.5C22.4351 15.8999 21.6905 15.9006 21.1103 15.948Z" fill="#2D66EE"/>
</g>
<defs>
<filter id="filter0_d_19_386" x="0" y="0" width="52" height="52" filterUnits="userSpaceOnUse" color-interpolation-filters="sRGB">
<feFlood flood-opacity="0" result="BackgroundImageFix"/>
<feColorMatrix in="SourceAlpha" type="matrix" values="0 0 0 0 0 0 0 0 0 0 0 0 0 0 0 0 0 0 127 0" result="hardAlpha"/>
<feOffset dy="2"/>
<feGaussianBlur stdDeviation="2"/>
<feColorMatrix type="matrix" values="0 0 0 0 0 0 0 0 0 0 0 0 0 0 0 0 0 0 0.08 0"/>
<feBlend mode="normal" in2="BackgroundImageFix" result="effect1_dropShadow_19_386"/>
<feBlend mode="normal" in="SourceGraphic" in2="effect1_dropShadow_19_386" result="shape"/>
</filter>
</defs>
</svg>
